<?xml version="1.0" encoding="UTF-8" standalone="no"?>
<svg
   width="100%"
   height="100%"
   viewBox="0 0 1659.9294 546.13439"
   fill="none"
   version="1.1"
   id="svg75"
   xmlns="http://www.w3.org/2000/svg"
   xmlns:svg="http://www.w3.org/2000/svg">
  <path
     d="m 837.36141,427.88544 c -9.663,0 -17.405,-3.376 -23.226,-10.129 -5.821,-6.752 -8.732,-15.891 -8.732,-27.417 v -24.449 c 0,-11.41 2.911,-20.491 8.732,-27.243 5.821,-6.869 13.563,-10.304 23.226,-10.304 7.917,0 14.146,2.329 18.686,6.986 4.541,4.54 6.811,10.943 6.811,19.209 l -6.112,-6.112 h 6.112 l -0.873,-23.575 v -26.196 h 26.195 v 127.484 h -25.322 v -18.337 h -6.112 l 6.112,-6.112 c 0,8.266 -2.27,14.727 -6.811,19.384 -4.54,4.541 -10.769,6.811 -18.686,6.811 z m 9.43,-22.702 c 4.774,0 8.499,-1.339 11.177,-4.017 2.678,-2.794 4.017,-6.694 4.017,-11.701 v -22.702 c 0,-5.006 -1.339,-8.848 -4.017,-11.526 -2.678,-2.794 -6.403,-4.191 -11.177,-4.191 -4.889,0 -8.673,1.397 -11.351,4.191 -2.561,2.678 -3.842,6.52 -3.842,11.526 v 22.702 c 0,5.007 1.281,8.907 3.842,11.701 2.678,2.678 6.462,4.017 11.351,4.017 z m 105.237,22.702 c -8.499,0 -15.892,-1.572 -22.179,-4.715 -6.286,-3.26 -11.176,-7.742 -14.669,-13.447 -3.376,-5.821 -5.064,-12.574 -5.064,-20.258 v -22.702 c 0,-7.684 1.688,-14.378 5.064,-20.083 3.493,-5.821 8.383,-10.304 14.669,-13.447 6.287,-3.26 13.68,-4.89 22.179,-4.89 8.615,0 16.008,1.63 22.179,4.89 6.29,3.143 11.12,7.626 14.49,13.447 3.5,5.705 5.24,12.399 5.24,20.083 v 22.702 c 0,7.684 -1.74,14.437 -5.24,20.258 -3.37,5.705 -8.2,10.187 -14.49,13.447 -6.171,3.143 -13.564,4.715 -22.179,4.715 z m 0,-22.702 c 5.123,0 9.023,-1.339 11.701,-4.017 2.677,-2.794 4.016,-6.694 4.016,-11.701 v -22.702 c 0,-5.123 -1.339,-9.023 -4.016,-11.701 -2.678,-2.677 -6.578,-4.016 -11.701,-4.016 -5.006,0 -8.906,1.339 -11.7,4.016 -2.678,2.678 -4.017,6.578 -4.017,11.701 v 22.702 c 0,5.007 1.339,8.907 4.017,11.701 2.794,2.678 6.694,4.017 11.7,4.017 z m 100.69899,22.702 c -7.92,0 -14.85,-1.222 -20.78,-3.667 -5.94,-2.562 -10.6,-6.054 -13.98,-10.478 -3.26,-4.424 -4.88,-9.605 -4.88,-15.543 h 26.19 c 0,2.794 1.22,5.065 3.67,6.811 2.56,1.63 5.82,2.445 9.78,2.445 h 7.68 c 4.77,0 8.38,-0.873 10.83,-2.62 2.56,-1.746 3.84,-4.191 3.84,-7.334 0,-2.911 -1.11,-5.123 -3.32,-6.636 -2.21,-1.63 -5.64,-2.736 -10.3,-3.319 l -11.18,-1.397 c -11.99,-1.513 -20.72,-4.424 -26.19,-8.731 -5.47,-4.308 -8.21,-10.886 -8.21,-19.734 0,-9.314 3.2,-16.532 9.6,-21.655 6.41,-5.122 15.78,-7.684 28.12,-7.684 h 6.64 c 11.76,0 21.13,2.562 28.11,7.684 6.99,5.123 10.48,11.992 10.48,20.607 h -26.19 c 0,-2.328 -1.17,-4.191 -3.5,-5.588 -2.21,-1.514 -5.18,-2.27 -8.9,-2.27 h -6.64 c -4.31,0 -7.45,0.756 -9.43,2.27 -1.98,1.397 -2.97,3.551 -2.97,6.461 0,2.678 0.87,4.715 2.62,6.112 1.86,1.398 4.77,2.387 8.73,2.969 l 12.05,1.572 c 12.11,1.513 21.07,4.54 26.9,9.081 5.93,4.541 8.9,11.293 8.9,20.258 0,9.779 -3.37,17.288 -10.13,22.528 -6.75,5.239 -16.7,7.858 -29.86,7.858 z"
     fill="#F4F4F4"
     id="path1"
     style="fill:#001221;fill-opacity:1" />
  <path
     d="m 812.45141,253.13944 v -127.483 h 41.039 c 12.923,0 23.226,2.968 30.91,8.906 7.684,5.821 11.526,13.738 11.526,23.75 0,5.589 -1.339,10.478 -4.016,14.67 -2.562,4.191 -6.054,7.451 -10.478,9.779 -4.308,2.329 -9.023,3.493 -14.146,3.493 v 0.524 c 5.705,-0.117 10.886,0.931 15.543,3.143 4.773,2.212 8.615,5.53 11.526,9.954 2.91,4.424 4.365,9.896 4.365,16.416 0,7.451 -1.804,13.971 -5.413,19.559 -3.493,5.472 -8.499,9.721 -15.019,12.748 -6.52,3.027 -14.262,4.541 -23.226,4.541 z m 25.322,-21.131 h 16.241 c 5.705,0 10.187,-1.513 13.447,-4.54 3.26,-3.027 4.89,-7.219 4.89,-12.574 0,-5.356 -1.63,-9.547 -4.89,-12.574 -3.26,-3.143 -7.742,-4.715 -13.447,-4.715 h -16.241 z m 0,-55.01 h 15.368 c 5.122,0 9.139,-1.339 12.05,-4.016 2.91,-2.795 4.365,-6.52 4.365,-11.177 0,-4.773 -1.455,-8.441 -4.365,-11.002 -2.911,-2.678 -6.928,-4.017 -12.05,-4.017 h -15.368 z m 120.255,77.887 c -12.923,0 -23.052,-3.492 -30.386,-10.478 -7.219,-6.985 -10.828,-16.532 -10.828,-28.64 v -58.677 h 26.195 v 58.503 c 0,5.355 1.281,9.488 3.842,12.399 2.562,2.794 6.287,4.191 11.177,4.191 4.773,0 8.441,-1.397 11.002,-4.191 2.677,-2.911 4.017,-7.044 4.017,-12.399 v -58.503 h 26.19 v 58.677 c 0,12.225 -3.66,21.829 -11,28.815 -7.33,6.869 -17.4,10.303 -30.209,10.303 z m 115.18899,-1.746 c -9.78,0 -17.46,-2.794 -23.05,-8.382 -5.59,-5.589 -8.38,-13.273 -8.38,-23.052 v -41.039 h -25.32 v -23.576 h 25.32 v -27.069 h 26.19 v 27.069 h 35.8 v 23.576 h -35.8 v 41.039 c 0,5.239 2.62,7.858 7.86,7.858 h 26.2 v 23.576 z m 94.41,1.746 c -8.5,0 -15.95,-1.571 -22.35,-4.715 -6.29,-3.26 -11.18,-7.742 -14.67,-13.447 -3.38,-5.821 -5.07,-12.573 -5.07,-20.257 v -22.703 c 0,-7.684 1.69,-14.378 5.07,-20.083 3.49,-5.821 8.38,-10.303 14.67,-13.447 6.4,-3.26 13.85,-4.89 22.35,-4.89 8.5,0 15.83,1.63 22.01,4.89 6.28,3.144 11.11,7.626 14.49,13.447 3.49,5.705 5.24,12.399 5.24,20.083 v 17.464 h -58.85 v 5.239 c 0,6.054 1.45,10.652 4.36,13.796 2.91,3.027 7.28,4.54 13.1,4.54 4.08,0 7.34,-0.698 9.78,-2.095 2.56,-1.397 4.25,-3.318 5.06,-5.763 h 25.68 c -2.1,8.382 -6.87,15.135 -14.32,20.257 -7.34,5.123 -16.19,7.684 -26.55,7.684 z m 16.77,-57.105 v -4.366 c 0,-5.938 -1.4,-10.478 -4.2,-13.622 -2.67,-3.143 -6.86,-4.715 -12.57,-4.715 -5.7,0 -10.01,1.63 -12.92,4.89 -2.8,3.26 -4.19,7.859 -4.19,13.796 v 2.62 l 35.62,-0.35 z m 88.29,57.105 c -8.5,0 -15.95,-1.571 -22.35,-4.715 -6.4,-3.26 -11.35,-7.742 -14.84,-13.447 -3.5,-5.821 -5.24,-12.573 -5.24,-20.257 v -22.703 c 0,-7.8 1.74,-14.553 5.24,-20.258 3.49,-5.704 8.44,-10.128 14.84,-13.272 6.4,-3.26 13.85,-4.89 22.35,-4.89 12.69,0 22.82,3.202 30.39,9.605 7.57,6.404 11.58,15.135 12.05,26.196 h -26.2 c -0.35,-4.075 -1.98,-7.277 -4.89,-9.605 -2.79,-2.329 -6.57,-3.493 -11.35,-3.493 -5.24,0 -9.25,1.339 -12.05,4.017 -2.79,2.677 -4.19,6.578 -4.19,11.7 v 22.703 c 0,5.006 1.4,8.906 4.19,11.7 2.8,2.678 6.81,4.017 12.05,4.017 4.78,0 8.56,-1.106 11.35,-3.318 2.91,-2.329 4.54,-5.589 4.89,-9.78 h 26.2 c -0.47,11.06 -4.48,19.792 -12.05,26.195 -7.57,6.404 -17.7,9.605 -30.39,9.605 z m 104.19,0 c -8.5,0 -15.89,-1.571 -22.18,-4.715 -6.28,-3.26 -11.17,-7.742 -14.67,-13.447 -3.37,-5.821 -5.06,-12.573 -5.06,-20.257 v -22.703 c 0,-7.684 1.69,-14.378 5.06,-20.083 3.5,-5.821 8.39,-10.303 14.67,-13.447 6.29,-3.26 13.68,-4.89 22.18,-4.89 8.62,0 16.01,1.63 22.18,4.89 6.29,3.144 11.12,7.626 14.5,13.447 3.49,5.705 5.23,12.399 5.23,20.083 v 22.703 c 0,7.684 -1.74,14.436 -5.23,20.257 -3.38,5.705 -8.21,10.187 -14.5,13.447 -6.17,3.144 -13.56,4.715 -22.18,4.715 z m 0,-22.702 c 5.12,0 9.02,-1.339 11.7,-4.017 2.68,-2.794 4.02,-6.694 4.02,-11.7 v -22.703 c 0,-5.122 -1.34,-9.023 -4.02,-11.7 -2.68,-2.678 -6.58,-4.017 -11.7,-4.017 -5,0 -8.9,1.339 -11.7,4.017 -2.68,2.677 -4.02,6.578 -4.02,11.7 v 22.703 c 0,5.006 1.34,8.906 4.02,11.7 2.8,2.678 6.7,4.017 11.7,4.017 z"
     fill="#F4F4F4"
     id="path2"
     style="fill:#001221;fill-opacity:1" />
  <rect
     x="1115.9774"
     y="286.78348"
     width="543.95203"
     height="187.97099"
     rx="33.879601"
     fill="#ffb522"
     id="rect2"
     ry="33.879601" />
  <path
     d="m 1201.2674,445.48444 c -4.94,0 -9.37,-1.051 -13.3,-3.152 -3.84,-2.102 -6.81,-5.072 -8.91,-8.911 -2.01,-3.746 -2.83,-8.179 -2.47,-13.296 l 1.37,-19.877 c 0.19,-2.924 -0.64,-5.254 -2.46,-6.991 -1.83,-1.736 -4.21,-2.604 -7.13,-2.604 h -17.14 v -19.191 h 17.14 c 2.92,0 5.3,-0.868 7.13,-2.605 1.82,-1.827 2.65,-4.158 2.46,-6.991 l -1.37,-20.699 c -0.27,-5.026 0.6,-9.367 2.61,-13.022 2.01,-3.747 4.93,-6.626 8.77,-8.636 3.84,-2.011 8.27,-3.016 13.3,-3.016 h 11.65 v 19.191 h -7.54 c -2.56,0 -4.62,0.64 -6.17,1.919 -1.55,1.28 -2.24,3.382 -2.06,6.306 l 1.37,20.699 c 0.37,5.026 -1.41,9.093 -5.34,12.2 -3.84,3.016 -9.14,4.523 -15.9,4.523 v -0.959 c 6.76,0 12.06,1.599 15.9,4.798 3.93,3.107 5.71,7.219 5.34,12.337 l -1.37,20.562 c -0.09,2.467 0.64,4.478 2.2,6.031 1.55,1.462 3.56,2.193 6.03,2.193 h 7.54 v 19.191 z m 30.51,-15.215 v -100.068 h 32.49 c 6.94,0 12.98,1.325 18.09,3.975 5.21,2.65 9.23,6.397 12.07,11.241 2.92,4.752 4.38,10.372 4.38,16.86 v 35.778 c 0,6.397 -1.46,12.017 -4.38,16.861 -2.84,4.843 -6.86,8.636 -12.07,11.377 -5.11,2.651 -11.15,3.976 -18.09,3.976 z m 20.56,-19.191 h 11.93 c 4.2,0 7.58,-1.188 10.14,-3.564 2.56,-2.377 3.84,-5.529 3.84,-9.459 v -35.778 c 0,-3.838 -1.28,-6.945 -3.84,-9.321 -2.56,-2.376 -5.94,-3.564 -10.14,-3.564 h -11.93 z m 94.26,20.561 c -6.67,0 -12.52,-1.233 -17.55,-3.701 -4.93,-2.559 -8.77,-6.077 -11.51,-10.555 -2.65,-4.569 -3.98,-9.869 -3.98,-15.901 v -17.82 c 0,-6.032 1.33,-11.286 3.98,-15.764 2.74,-4.57 6.58,-8.088 11.51,-10.555 5.03,-2.559 10.88,-3.839 17.55,-3.839 6.67,0 12.43,1.28 17.27,3.839 4.94,2.467 8.73,5.985 11.38,10.555 2.74,4.478 4.11,9.732 4.11,15.764 v 13.708 h -46.19 v 4.112 c 0,4.752 1.14,8.362 3.42,10.829 2.29,2.376 5.71,3.564 10.28,3.564 3.2,0 5.76,-0.548 7.68,-1.645 2.01,-1.096 3.34,-2.604 3.98,-4.523 h 20.15 c -1.65,6.58 -5.4,11.88 -11.24,15.901 -5.76,4.021 -12.71,6.031 -20.84,6.031 z m 13.16,-44.824 v -3.427 c 0,-4.661 -1.1,-8.225 -3.29,-10.693 -2.1,-2.467 -5.39,-3.701 -9.87,-3.701 -4.48,0 -7.86,1.28 -10.14,3.839 -2.2,2.558 -3.29,6.168 -3.29,10.829 v 2.056 l 27.96,-0.274 z m 56.15,43.454 -24.68,-75.394 h 21.25 l 12.61,42.358 c 0.73,2.558 1.46,5.346 2.2,8.361 0.73,3.016 1.28,5.438 1.64,7.266 0.46,-1.828 1.01,-4.25 1.65,-7.266 0.73,-3.015 1.41,-5.757 2.05,-8.224 l 12.48,-42.495 h 20.97 l -24.4,75.394 z m 91.79,1.37 c -6.22,0 -11.65,-0.959 -16.31,-2.878 -4.67,-2.011 -8.32,-4.752 -10.97,-8.225 -2.56,-3.473 -3.84,-7.539 -3.84,-12.2 h 20.56 c 0,2.193 0.96,3.975 2.88,5.346 2.01,1.279 4.57,1.919 7.68,1.919 h 6.03 c 3.75,0 6.58,-0.685 8.5,-2.056 2.01,-1.371 3.01,-3.29 3.01,-5.757 0,-2.285 -0.86,-4.021 -2.6,-5.209 -1.74,-1.28 -4.43,-2.148 -8.09,-2.605 l -8.77,-1.096 c -9.41,-1.188 -16.27,-3.473 -20.56,-6.854 -4.3,-3.382 -6.45,-8.545 -6.45,-15.49 0,-7.311 2.52,-12.977 7.54,-16.998 5.03,-4.021 12.39,-6.032 22.07,-6.032 h 5.21 c 9.23,0 16.59,2.011 22.07,6.032 5.48,4.021 8.23,9.413 8.23,16.175 h -20.57 c 0,-1.828 -0.91,-3.29 -2.74,-4.386 -1.73,-1.188 -4.06,-1.782 -6.99,-1.782 h -5.21 c -3.38,0 -5.85,0.594 -7.4,1.782 -1.55,1.096 -2.33,2.787 -2.33,5.072 0,2.101 0.69,3.701 2.06,4.797 1.46,1.097 3.74,1.874 6.85,2.331 l 9.46,1.233 c 9.5,1.188 16.54,3.564 21.11,7.129 4.66,3.564 6.99,8.864 6.99,15.901 0,7.676 -2.65,13.571 -7.95,17.683 -5.3,4.112 -13.11,6.168 -23.44,6.168 z m 54.5,13.845 v -19.191 h 7.54 c 2.47,0 4.48,-0.731 6.03,-2.193 1.65,-1.553 2.38,-3.564 2.2,-6.031 l -1.38,-20.562 c -0.36,-5.118 1.42,-9.23 5.35,-12.337 3.93,-3.199 9.23,-4.798 15.9,-4.798 v 0.959 c -6.67,0 -11.97,-1.507 -15.9,-4.523 -3.93,-3.107 -5.71,-7.174 -5.35,-12.2 l 1.38,-20.699 c 0.18,-2.924 -0.51,-5.026 -2.06,-6.306 -1.46,-1.279 -3.52,-1.919 -6.17,-1.919 h -7.54 v -19.191 h 11.65 c 5.03,0 9.46,1.005 13.3,3.016 3.84,2.01 6.76,4.889 8.77,8.636 2.1,3.655 2.97,7.996 2.61,13.022 l -1.37,20.699 c -0.19,2.833 0.64,5.164 2.46,6.991 1.92,1.737 4.3,2.605 7.13,2.605 h 17.14 v 19.191 h -17.14 c -2.83,0 -5.21,0.868 -7.13,2.604 -1.82,1.737 -2.65,4.067 -2.46,6.991 l 1.37,19.877 c 0.36,5.117 -0.51,9.55 -2.61,13.296 -2.01,3.839 -4.93,6.809 -8.77,8.911 -3.84,2.101 -8.27,3.152 -13.3,3.152 z"
     fill="#001221"
     id="path3" />
  <path
     d="m 542.1571,159.342 c 80.528,20.248 141.427,54.114 136.013,75.646 -0.186,0.74 -0.463,1.446 -0.798,2.148 l -29.454,78.759 -21.869,33.245 -65.268,180.002 c -4.781,19.012 -55.652,22.617 -113.63,8.039 -57.972,-14.577 -101.094,-41.816 -96.314,-60.829 l 27.633,-189.464 -3.545,-39.636 11.301,-83.323 c 0.035,-0.777 0.126,-1.531 0.312,-2.27 5.414,-21.533 75.088,-22.566 155.619,-2.317 z"
     fill="#f2efed"
     id="path4" />
  <path
     d="m 452.3251,527.16 c 17.821,4.481 34.775,7.28 49.334,8.418 13.78,-2.528 22.803,-7.612 24.684,-15.095 l 5.306,-14.644 c -4.255,-2.665 -9.222,-5.356 -14.798,-7.996 -5.96,0.177 -12.678,-0.024 -20.219,-0.767 -2.018,4.808 -4.129,9.592 -6.361,14.337 0.658,-4.957 1.426,-9.881 2.281,-14.784 -9.183,-1.099 -19.513,-2.981 -31.096,-5.893 -13.77,-3.462 -25.286,-7.375 -34.912,-11.443 -1.626,4.954 -3.347,9.887 -5.192,14.79 0.298,-5.527 0.729,-11.026 1.268,-16.502 -4.954,-2.238 -9.368,-4.512 -13.292,-6.769 -22.92,-1.15 -38.781,2.211 -40.741,10.004 -3.303,13.137 34.183,33.884 83.738,46.344 z"
     fill="#e0d5cc"
     id="path5" />
  <path
     d="m 399.4951,170 c 5.25,-2.719 11.081,-3.404 16.805,-3.853 5.729,-0.47 11.519,-0.389 17.277,-0.165 11.531,0.494 23.042,1.844 34.489,3.499 22.357,3.385 44.563,7.933 66.516,13.453 0.518,0.13 1.028,0.258 1.545,0.388 0.411,0.104 0.833,0.21 1.245,0.313 22.063,5.548 43.864,12.065 65.264,19.705 10.864,3.957 21.636,8.204 32.045,13.218 5.176,2.526 10.317,5.183 15.142,8.317 4.829,3.103 9.647,6.456 12.988,11.335 -2.251,-5.533 -6.565,-10.02 -10.998,-13.95 -4.425,-4.047 -9.354,-7.394 -14.286,-10.763 -10.048,-6.377 -20.593,-11.923 -31.425,-16.718 -10.777,-4.937 -21.903,-8.992 -33.065,-12.918 -11.221,-3.76 -22.602,-6.97 -34.026,-10.011 -11.507,-2.705 -23.045,-5.287 -34.709,-7.263 -11.689,-1.814 -23.411,-3.5 -35.248,-4.259 -11.819,-0.892 -23.723,-0.989 -35.588,-0.122 -5.939,0.626 -11.866,1.244 -17.686,2.713 -5.759,1.372 -11.681,3.282 -16.285,7.081 z"
     fill="#faf8f7"
     id="path6" />
  <path
     d="m 398.1861,229.524 -4.322,40.77 -0.105,1.376 c 0.358,12.656 46.044,50.21 110.155,50.21 61.925,15.571 114.86,18.873 120.946,7.767 l 0.456,-1.099 30.929,-72.281 z"
     fill="url(#paint0_linear_53_52)"
     id="path7"
     style="fill:url(#paint0_linear_53_52)" />
  <path
     d="m 393.7581,271.67 -15.115,169.318 c 0,0 9.29,31.261 82.813,49.747 73.576,18.501 96.548,-4.647 96.548,-4.647 l 83.996,-196.525 c -6.086,11.106 -74.47,24.37 -139.299,19.808 -74.893,-5.271 -108.584,-25.045 -108.943,-37.701 z"
     fill="url(#paint1_linear_53_52)"
     id="path8"
     style="fill:url(#paint1_linear_53_52)" />
  <path
     d="m 421.3511,494.083 c 1.846,-4.903 3.567,-9.836 5.193,-14.79 -1.344,-0.568 -2.652,-1.137 -3.924,-1.712 -0.539,5.476 -0.97,10.975 -1.269,16.502 z"
     fill="#d6cbc3"
     fill-opacity="0.5"
     id="path9" />
  <path
     d="m 426.5441,479.293 c 3.361,-10.237 6.318,-20.556 9.088,-30.918 4.181,-15.354 7.686,-30.847 11.063,-46.375 3.159,-15.561 6.173,-31.162 8.514,-46.909 2.329,-15.181 4.267,-30.449 5.167,-45.937 -0.156,-0.053 -0.312,-0.107 -0.464,-0.158 -5.413,14.559 -9.775,29.346 -13.751,44.202 -4.175,15.352 -7.677,30.849 -11.045,46.38 -3.14,15.573 -6.154,31.175 -8.491,46.914 -1.577,10.313 -2.979,20.661 -4.005,31.089 1.272,0.575 2.58,1.144 3.924,1.712 z"
     fill="#f2efed"
     fill-opacity="0.5"
     id="path10" />
  <path
     d="m 490.2711,511.412 c 2.232,-4.745 4.344,-9.529 6.361,-14.337 -1.333,-0.132 -2.694,-0.281 -4.08,-0.447 -0.855,4.903 -1.623,9.828 -2.281,14.784 z"
     fill="#d6cbc3"
     fill-opacity="0.5"
     id="path11" />
  <path
     d="m 543.1971,330.374 c 0.198,0.035 0.393,0.07 0.593,0.106 0.09,-0.651 0.181,-1.306 0.267,-1.957 -0.289,0.615 -0.576,1.235 -0.86,1.851 z"
     fill="#8c8075"
     id="path12" />
  <path
     d="m 492.5531,496.629 c 1.386,0.166 2.747,0.314 4.08,0.446 4.169,-9.929 7.934,-19.984 11.514,-30.085 5.386,-14.973 10.106,-30.145 14.688,-45.356 4.368,-15.28 8.617,-30.589 12.185,-46.093 3.497,-14.845 6.633,-29.809 8.77,-45.06 -0.199,-0.037 -0.395,-0.072 -0.593,-0.107 -6.452,13.96 -11.908,28.212 -17.004,42.565 -5.388,14.98 -10.108,30.153 -14.706,45.352 -4.388,15.274 -8.624,30.583 -12.204,46.088 -2.512,10.671 -4.835,21.399 -6.73,32.25 z"
     fill="#f2efed"
     fill-opacity="0.5"
     id="path13" />
  <path
     d="m 447.1501,537.18 c 57.968,14.576 108.854,10.955 113.63,-8.039 l 112.776,-282.014 c -5.253,3.683 -11.725,5.6 -18.041,6.936 -0.006,0.004 -0.011,0.002 -0.017,0.005 0.632,0.814 0.882,1.545 0.722,2.183 -10e-4,0.004 -10e-4,0.004 -0.003,0.009 l 0.028,0.007 -30.929,72.281 -0.456,1.099 -66.855,156.441 c 0,0 -6.261,6.311 -22.718,9.706 l -3.637,10.045 c 11.574,7.268 17.817,14.399 16.385,20.097 -2.116,8.413 -20.45,11.664 -46.375,9.641 -16.594,3.041 -40.081,2.374 -66.326,-2.272 5.545,1.838 11.305,3.568 17.231,5.166 -1.833,-0.461 -3.572,-0.828 -5.415,-1.291 z"
     fill="#e8e0da"
     id="path14" />
  <path
     d="m 501.6601,535.578 c 25.925,2.023 44.259,-1.228 46.375,-9.642 1.432,-5.698 -4.811,-12.828 -16.385,-20.097 l -5.306,14.644 c -1.882,7.482 -10.904,12.567 -24.684,15.095 z"
     fill="#e0d5cc"
     id="path15" />
  <path
     d="m 535.2871,495.794 c 16.457,-3.395 22.718,-9.706 22.718,-9.706 l 81.723,-191.543 c -10.783,2.246 -17.971,4.942 -38.188,9.434 l -9.968,36.464 z"
     fill="#ffaf0f"
     id="path16" />
  <path
     d="m 447.1501,537.18 c -5.906,-1.485 -11.551,-3.092 -17.087,-4.851 1.768,0.345 3.527,0.67 5.271,0.977 -46.17,-15.267 -77.898,-37.816 -73.765,-54.255 l 27.689,-189.479 -3.59,-39.586 8.628,-63.673 c -3.713,-3.432 -7.212,-7.245 -9.492,-11.791 l -9.87,72.765 3.534,39.572 0.002,0.028 -27.633,189.465 c -4.739,18.849 37.671,45.829 94.954,60.486 0.452,0.114 0.904,0.228 1.359,0.342 z"
     fill="#eee8e5"
     id="path17" />
  <path
     d="m 447.1501,537.18 c 1.842,0.463 3.581,0.83 5.415,1.291 -5.927,-1.598 -11.686,-3.328 -17.232,-5.166 -1.744,-0.306 -3.503,-0.631 -5.271,-0.977 5.536,1.759 11.181,3.367 17.088,4.852 z"
     fill="#e5d9d4"
     id="path18" />
  <path
     d="m 400.8571,191.9 c 0.366,-1.042 1.847,-1.767 4.324,-2.199 -2.382,-1.348 -4.731,-2.753 -7.015,-4.245 -1.139,-0.776 -2.304,-1.498 -3.436,-2.328 l -0.434,3.185 c 0.586,0.572 1.25,1.097 1.896,1.688 1.504,1.361 3.067,2.654 4.665,3.899 z m 254.641,62.168 c 0.006,-0.002 0.011,-0.001 0.017,-0.005 6.316,-1.336 12.789,-3.253 18.041,-6.936 l 0.102,-0.06 0.174,-0.464 -0.232,0.11 c -5.852,2.617 -12.264,3.391 -18.554,3.88 -0.325,0.022 -0.644,0.041 -0.965,0.059 0.211,0.269 0.305,0.618 0.214,0.977 -0.075,0.302 -0.293,0.547 -0.575,0.697 0.76,0.616 1.353,1.197 1.778,1.742 z M 651.9091,251 c 0.023,-0.084 0.055,-0.165 0.093,-0.24 -0.142,0.007 -0.283,0.013 -0.424,0.02 0.114,0.076 0.223,0.146 0.331,0.22 z m -267.105,-76.479 0.076,-0.526 -0.019,-0.02 -0.07,0.525 c 0.008,0.005 0.01,0.016 0.013,0.021 z"
     fill="#f0f0f0"
     id="path19" />
  <path
     d="m 394.2951,186.313 0.435,-3.185 c -3.687,-2.579 -7.17,-5.466 -9.85,-9.133 l -0.076,0.526 c 2.28,4.546 5.779,8.36 9.491,11.792 z"
     fill="#f7f1ee"
     id="path20" />
  <path
     fill-rule="evenodd"
     clip-rule="evenodd"
     d="m 630.3981,245.803 c 0.404,-0.338 -0.298,0.871 1.295,-1.668 l 0.096,0.092 -0.01,0.2 c -0.176,0.699 -0.694,1.177 -1.381,1.376 z"
     fill="#f7f1e8"
     id="path21" />
  <path
     fill-rule="evenodd"
     clip-rule="evenodd"
     d="m 621.8481,243.248 v -0.474 l 0.171,0.111 -0.016,0.064 z"
     fill="#f7f1e8"
     id="path22" />
  <path
     fill-rule="evenodd"
     clip-rule="evenodd"
     d="m 601.0891,383.993 c -0.951,4.855 -4.091,13.242 -7.068,24.005 -2.977,10.764 -5.792,23.905 -7.19,35.343 -1.398,11.438 -1.379,21.174 -2.852,27.959 -1.473,6.785 -4.438,10.62 -7.947,12.477 -3.509,1.858 -7.562,1.738 -11.494,0.762 -3.932,-0.975 -7.742,-2.806 -8.88,-5.836 -1.138,-3.029 0.395,-7.258 4.711,-15.565 4.315,-8.307 11.41,-20.694 16.196,-31.606 4.787,-10.912 7.263,-20.35 8.057,-28.754 0.795,-8.404 -0.091,-15.774 2.118,-19.983 2.21,-4.207 7.515,-5.254 10.787,-5.116 3.273,0.138 4.513,1.46 3.562,6.314 z"
     fill="#cccccc"
     fill-opacity="0.5"
     id="path23" />
  <path
     d="m 350.6501,468.98 27.633,-189.465 -0.002,-0.028 z"
     fill="#fefefe"
     id="path24" />
  <path
     d="m 397.9261,418.35 -28.766,-197.234 0.002,-0.03 z"
     fill="#fefefe"
     id="path25" />
  <path
     d="m 206.9501,131.294 c -83.831,21.079 -147.227301,56.334 -141.590801,78.749 0.1935,0.77 0.4825,1.505 0.8304,2.236 l 30.6624,81.988 16.148001,37.796 74.563,184.196 c 4.976,19.792 57.934,23.545 118.289,8.369 60.349,-15.175 105.24,-43.531 100.263,-63.323 l -28.766,-197.235 3.691,-41.261 -11.764,-86.74 c -0.037,-0.809 -0.131,-1.594 -0.325,-2.363 -5.636,-22.416 -78.168,-23.492 -162.001,-2.412 z"
     fill="#e8e5e3"
     id="path26" />
  <path
     d="m 300.4651,514.197 c -18.552,4.665 -36.201,7.578 -51.358,8.762 -14.345,-2.631 -23.737,-7.924 -25.696,-15.714 l -5.523,-15.243 c 4.429,-2.776 9.6,-5.576 15.405,-8.325 6.204,0.185 13.197,-0.025 21.048,-0.798 2.1,5.005 4.298,9.985 6.621,14.924 -0.685,-5.159 -1.483,-10.286 -2.374,-15.39 9.559,-1.143 20.314,-3.103 32.372,-6.135 14.334,-3.604 26.322,-7.677 36.343,-11.912 1.693,5.157 3.484,10.293 5.406,15.397 -0.311,-5.754 -0.76,-11.478 -1.321,-17.179 5.157,-2.33 9.752,-4.697 13.837,-7.046 23.86,-1.197 40.372,2.301 42.412,10.414 3.438,13.675 -35.585,35.273 -87.172,48.245 z"
     fill="#e0d5cc"
     id="path27" />
  <path
     d="m 355.4621,142.391 c -5.465,-2.831 -11.535,-3.544 -17.494,-4.012 -5.965,-0.489 -11.992,-0.405 -17.986,-0.171 -12.003,0.514 -23.986,1.919 -35.903,3.642 -23.274,3.524 -46.39,8.258 -69.244,14.005 -0.539,0.135 -1.07,0.268 -1.608,0.404 -0.428,0.107 -0.867,0.218 -1.296,0.326 -22.968,5.775 -45.663,12.559 -67.94,20.513 -11.31,4.119 -22.523,8.54 -33.359,13.76 -5.389,2.629 -10.741001,5.395 -15.764001,8.657 -5.027,3.23 -10.042,6.721 -13.52,11.801 2.342,-5.76 6.834,-10.432 11.448,-14.523 4.607,-4.212 9.738001,-7.697 14.873001,-11.204 10.46,-6.639 21.437,-12.412 32.713,-17.404 11.219,-5.139 22.802,-9.36 34.421,-13.448 11.681,-3.913 23.529,-7.255 35.421,-10.422 11.98,-2.814 23.991,-5.503 36.133,-7.56 12.168,-1.888 24.371,-3.644 36.694,-4.433 12.303,-0.929 24.696,-1.03 37.047,-0.128 6.182,0.651 12.352,1.295 18.412,2.825 5.994,1.428 12.159,3.416 16.952,7.372 z"
     fill="#fafafa"
     id="path28" />
  <path
     d="m 358.0001,199.063 3.155,50.235 0.11,1.432 15.735,176.262 c 0,0 -9.671,32.542 -86.208,51.787 -76.594,19.259 -100.508,-4.838 -100.508,-4.838 l -69.597,-162.856 -0.475,-1.146 -36.380001,-84.376 139.500001,7.5 z"
     fill="#290c0d"
     id="path29" />
  <path
     d="m 358.0011,199.063 c 0.127,7.974 -74.23,65.688 -129.501,66 -42.423,0.24 -109.699,-15.12 -137.000001,-29.5 -8.423,-4.436 -8.969,-15.62 -8.999,-17.5 -0.038,-2.367 1.5,-15.5 14.499,-15.5 27.844001,0 68.531001,15.263 118.500001,13.5 85,-3 142.373,-24.975 142.501,-17 z"
     fill="#361315"
     id="path30" />
  <path
     d="m 332.7071,479.763 c -1.921,-5.104 -3.712,-10.24 -5.405,-15.397 1.399,-0.591 2.76,-1.183 4.085,-1.781 0.561,5.7 1.01,11.424 1.32,17.178 z"
     fill="#f2ece1"
     fill-opacity="0.5"
     id="path31" />
  <path
     d="m 327.3021,464.366 c -3.499,-10.656 -6.576,-21.398 -9.461,-32.185 -4.352,-15.984 -8.001,-32.112 -11.517,-48.277 -3.288,-16.199 -6.425,-32.44 -8.862,-48.833 -2.425,-15.803 -4.442,-31.698 -5.379,-47.821 0.163,-0.055 0.325,-0.111 0.482,-0.165 5.635,15.156 10.177,30.55 14.316,46.015 4.346,15.982 7.992,32.115 11.498,48.282 3.268,16.213 6.406,32.454 8.839,48.838 1.641,10.736 3.101,21.509 4.169,32.365 -1.324,0.598 -2.686,1.19 -4.085,1.781 z"
     fill="#8d5446"
     fill-opacity="0.5"
     id="path32" />
  <path
     d="m 260.9611,497.804 c -2.323,-4.939 -4.521,-9.92 -6.621,-14.924 1.387,-0.138 2.804,-0.293 4.247,-0.466 0.891,5.104 1.689,10.231 2.374,15.39 z"
     fill="#f2ece1"
     fill-opacity="0.5"
     id="path33" />
  <path
     d="m 258.5881,482.414 c -1.443,0.173 -2.86,0.328 -4.247,0.466 -4.34,-10.337 -8.26,-20.805 -11.986,-31.32 -5.607,-15.587 -10.521,-31.382 -15.292,-47.216 -4.546,-15.906 -8.969,-31.843 -12.684,-47.983 -3.64,-15.454 -6.905,-31.031 -9.129,-46.908 0.207,-0.039 0.411,-0.075 0.617,-0.111 6.717,14.532 12.397,29.369 17.701,44.31 5.609,15.595 10.522,31.39 15.309,47.212 4.568,15.901 8.978,31.837 12.705,47.978 2.615,11.109 5.033,22.277 7.006,33.572 z"
     fill="#51312e"
     fill-opacity="0.5"
     id="path34" />
  <path
     d="m 187.5631,516.26 -67.961,-187.409 0.016,0.025 z"
     fill="#dcd7d4"
     id="path35" />
  <path
     d="m 249.1071,522.96 c -26.989,2.106 -46.074,-1.279 -48.276,-10.037 -1.492,-5.932 5.008,-13.355 17.056,-20.921 l 5.524,15.243 c 1.959,7.79 11.351,13.083 25.696,15.715 z"
     fill="#dbd0c7"
     id="path36" />
  <path
     d="m 120.8551,308.585 -0.474,-1.145 -32.881001,-73.877 c 9.5,5.5 17.470001,8.647 27.970001,11.647 l 11.417,24.466 c -0.984,-0.399 -2.128,-0.495 -3.283,-0.205 -2.697,0.679 -4.38,3.254 -3.742,5.789 0.636,2.53 3.349,4.054 6.047,3.376 1.527,-0.384 2.714,-1.369 3.353,-2.603 l 1.24,3.319 c -1.291,1.608 -1.844,3.709 -1.322,5.782 0.767,3.052 3.61,5.081 6.803,5.097 l 2.775,4.207 c -1.536,1.662 -2.235,3.964 -1.67,6.213 0.92,3.656 4.817,5.812 8.713,4.833 0.071,-0.018 0.141,-0.036 0.208,-0.058 l 6.559,9.941 2.94,4.456 58.593,161.722 c -17.132,-3.534 -23.649,-10.104 -23.649,-10.104 z"
     fill="#1c0506"
     id="path37" />
  <path
     d="m 305.8511,524.628 c 6.149,-1.546 12.025,-3.219 17.788,-5.05 -1.84,0.359 -3.67,0.697 -5.487,1.017 48.064,-15.893 81.093,-39.367 76.79,-56.48 l -28.824,-197.25 3.737,-41.209 -8.982,-66.283 c 3.865,-3.574 7.508,-7.544 9.882,-12.276 l 10.274,75.75 -3.678,41.194 -0.002,0.03 28.766,197.234 c 4.933,19.622 -39.216,47.709 -98.848,62.967 -0.471,0.119 -0.941,0.237 -1.416,0.356 z"
     fill="#eee8e5"
     id="path38" />
  <path
     d="m 305.8531,524.628 c -1.918,0.483 -3.728,0.864 -5.637,1.344 6.169,-1.664 12.165,-3.464 17.938,-5.377 1.816,-0.319 3.647,-0.657 5.487,-1.017 -5.763,1.831 -11.64,3.504 -17.788,5.05 z"
     fill="#e5d9d4"
     id="path39" />
  <path
     d="m 370.7701,147.074 -0.074,-0.546 0.874,-1.218 c -0.213,0.616 -0.509,1.191 -0.8,1.764 z m -300.713901,75.543 -0.1132,-0.068 0.1132,-0.137 -0.1812,-0.278 z"
     fill="#fefefe"
     id="path40" />
  <path
     d="m 224.7191,213.034 c -39.008,9.808 -74.542,16.822 -99.58,20.059 -5.321,-0.013 -10.139,0 -15.948,-0.462 -17.191001,-3.068 -18.404001,-4.531 -25.048001,-5.972 -0.5,-1 -2.434,-7.955 -1.643,-8.596 9,6.5 22.011001,8.561 26.767001,8.325 13.205,-0.527 26.412,-2.075 39.479,-3.9 59.172,-8.857 139.036,-28.802 190.801,-54.327 3.34,-1.667 6.681,-3.403 9.959,-5.253 2.579,0.451 4.12,1.205 4.501,2.29 -3.727,2.891 -7.643,5.537 -11.514,8.127 -3.428,2.171 -6.905,4.246 -10.426,6.242 -23.118,9.729 -62.317,22.144 -107.348,33.467 z"
     fill="#fbfbfb"
     id="path41" />
  <path
     d="m 42.745899,168.529 c 30.9869,3.636 44.2912,12.294 58.257201,25.534 -32.500201,-11 -97.0086013,4.501 -100.50010123,-3.5 C -2.9882013,182.561 11.758299,164.891 42.745899,168.529 Z"
     fill="#603134"
     id="path42" />
  <path
     fill-rule="evenodd"
     clip-rule="evenodd"
     d="m 105.9571,192.629 c 1.335,-4.702 3.466,-21.381 -5.618,-31.483 -9.084001,-10.102 -29.382801,-13.627 -35.864501,-10.454 -6.4817,3.173 0.8538,13.045 9.6679,19.509 8.8136,6.464 19.1056,9.521 24.5226,14.688 5.416001,5.166 5.956001,12.441 7.292001,7.74 z"
     fill="#603134"
     id="path43" />
  <path
     fill-rule="evenodd"
     clip-rule="evenodd"
     d="m 99.071099,171.797 c -1.006,-2.607 -4.162,-7.866 -9.605,-11.525 -5.442,-3.66 -13.172,-5.718 -17.2199,-5.718 -4.0479,0 -4.4138,2.058 -3.6133,3.568 0.8005,1.509 2.7669,2.47 6.5632,3.064 3.796,0.595 9.422,0.824 12.807,1.83 3.384,1.006 4.528,2.79 5.191,4.436 0.663,1.647 0.846,3.156 1.532,4.277 0.686,1.121 1.875,1.852 3.042,2.241 1.166,0.389 2.309001,0.434 1.303,-2.173 z"
     fill="#814b4e"
     id="path44" />
  <path
     fill-rule="evenodd"
     clip-rule="evenodd"
     d="m 74.333099,182.872 c -1.744,-1.861 -7.2115,-5.616 -16.6411,-8.228 -9.4291,-2.612 -22.8209,-4.081 -29.8333,-4.081 -7.013,0 -7.6469,1.469 -6.26,2.547 1.3868,1.077 3.3275,5.528 9.9042,5.953 6.5774,0.424 17.7898,-3.178 23.6541,-2.46 5.8633,0.719 7.8444,1.992 8.9936,3.168 1.1486,1.175 1.4653,2.252 2.6538,3.052 1.189,0.801 3.2497,1.323 5.2705,1.6 2.0204,0.278 4.0012,0.31 2.2582,-1.551 z"
     fill="#814b4e"
     id="path45" />
  <path
     d="m 397.9631,230.452 c -0.056,7.806 58.853,14.565 131.571,15.084 72.72,0.52 131.718,-5.397 131.774,-13.203 0.056,-7.808 -58.852,-14.556 -131.572,-15.075 -72.718,-0.519 -131.717,5.387 -131.773,13.194 z"
     fill="url(#paint2_linear_53_52)"
     id="path46"
     style="fill:url(#paint2_linear_53_52)" />
  <path
     d="m 525.0691,237.858 c 37.476,9.423 71.616,16.162 95.671,19.272 3.852,-0.01 7.707,-0.11 11.565,-0.298 1.222,0.002 2.531,-0.097 3.756,-0.147 6.527,-0.496 13.054,-1.233 19.437,-2.617 -0.425,-0.545 -1.018,-1.126 -1.779,-1.742 -0.267,0.14 -0.59,0.19 -0.899,0.113 -0.684,-0.172 -1.066,-0.823 -0.918,-1.412 0.002,-0.009 0.004,-0.018 0.007,-0.028 -0.109,-0.074 -0.218,-0.144 -0.331,-0.219 -0.054,0.001 -0.111,0.005 -0.163,0.006 -0.007,0.13 -0.026,0.263 -0.058,0.391 -0.271,1.075 -1.411,1.726 -2.572,1.433 -0.871,-0.219 -1.502,-0.913 -1.639,-1.706 -0.354,0.006 -0.707,0.007 -1.06,0.011 -0.495,0.313 -1.134,0.43 -1.765,0.271 -0.239,-0.06 -0.461,-0.153 -0.659,-0.273 -2.552,-0.02 -5.109,-0.099 -7.674,-0.226 -12.686,-0.506 -25.375,-1.993 -37.929,-3.747 -24.575,-3.678 -48.94,-8.704 -73.04,-14.763 -0.638,-0.161 -1.275,-0.321 -1.913,-0.481 -0.58,-0.146 -1.159,-0.292 -1.736,-0.437 -15.053,-3.785 -29.992,-8.013 -44.775,-12.708 -0.942,0.531 -2.107,0.707 -3.276,0.414 -1.377,-0.347 -2.449,-1.274 -2.973,-2.428 -6.828,-2.24 -13.627,-4.576 -20.381,-7.013 -0.283,-0.109 -0.567,-0.213 -0.852,-0.317 0.003,0.174 -0.015,0.354 -0.06,0.535 -0.273,1.085 -1.436,1.724 -2.596,1.433 -1.161,-0.292 -1.879,-1.404 -1.606,-2.49 0.087,-0.345 0.265,-0.643 0.501,-0.885 -0.632,-0.24 -1.264,-0.479 -1.895,-0.721 -1.208,0.482 -2.604,0.601 -3.994,0.251 -1.992,-0.501 -3.533,-1.844 -4.287,-3.506 -2.159,-0.873 -4.307,-1.765 -6.444,-2.68 -0.503,0.368 -1.179,0.513 -1.857,0.343 -0.939,-0.236 -1.583,-1.009 -1.654,-1.865 -3.526,-1.555 -7.021,-3.173 -10.472,-4.875 -3.209,-1.602 -6.419,-3.27 -9.569,-5.047 -2.477,0.432 -3.958,1.157 -4.324,2.199 3.581,2.778 7.343,5.32 11.063,7.809 3.293,2.085 6.634,4.079 10.016,5.997 22.21,9.347 59.871,21.275 103.134,32.153 z"
     fill="#fbfbfb"
     id="path47" />
  <path
     fill-rule="evenodd"
     clip-rule="evenodd"
     d="m 584.4341,422.598 c 0.081,3.217 -2.751,13.678 -3.955,22.371 -1.205,8.693 -0.782,15.617 -1.27,20.827 -0.487,5.211 -1.885,8.708 -4.613,10.995 -2.729,2.288 -6.787,3.366 -10.952,2.713 -4.164,-0.653 -8.435,-3.037 -10.407,-6.369 -1.972,-3.331 -1.647,-7.609 -1.032,-10.223 0.615,-2.613 1.52,-3.561 3.115,-5.36 1.595,-1.798 3.881,-4.448 6.154,-3.909 2.274,0.54 4.535,4.267 6.005,4.885 1.471,0.619 2.151,-1.873 1.572,-3.934 -0.577,-2.061 -2.414,-3.693 -1.783,-5.688 0.63,-1.994 3.728,-4.351 4.562,-6.876 0.834,-2.526 -0.596,-5.219 0.116,-7.679 0.712,-2.461 3.566,-4.689 6.489,-7.817 2.924,-3.127 5.918,-7.154 5.999,-3.936 z"
     fill="#f2ece1"
     id="path48" />
  <path
     d="m 255.5061,263.838 c -0.264,-0.481 -0.525,-0.968 -0.792,-1.448 0.103,0.519 0.207,1.041 0.315,1.558 0.155,-0.036 0.316,-0.072 0.477,-0.11 z"
     fill="#361314"
     id="path49" />
  <path
     d="m 255.5061,263.838 c -0.264,-0.481 -0.525,-0.968 -0.792,-1.448 0.103,0.519 0.207,1.041 0.315,1.558 0.155,-0.036 0.316,-0.072 0.477,-0.11 z"
     fill="#361314"
     id="path50" />
  <path
     d="m 684.9711,201.61 c -24.515,-15.729 -74.449,4.493 -74.449,4.493 l -41.076,16.045 27.598,23.747 55.195,7.06 14.864,-3.209 c 0,0 -17.499,62.269 -39.792,99.155 -4.25,7.03 -4.441,13.639 -7.702,21.179 -4.352,10.062 -9.656,17.612 -5.135,27.598 7.685,16.971 34.374,4.849 46.852,-8.985 7.693,-8.529 14.019,-16.777 10.167,-27.598 -2.079,-5.841 -7.898,-6.424 -10.167,-12.194 -4.939,-12.561 7.149,-19.85 12.836,-32.09 5.623,-12.101 16.7,-11.709 16.046,-30.165 -0.885,-24.924 29.603,-12.683 23.645,-36.9 -5.238,-21.288 -10.431,-36.297 -28.882,-48.136 z"
     fill="url(#paint3_linear_53_52)"
     id="path51"
     style="fill:url(#paint3_linear_53_52)" />
  <path
     d="m 690.1051,215.73 c -8.246,-6.971 -15.01,-8.561 -25.672,-10.269 -7.672,-1.229 -12.569,-2.586 -19.896,0 -16.505,5.826 25.843,10.451 39.15,21.821 9.859,8.425 21.822,25.031 21.822,25.031 0,0 -3.565,-26.576 -15.404,-36.583 z"
     fill="#f7f1e8"
     id="path52" />
  <path
     d="m 664.7581,370.722 c 5,-9.57 -8.364,-21.415 -9.028,-32.192 -0.478,-7.755 13.153,-13.139 9.028,-19.723 -9.293,-14.833 -30.387,41.005 -21.402,42.93 12.68,2.717 0,34.658 0,34.658 0,0 14.225,-11.933 21.402,-25.673 z"
     fill="#f7f1e8"
     id="path53" />
  <circle
     cx="425.78412"
     cy="236.58501"
     r="15.4033"
     fill="#f2ece1"
     id="circle53" />
  <circle
     cx="434.77011"
     cy="263.53998"
     r="7.7016702"
     fill="#f2ece1"
     id="circle54" />
  <circle
     cx="456.59012"
     cy="194.22499"
     r="7.7016702"
     fill="#f7f1e8"
     id="circle55" />
  <circle
     cx="613.19214"
     cy="205.778"
     r="7.7016702"
     fill="#f7f1e8"
     id="circle56" />
  <path
     d="m 673.5221,305.9 c 0,4.254 -1.523,7.702 -5.777,7.702 -4.253,0 -7.06,-7.057 -7.06,-11.31 0,-4.254 2.807,-4.093 7.06,-4.093 4.254,0 5.777,3.448 5.777,7.701 z"
     fill="#f7f1e8"
     id="path56" />
  <circle
     cx="714.59711"
     cy="293.63098"
     r="15.4033"
     fill="#f7f1e8"
     id="circle57" />
  <path
     d="m 724.8661,286.003 c -2.873,-3.302 -6.418,-4.492 -10.269,-4.492 -3.372,0 3.616,2.974 6.418,5.776 1.284,1.284 2.808,3.15 3.851,5.134 1.2,2.285 1.925,10.783 2.567,9.628 0.642,-1.156 0.642,-8.986 0.642,-8.986 0,0 -0.763,-4.249 -3.209,-7.06 z"
     fill="#f6f6f6"
     id="path57" />
  <circle
     cx="692.13409"
     cy="314.24298"
     r="7.0598602"
     fill="#f2ece1"
     id="circle58" />
  <circle
     cx="706.25311"
     cy="292.422"
     r="4.49264"
     fill="#f6f6f6"
     id="circle59" />
  <circle
     cx="709.4621"
     cy="302.04901"
     r="2.56722"
     fill="#f6f6f6"
     id="circle60" />
  <circle
     cx="690.8501"
     cy="310.39203"
     r="1.92542"
     fill="#f6f6f6"
     id="circle61" />
  <path
     d="m 548.9281,165.739 -1.491,-5.294 5.294,-1.49 -1.491,-5.294 5.294,-1.49 -1.491,-5.294 5.294,-1.49 -1.491,-5.294 10.588,-2.981 -1.491,-5.293 -5.294,1.49 -1.49,-5.293 -21.174,5.962 1.49,5.293 -5.293,1.491 7.452,26.467 z m -2.313,12.078 1.491,5.293 5.293,-1.49 1.491,5.293 21.174,-5.962 -1.49,-5.294 5.293,-1.49 -7.452,-26.468 -5.294,1.491 1.491,5.293 -5.294,1.491 1.49,5.293 -5.293,1.491 1.49,5.293 -5.293,1.491 1.49,5.293 z m -13.414,-47.642 -1.491,-5.294 31.761,-8.943 1.491,5.294 5.294,-1.491 1.49,5.294 5.294,-1.491 14.905,52.935 -5.294,1.491 1.491,5.294 -5.294,1.49 1.491,5.294 -31.762,8.943 -1.49,-5.294 -5.294,1.491 -1.49,-5.294 -5.294,1.491 -14.905,-52.936 5.294,-1.49 -1.491,-5.294 z m 101.092,34.38 10.587,-2.981 2.981,10.587 -31.761,8.943 -2.981,-10.587 10.587,-2.981 -11.924,-42.348 -10.587,2.981 -2.981,-10.587 5.293,-1.49 -1.49,-5.294 5.293,-1.491 -1.49,-5.293 10.587,-2.981 z"
     fill="#ede5d9"
     id="path61" />
  <path
     d="m 533.6611,60.473 1.014,-3.41 3.41,1.014 1.014,-3.411 3.41,1.014 1.013,-3.41 3.411,1.013 1.013,-3.41 6.82,2.027 1.014,-3.411 -3.41,-1.013 1.013,-3.41 -13.641,-4.054 -1.013,3.41 -3.411,-1.013 -5.067,17.051 z m -5.437,5.808 -1.013,3.41 3.41,1.013 -1.013,3.411 13.641,4.053 1.013,-3.41 3.41,1.013 5.068,-17.051 -3.411,-1.013 -1.013,3.41 -3.41,-1.013 -1.014,3.41 -3.41,-1.014 -1.014,3.411 -3.41,-1.014 -1.013,3.41 z m 9.121,-30.693 1.014,-3.41 20.461,6.081 -1.013,3.41 3.41,1.013 -1.013,3.41 3.41,1.014 -10.134,34.103 -3.411,-1.014 -1.013,3.41 -3.41,-1.013 -1.014,3.41 -20.461,-6.08 1.013,-3.411 -3.41,-1.013 1.013,-3.41 -3.41,-1.014 10.134,-34.102 3.41,1.013 1.014,-3.41 z m 37.24,37.047 1.013,-3.411 3.41,1.014 1.014,-3.41 3.41,1.013 1.013,-3.41 3.411,1.013 1.013,-3.41 6.821,2.027 1.013,-3.41 -3.41,-1.014 1.013,-3.41 -13.641,-4.054 -1.013,3.41 -3.41,-1.013 -5.068,17.051 z m -5.438,5.807 -1.013,3.41 3.41,1.014 -1.013,3.41 13.641,4.054 1.013,-3.411 3.411,1.014 5.067,-17.052 -3.41,-1.013 -1.014,3.41 -3.41,-1.013 -1.014,3.41 -3.41,-1.013 -1.013,3.41 -3.411,-1.014 -1.013,3.411 z m 9.121,-30.693 1.014,-3.41 20.461,6.081 -1.013,3.41 3.41,1.013 -1.013,3.411 3.41,1.013 -10.134,34.103 -3.411,-1.014 -1.013,3.411 -3.41,-1.014 -1.014,3.410996 -20.461,-6.080996 1.013,-3.41 -3.41,-1.014 1.013,-3.41 -3.41,-1.014 10.134,-34.102 3.411,1.013 1.013,-3.41 z"
     fill="#ede5d9"
     id="path62" />
  <path
     d="m 673.0781,121.502 -2.167,-1.035 1.034,-2.166 -2.166,-1.034 1.034,-2.167 -2.166,-1.034 1.034,-2.167 -2.167,-1.034 2.069,-4.333 -2.167,-1.034 -1.034,2.166 -2.166,-1.034 -4.137,8.666 2.166,1.034 -1.034,2.167 10.832,5.171 z m 3.298,4.235 2.167,1.034 1.034,-2.167 2.166,1.035 4.137,-8.666 -2.166,-1.035 1.034,-2.166 -10.832,-5.171 -1.034,2.166 2.166,1.034 -1.034,2.167 2.166,1.034 -1.034,2.167 2.167,1.034 -1.035,2.166 2.167,1.035 z m -19.498,-9.309 -2.167,-1.034 6.206,-12.999 2.166,1.034 1.035,-2.166 2.166,1.034 1.034,-2.166 21.665,10.342 -1.034,2.167 2.166,1.034 -1.034,2.166 2.167,1.035 -6.206,12.999 -2.166,-1.035 -1.035,2.167 -2.166,-1.034 -1.034,2.166 -21.665,-10.343 1.034,-2.166 -2.166,-1.034 z m 28.611,-20.924 -2.167,-1.035 1.034,-2.166 -2.166,-1.034 1.034,-2.167 -2.166,-1.034 1.034,-2.167 -2.167,-1.034 2.069,-4.333 -2.167,-1.034 -1.034,2.166 -2.166,-1.034 -4.137,8.666 2.166,1.034 -1.034,2.167 10.832,5.171 z m 3.298,4.234996 2.167,1.034004 1.034,-2.167004 2.166,1.035 4.137,-8.665996 -2.166,-1.035 1.034,-2.166 -10.832,-5.171 -1.034,2.166 2.166,1.034 -1.034,2.167 2.166,1.034 -1.034,2.167 2.167,1.034 -1.035,2.166 2.167,1.035 z M 669.2891,90.43 l -2.167,-1.034 6.206,-12.999 2.166,1.034 1.035,-2.166 2.166,1.034 1.034,-2.166 21.665,10.342 -1.034,2.167 2.166,1.034 -1.034,2.167 2.167,1.034 -6.206,12.999 -2.166,-1.035 -1.035,2.167 -2.166,-1.034 -1.034,2.166 -21.665,-10.342 1.034,-2.167 -2.166,-1.034 z"
     fill="#ede5d9"
     id="path63" />
  <path
     d="m 626.8421,49.422 4.423,0.147 -0.148,4.423 -13.269,-0.443 0.148,-4.423 4.423,0.148 0.59,-17.692 -4.423,-0.147 0.147,-4.423 2.212,0.073 0.073,-2.211 2.212,0.074 0.074,-2.212 4.423,0.148 z m 26.537,0.885 4.423,0.147 -0.147,4.423 -13.269,-0.442 0.147,-4.423 4.423,0.147 0.591,-17.692 -4.423,-0.147 0.147,-4.423 2.212,0.073 0.073,-2.211 2.212,0.074 0.074,-2.212 4.423,0.148 z"
     fill="#ede5d9"
     id="path64" />
  <path
     d="m 157.1761,137.099 1.6,-5.261 5.262,1.6 1.6,-5.262 5.261,1.6 1.601,-5.261 5.261,1.6 1.6,-5.262 10.523,3.201 1.6,-5.262 -5.261,-1.6 1.6,-5.261 -21.046,-6.401 -1.6,5.262 -5.262,-1.601 -8,26.308 z m -8.462,8.923 -1.6,5.262 5.262,1.6 -1.6,5.261 21.046,6.401 1.6,-5.262 5.261,1.6 8.001,-26.307 -5.262,-1.6 -1.6,5.261 -5.261,-1.6 -1.6,5.262 -5.262,-1.601 -1.6,5.262 -5.262,-1.6 -1.6,5.261 z m 14.402,-47.354 1.6,-5.261 31.569,9.601 -1.6,5.261 5.261,1.6 -1.6,5.262 5.262,1.6 -16.002,52.615 -5.261,-1.6 -1.601,5.262 -5.261,-1.601 -1.6,5.262 -31.569,-9.601 1.6,-5.261 -5.262,-1.601 1.6,-5.261 -5.261,-1.6 16.001,-52.615 5.262,1.6 1.6,-5.262 z m 66.582,83.479 10.523,3.201 -3.2,10.523 -31.569,-9.601 3.2,-10.523 10.523,3.2 12.801,-42.092 -10.523,-3.2 3.201,-10.523 5.261,1.6 1.6,-5.262 5.262,1.6 1.6,-5.261 10.523,3.2 z"
     fill="#603134"
     id="path65" />
  <path
     d="m 158.9501,49.318 -1.014,-3.41 3.411,-1.014 -1.014,-3.41 3.41,-1.014 -1.013,-3.41 3.41,-1.013 -1.013,-3.411 6.82,-2.026 -1.013,-3.411 -3.41,1.014 -1.014,-3.411 -13.641,4.054 1.013,3.41 -3.41,1.014 5.067,17.051 z m -1.384,7.834 1.014,3.41 3.41,-1.013 1.013,3.41 13.642,-4.054 -1.014,-3.41 3.41,-1.013 -5.067,-17.052 -3.41,1.014 1.013,3.41 -3.41,1.013 1.014,3.411 -3.411,1.013 1.014,3.41 -3.411,1.014 1.014,3.41 z m -9.121,-30.693 -1.013,-3.41 20.462,-6.081 1.013,3.411 3.41,-1.014 1.014,3.41 3.41,-1.013 10.135,34.103 -3.411,1.013 1.014,3.411 -3.411,1.013 1.014,3.41 -20.462,6.081 -1.013,-3.41 -3.411,1.013 -1.013,-3.41 -3.41,1.013 -10.135,-34.103 3.41,-1.013 -1.013,-3.41 z m 51.428,10.698 -1.013,-3.411 3.41,-1.013 -1.013,-3.41 3.41,-1.014 -1.014,-3.41 3.411,-1.014 -1.014,-3.41 6.821,-2.027 -1.014,-3.41 -3.41,1.013 -1.013,-3.41 -13.641,4.054 1.013,3.41 -3.41,1.014 5.067,17.051 z m -1.383,7.834 1.013,3.41 3.411,-1.014 1.013,3.411 13.641,-4.054 -1.013,-3.41 3.41,-1.014 -5.067,-17.051 -3.411,1.013 1.014,3.411 -3.41,1.013 1.013,3.41 -3.41,1.014 1.013,3.41 -3.41,1.013 1.013,3.411 z m -9.121,-30.693 -1.014,-3.41 20.462,-6.081 1.014,3.41 3.41,-1.013 1.013,3.41 3.411,-1.013 10.134,34.103 -3.41,1.013 1.013,3.41 -3.41,1.014 1.013,3.41 -20.461,6.081 -1.014,-3.411 -3.41,1.014 -1.014,-3.41 -3.41,1.013 -10.134,-34.103 3.41,-1.013 -1.014,-3.411 z"
     fill="#603134"
     id="path66" />
  <path
     d="m 87.103099,71.802 2.351,-1.532 1.533,2.351 2.351,-1.532 1.532,2.352 2.352,-1.532 1.532,2.351 2.351001,-1.532 3.065,4.703 2.351,-1.532 -1.532,-2.351 2.352,-1.532 -6.129,-9.407 -2.351001,1.532 -1.532,-2.351 -11.758,7.66 z m -6.235,0.713 -2.352,1.532 1.532,2.351 -2.351,1.532 6.128,9.407 2.352,-1.532 1.532,2.351 11.758,-7.66 -1.533,-2.352 -2.351,1.532 -1.532,-2.351 -2.352,1.532 -1.532,-2.352 -2.352,1.532 -1.532,-2.351 -2.351,1.532 z m 21.164001,-13.789 2.351,-1.532 9.193,14.109 -2.352,1.532 1.533,2.352 -2.352,1.532 1.532,2.351 -23.516001,15.322 -1.532,-2.352 -2.351,1.532 -1.532,-2.352 -2.352,1.533 -9.1928,-14.11 2.3516,-1.532 -1.5321,-2.352 2.3513,-1.532 -1.5318,-2.351 23.5158,-15.321 1.532,2.351 2.352001,-1.532 z m 3.456,41.295 2.352,-1.532 1.532,2.351 2.352,-1.532 1.532,2.352 2.351,-1.532 1.532,2.351 2.352,-1.532 3.064,4.703 2.352,-1.532 -1.532,-2.351 2.351,-1.532 -6.128,-9.407 -2.352,1.532 -1.532,-2.351 -11.758,7.66 z m -6.235001,0.713 -2.352,1.532 1.532,2.351 -2.351,1.532 6.128001,9.407 2.352,-1.532 1.532,2.351 11.758,-7.66 -1.532,-2.352 -2.352,1.532 -1.532,-2.351 -2.351,1.532 -1.533,-2.352 -2.351,1.532 -1.532,-2.351 -2.352,1.532 z m 21.164001,-13.789 2.352,-1.533 9.192,14.11 -2.351,1.532 1.532,2.352 -2.352,1.532 1.533,2.351 -23.516,15.321 -1.532,-2.351 -2.352,1.532 -1.532,-2.352 -2.352001,1.533 -9.192,-14.11 2.351,-1.532 -1.532,-2.352 2.352,-1.532 -1.532,-2.351 23.515001,-15.321 1.532,2.351 2.352,-1.532 z"
     fill="#603134"
     id="path67" />
  <path
     d="m 90.436099,28.237 4.554,-0.152 0.152,4.554 -13.663,0.456 -0.152,-4.554 4.554,-0.152 -0.607,-18.217 -4.555,0.152 -0.152,-4.555 2.278,-0.075 -0.076,-2.278 2.277,-0.076 -0.076,-2.277 4.554,-0.152 z m 27.325001,-0.911 4.554,-0.152 0.152,4.554 -13.663,0.456 -0.151,-4.555 4.554,-0.151 -0.608,-18.218 -4.554,0.152 -0.152,-4.554 2.277,-0.076 -0.076,-2.277 2.277,-0.076 -0.076,-2.277 4.555,-0.152 z"
     fill="#603134"
     id="path68" />
  <defs
     id="defs75">
    <linearGradient
       id="paint0_linear_53_52"
       x1="904.737"
       y1="280.51199"
       x2="550.46002"
       y2="411.44"
       gradientUnits="userSpaceOnUse"
       gradientTransform="translate(-25.837901,-125.437)">
      <stop
         stop-color="#F4EBDD"
         id="stop68" />
      <stop
         offset="1"
         stop-color="#E6DFD4"
         id="stop69" />
    </linearGradient>
    <linearGradient
       id="paint1_linear_53_52"
       x1="407.979"
       y1="584.086"
       x2="667.90997"
       y2="449.30701"
       gradientUnits="userSpaceOnUse"
       gradientTransform="translate(-25.837901,-125.437)">
      <stop
         stop-color="#FFC34B"
         id="stop70" />
      <stop
         offset="1"
         stop-color="#FEAB05"
         id="stop71" />
    </linearGradient>
    <linearGradient
       id="paint2_linear_53_52"
       x1="829.49298"
       y1="269.78299"
       x2="431.36301"
       y2="387.09698"
       gradientUnits="userSpaceOnUse"
       gradientTransform="translate(-25.837901,-125.437)">
      <stop
         stop-color="#F6ECDE"
         id="stop72" />
      <stop
         offset="1"
         stop-color="#E7E0D5"
         id="stop73" />
    </linearGradient>
    <linearGradient
       id="paint3_linear_53_52"
       x1="605.65503"
       y1="474.98001"
       x2="760.97198"
       y2="364.58899"
       gradientUnits="userSpaceOnUse"
       gradientTransform="translate(-25.837901,-125.437)">
      <stop
         stop-color="#E6DFD4"
         id="stop74" />
      <stop
         offset="1"
         stop-color="#F8EEDF"
         id="stop75" />
    </linearGradient>
  </defs>
</svg>
