<svg width="640" height="702" viewBox="0 0 640 702" fill="none" xmlns="http://www.w3.org/2000/svg">
<path d="M480.873 148.151C549.091 165.304 600.679 193.992 596.093 212.232C595.935 212.859 595.7 213.457 595.417 214.052L570.466 280.77L551.94 308.933L496.65 461.416C492.6 477.522 449.506 480.576 400.392 468.226C351.283 455.878 314.753 432.803 318.803 416.697L342.211 256.198L339.208 222.621L348.781 152.037C348.811 151.378 348.887 150.74 349.045 150.114C353.631 131.873 412.654 130.997 480.873 148.151Z" fill="#F2EFED"/>
<path d="M404.775 459.738C419.872 463.534 434.234 465.905 446.568 466.869C458.241 464.727 465.884 460.42 467.478 454.081L471.973 441.677C468.368 439.418 464.16 437.139 459.437 434.903C454.388 435.053 448.697 434.882 442.309 434.253C440.6 438.326 438.811 442.378 436.921 446.398C437.478 442.199 438.128 438.027 438.852 433.874C431.074 432.944 422.323 431.349 412.51 428.882C400.846 425.949 391.09 422.635 382.936 419.188C381.558 423.385 380.101 427.564 378.537 431.718C378.79 427.036 379.155 422.377 379.612 417.738C375.415 415.842 371.676 413.916 368.352 412.004C348.936 411.03 335.499 413.877 333.84 420.479C331.041 431.607 362.796 449.183 404.775 459.738Z" fill="#E0D5CC"/>
<path d="M360.022 157.18C364.47 154.877 369.409 154.296 374.258 153.916C379.112 153.518 384.016 153.586 388.894 153.776C398.662 154.194 408.413 155.338 418.11 156.74C437.05 159.607 455.86 163.46 474.457 168.136C474.896 168.247 475.328 168.355 475.766 168.465C476.115 168.553 476.472 168.643 476.821 168.731C495.511 173.43 513.979 178.951 532.107 185.423C541.311 188.775 550.436 192.373 559.253 196.62C563.638 198.76 567.993 201.011 572.08 203.666C576.172 206.294 580.253 209.134 583.083 213.268C581.176 208.581 577.521 204.779 573.767 201.45C570.018 198.022 565.843 195.187 561.664 192.333C553.153 186.93 544.22 182.232 535.043 178.17C525.914 173.988 516.489 170.553 507.033 167.227C497.528 164.043 487.887 161.323 478.21 158.747C468.462 156.456 458.687 154.268 448.806 152.594C438.905 151.057 428.975 149.629 418.947 148.986C408.935 148.231 398.851 148.149 388.8 148.883C383.769 149.413 378.748 149.937 373.818 151.182C368.939 152.343 363.923 153.961 360.022 157.18Z" fill="#FAF8F7"/>
<path d="M358.914 207.604L355.253 242.141L355.163 243.307C355.467 254.027 394.168 285.841 448.478 285.841C500.936 299.031 545.778 301.828 550.934 292.42L551.32 291.489L577.521 230.258L358.914 207.604Z" fill="url(#paint0_linear_43_7003)"/>
<path d="M355.162 243.307L342.357 386.74C342.357 386.74 350.227 413.221 412.51 428.881C474.838 444.554 494.298 424.945 494.298 424.945L565.452 258.464C560.297 267.872 502.367 279.108 447.449 275.244C384.006 270.779 355.465 254.028 355.162 243.307Z" fill="url(#paint1_linear_43_7003)"/>
<path d="M378.538 431.717C380.101 427.564 381.559 423.385 382.936 419.188C381.798 418.707 380.69 418.225 379.613 417.738C379.156 422.377 378.791 427.035 378.538 431.717Z" fill="#D6CBC3" fill-opacity="0.5"/>
<path d="M382.935 419.188C385.783 410.517 388.287 401.775 390.634 392.997C394.176 379.99 397.145 366.866 400.006 353.711C402.682 340.53 405.235 327.314 407.218 313.975C409.191 301.114 410.833 288.18 411.595 275.06C411.463 275.015 411.331 274.969 411.202 274.926C406.617 287.259 402.921 299.785 399.553 312.37C396.017 325.375 393.05 338.504 390.197 351.66C387.537 364.853 384.984 378.069 383.004 391.402C381.668 400.138 380.481 408.904 379.611 417.738C380.689 418.225 381.797 418.707 382.935 419.188Z" fill="#F2EFED" fill-opacity="0.5"/>
<path d="M436.921 446.397C438.811 442.378 440.6 438.325 442.309 434.252C441.18 434.141 440.027 434.015 438.853 433.874C438.128 438.027 437.478 442.199 436.921 446.397Z" fill="#D6CBC3" fill-opacity="0.5"/>
<path d="M481.755 293.036C481.923 293.066 482.088 293.095 482.257 293.126C482.333 292.575 482.41 292.02 482.484 291.468C482.238 291.989 481.996 292.515 481.755 293.036Z" fill="#8C8075"/>
<path d="M438.854 433.874C440.028 434.014 441.181 434.14 442.31 434.252C445.841 425.841 449.031 417.323 452.063 408.766C456.626 396.082 460.625 383.229 464.506 370.344C468.206 357.4 471.806 344.432 474.829 331.297C477.791 318.722 480.448 306.046 482.258 293.126C482.089 293.095 481.923 293.066 481.756 293.036C476.29 304.862 471.668 316.935 467.351 329.094C462.787 341.784 458.788 354.637 454.893 367.512C451.176 380.451 447.588 393.419 444.555 406.554C442.427 415.594 440.459 424.682 438.854 433.874Z" fill="#F2EFED" fill-opacity="0.5"/>
<path d="M400.392 468.226C449.498 480.573 492.604 477.506 496.65 461.416L592.184 222.516C587.735 225.636 582.252 227.26 576.902 228.391C576.897 228.395 576.892 228.394 576.887 228.396C577.423 229.085 577.634 229.705 577.499 230.245C577.498 230.248 577.498 230.248 577.497 230.253L577.52 230.258L551.319 291.489L550.933 292.42L494.299 424.944C494.299 424.944 488.996 430.291 475.054 433.167L471.973 441.676C481.778 447.833 487.066 453.874 485.853 458.701C484.061 465.828 468.53 468.582 446.568 466.868C432.511 469.444 412.615 468.879 390.382 464.944C395.08 466.5 399.959 467.965 404.979 469.319C403.426 468.929 401.953 468.618 400.392 468.226Z" fill="#E8E0DA"/>
<path d="M446.567 466.868C468.529 468.582 484.06 465.828 485.852 458.701C487.066 453.874 481.777 447.834 471.972 441.676L467.478 454.081C465.884 460.42 458.241 464.727 446.567 466.868Z" fill="#E0D5CC"/>
<path d="M475.055 433.167C488.996 430.291 494.299 424.945 494.299 424.945L563.528 262.685C554.394 264.588 548.305 266.871 531.179 270.677L522.735 301.566L475.055 433.167Z" fill="#FFAF0F"/>
<path d="M400.391 468.226C395.388 466.968 390.606 465.606 385.916 464.116C387.414 464.409 388.904 464.684 390.382 464.944C351.27 452.011 324.392 432.909 327.894 418.983L351.349 258.472L348.308 224.938L355.617 171C352.472 168.092 349.508 164.862 347.576 161.01L339.216 222.652L342.209 256.174L342.211 256.198L318.802 416.697C314.788 432.665 350.715 455.52 399.24 467.937C399.623 468.033 400.005 468.129 400.391 468.226Z" fill="#EEE8E5"/>
<path d="M400.391 468.226C401.952 468.618 403.425 468.929 404.978 469.319C399.958 467.965 395.079 466.5 390.381 464.943C388.903 464.684 387.414 464.409 385.916 464.116C390.606 465.606 395.387 466.968 400.391 468.226Z" fill="#E5D9D4"/>
<path d="M361.175 175.732C361.485 174.849 362.74 174.235 364.838 173.869C362.82 172.727 360.83 171.537 358.895 170.273C357.931 169.615 356.944 169.005 355.985 168.301L355.617 171C356.114 171.484 356.676 171.928 357.224 172.429C358.497 173.582 359.822 174.677 361.175 175.732ZM576.887 228.396C576.892 228.394 576.897 228.395 576.902 228.392C582.252 227.26 587.735 225.636 592.184 222.516L592.27 222.465L592.418 222.072L592.222 222.166C587.265 224.382 581.833 225.038 576.504 225.452C576.229 225.471 575.958 225.487 575.686 225.502C575.865 225.73 575.945 226.026 575.868 226.33C575.804 226.585 575.619 226.793 575.381 226.921C576.025 227.442 576.527 227.935 576.887 228.396ZM573.847 225.797C573.867 225.726 573.893 225.657 573.926 225.594C573.806 225.6 573.686 225.605 573.567 225.611C573.663 225.675 573.755 225.734 573.847 225.797ZM347.577 161.01L347.641 160.564L347.625 160.548L347.565 160.992C347.572 160.997 347.574 161.005 347.577 161.01Z" fill="#F0F0F0"/>
<path d="M355.617 170.999L355.985 168.301C352.861 166.116 349.911 163.67 347.641 160.564L347.576 161.01C349.508 164.861 352.472 168.091 355.617 170.999Z" fill="#F7F1EE"/>
<path fill-rule="evenodd" clip-rule="evenodd" d="M555.625 221.394C555.967 221.108 555.372 222.132 556.722 219.981L556.803 220.059L556.794 220.228C556.646 220.82 556.207 221.225 555.625 221.394Z" fill="#F7F1E8"/>
<path fill-rule="evenodd" clip-rule="evenodd" d="M548.382 219.229L548.382 218.829L548.527 218.922L548.513 218.976L548.382 219.229Z" fill="#F7F1E8"/>
<path fill-rule="evenodd" clip-rule="evenodd" d="M530.797 338.458C529.992 342.57 527.331 349.675 524.809 358.793C522.287 367.911 519.903 379.043 518.719 388.733C517.535 398.422 517.55 406.669 516.303 412.417C515.055 418.165 512.543 421.413 509.571 422.987C506.598 424.56 503.164 424.459 499.834 423.632C496.503 422.807 493.275 421.255 492.311 418.688C491.347 416.122 492.646 412.54 496.302 405.503C499.957 398.466 505.968 387.973 510.022 378.729C514.077 369.485 516.174 361.49 516.848 354.371C517.521 347.252 516.77 341.008 518.642 337.443C520.514 333.879 525.008 332.992 527.78 333.109C530.552 333.226 531.602 334.346 530.797 338.458Z" fill="#CCCCCC" fill-opacity="0.5"/>
<path d="M318.645 410.451L342.053 249.952L342.051 249.928L318.645 410.451Z" fill="#FEFEFE"/>
<path d="M358.692 367.562L334.324 200.481L334.326 200.456L358.692 367.562Z" fill="#FEFEFE"/>
<path d="M196.913 122.697C125.898 140.554 72.1933 170.419 76.9681 189.407C77.1321 190.059 77.3769 190.683 77.6715 191.302L103.646 260.755L117.326 292.773L180.489 448.809C184.705 465.576 229.566 468.755 280.695 455.899C331.818 443.044 369.845 419.023 365.63 402.257L341.261 235.175L344.388 200.222L334.422 126.743C334.391 126.057 334.311 125.393 334.147 124.741C329.373 105.752 267.93 104.841 196.913 122.697Z" fill="#E8E5E3"/>
<path d="M276.132 447.062C260.416 451.014 245.465 453.482 232.626 454.485C220.474 452.255 212.517 447.772 210.858 441.173L206.179 428.26C209.931 425.909 214.311 423.537 219.229 421.208C224.485 421.364 230.409 421.187 237.059 420.532C238.838 424.771 240.7 428.99 242.668 433.175C242.088 428.804 241.411 424.461 240.657 420.137C248.755 419.169 257.865 417.509 268.08 414.94C280.223 411.887 290.378 408.437 298.867 404.849C300.301 409.218 301.818 413.568 303.446 417.892C303.183 413.018 302.803 408.169 302.327 403.34C306.696 401.366 310.588 399.361 314.049 397.37C334.261 396.356 348.249 399.32 349.977 406.192C352.89 417.777 319.832 436.074 276.132 447.062Z" fill="#E0D5CC"/>
<path d="M322.721 132.097C318.091 129.699 312.949 129.095 307.901 128.699C302.848 128.284 297.743 128.356 292.665 128.554C282.497 128.989 272.346 130.18 262.251 131.639C242.535 134.624 222.953 138.635 203.593 143.503C203.136 143.618 202.687 143.731 202.231 143.845C201.868 143.936 201.496 144.03 201.133 144.121C181.676 149.014 162.451 154.761 143.579 161.499C133.998 164.988 124.499 168.733 115.32 173.155C110.755 175.382 106.221 177.726 101.967 180.489C97.7074 183.225 93.459 186.182 90.5127 190.485C92.4974 185.606 96.3025 181.648 100.211 178.183C104.114 174.615 108.46 171.662 112.81 168.692C121.671 163.067 130.97 158.177 140.522 153.948C150.026 149.595 159.838 146.019 169.681 142.556C179.576 139.241 189.612 136.41 199.687 133.728C209.835 131.343 220.01 129.066 230.296 127.323C240.604 125.724 250.941 124.236 261.379 123.568C271.802 122.781 282.3 122.695 292.763 123.46C298 124.011 303.227 124.557 308.36 125.852C313.438 127.062 318.661 128.747 322.721 132.097Z" fill="#FAFAFA"/>
<path d="M324.871 180.106L327.543 222.66L327.637 223.874L340.966 373.189C340.966 373.189 332.774 400.756 267.937 417.058C203.053 433.373 182.795 412.96 182.795 412.96L123.838 275.002L123.436 274.031L92.6172 202.554L210.791 208.908L324.871 180.106Z" fill="#290C0D"/>
<path d="M324.871 180.106C324.979 186.861 261.99 235.752 215.169 236.016C179.231 236.219 122.24 223.208 99.1131 211.026C91.9778 207.268 91.5151 197.794 91.4897 196.202C91.4578 194.196 92.7603 183.071 103.772 183.071C127.359 183.071 161.826 196.001 204.156 194.507C276.161 191.966 324.763 173.35 324.871 180.106Z" fill="#361315"/>
<path d="M303.444 417.893C301.817 413.569 300.299 409.218 298.865 404.85C300.05 404.349 301.204 403.847 302.326 403.34C302.801 408.169 303.181 413.019 303.444 417.893Z" fill="#F2ECE1" fill-opacity="0.5"/>
<path d="M298.866 404.849C295.902 395.822 293.295 386.722 290.852 377.584C287.165 364.044 284.074 350.381 281.096 336.688C278.31 322.965 275.652 309.207 273.588 295.321C271.534 281.934 269.825 268.468 269.031 254.81C269.169 254.764 269.307 254.716 269.44 254.671C274.214 267.51 278.061 280.55 281.567 293.651C285.249 307.189 288.337 320.856 291.308 334.552C294.076 348.285 296.734 362.044 298.795 375.923C300.185 385.018 301.422 394.144 302.327 403.34C301.205 403.847 300.051 404.348 298.866 404.849Z" fill="#8D5446" fill-opacity="0.5"/>
<path d="M242.667 433.176C240.7 428.991 238.838 424.772 237.059 420.533C238.234 420.416 239.434 420.285 240.657 420.138C241.411 424.462 242.088 428.805 242.667 433.176Z" fill="#F2ECE1" fill-opacity="0.5"/>
<path d="M240.657 420.138C239.434 420.284 238.234 420.415 237.058 420.532C233.382 411.776 230.061 402.908 226.905 394C222.155 380.796 217.993 367.416 213.951 354.003C210.1 340.528 206.353 327.028 203.206 313.355C200.123 300.264 197.357 287.068 195.473 273.618C195.648 273.586 195.821 273.556 195.995 273.525C201.685 285.835 206.497 298.404 210.99 311.061C215.742 324.271 219.904 337.651 223.959 351.055C227.829 364.525 231.564 378.025 234.721 391.698C236.937 401.109 238.985 410.57 240.657 420.138Z" fill="#51312E" fill-opacity="0.5"/>
<path d="M180.49 448.809L122.919 290.052L122.932 290.073L180.49 448.809Z" fill="#DCD7D4"/>
<path d="M232.625 454.485C209.762 456.269 193.595 453.402 191.729 445.983C190.466 440.958 195.972 434.67 206.178 428.26L210.858 441.173C212.517 447.772 220.473 452.255 232.625 454.485Z" fill="#DBD0C7"/>
<path d="M123.98 272.884L123.578 271.914L95.7246 209.331C103.772 213.99 110.524 216.657 119.419 219.198L129.09 239.923C128.257 239.585 127.288 239.504 126.309 239.75C124.024 240.325 122.599 242.506 123.139 244.653C123.678 246.797 125.976 248.088 128.262 247.513C129.556 247.188 130.561 246.354 131.102 245.308L132.153 248.12C131.059 249.482 130.591 251.262 131.033 253.019C131.682 255.603 134.09 257.323 136.795 257.336L139.146 260.9C137.846 262.308 137.253 264.258 137.732 266.163C138.511 269.26 141.813 271.087 145.113 270.257C145.173 270.242 145.232 270.227 145.289 270.208L150.845 278.629L153.336 282.404L202.971 419.402C188.458 416.408 182.938 410.843 182.938 410.843L123.98 272.884Z" fill="#1C0506"/>
<path d="M280.694 455.898C285.903 454.589 290.881 453.171 295.763 451.62C294.204 451.925 292.653 452.211 291.115 452.482C331.83 439.018 359.81 419.133 356.165 404.636L331.748 237.543L334.913 202.633L327.305 146.483C330.579 143.456 333.665 140.093 335.675 136.084L344.379 200.253L341.263 235.15L341.261 235.175L365.629 402.257C369.809 418.879 332.409 442.672 281.893 455.597C281.495 455.697 281.096 455.798 280.694 455.898Z" fill="#EEE8E5"/>
<path d="M280.696 455.898C279.071 456.307 277.538 456.63 275.921 457.037C281.147 455.627 286.226 454.102 291.117 452.482C292.655 452.211 294.206 451.925 295.765 451.62C290.883 453.171 285.905 454.589 280.696 455.898Z" fill="#E5D9D4"/>
<path d="M335.688 136.065L335.626 135.602L336.366 134.57C336.186 135.092 335.935 135.579 335.688 136.065ZM80.9475 200.059L80.8516 200.001L80.9474 199.886L80.7939 199.649L80.9475 200.059Z" fill="#FEFEFE"/>
<path d="M211.965 191.94C178.921 200.249 148.819 206.191 127.609 208.933C123.102 208.922 119.021 208.933 114.1 208.541C99.537 205.942 98.5088 204.703 92.8811 203.482C92.4575 202.635 90.8186 196.743 91.4893 196.2C99.1134 201.707 110.135 203.452 114.164 203.252C125.35 202.806 136.538 201.495 147.608 199.949C197.733 192.446 265.388 175.55 309.239 153.928C312.068 152.515 314.898 151.044 317.676 149.478C319.86 149.859 321.165 150.498 321.488 151.417C318.331 153.867 315.014 156.108 311.734 158.302C308.83 160.141 305.885 161.899 302.903 163.59C283.319 171.831 250.112 182.348 211.965 191.94Z" fill="#FBFBFB"/>
<path d="M57.8125 154.24C84.0621 157.32 95.3325 164.655 107.163 175.87C79.6318 166.552 24.9854 179.683 22.0277 172.905C19.0702 166.127 31.5623 151.158 57.8125 154.24Z" fill="#603134"/>
<path fill-rule="evenodd" clip-rule="evenodd" d="M111.359 174.655C112.491 170.672 114.296 156.543 106.6 147.986C98.905 139.428 81.7096 136.442 76.2188 139.13C70.728 141.818 76.9421 150.18 84.4087 155.656C91.875 161.132 100.594 163.722 105.182 168.098C109.77 172.475 110.228 178.638 111.359 174.655Z" fill="#603134"/>
<path fill-rule="evenodd" clip-rule="evenodd" d="M105.527 157.008C104.674 154.8 102 150.344 97.3897 147.245C92.7793 144.145 86.2312 142.401 82.8024 142.401C79.3733 142.401 79.0634 144.145 79.7415 145.424C80.4196 146.702 82.0854 147.516 85.3011 148.02C88.5172 148.524 93.2828 148.717 96.1502 149.57C99.0171 150.422 99.9858 151.933 100.548 153.328C101.109 154.723 101.264 156.001 101.845 156.95C102.427 157.9 103.434 158.519 104.422 158.849C105.41 159.178 106.379 159.217 105.527 157.008Z" fill="#814B4E"/>
<path fill-rule="evenodd" clip-rule="evenodd" d="M84.5706 166.39C83.0933 164.814 78.4617 161.633 70.4736 159.42C62.4861 157.207 51.1416 155.963 45.2012 155.963C39.2604 155.963 38.7234 157.207 39.8982 158.12C41.0731 159.033 42.7171 162.803 48.2883 163.163C53.8602 163.523 63.3584 160.471 68.3262 161.08C73.2931 161.688 74.9714 162.767 75.9448 163.763C76.9179 164.758 77.1862 165.671 78.193 166.349C79.2002 167.027 80.9458 167.469 82.6576 167.704C84.3692 167.939 86.047 167.967 84.5706 166.39Z" fill="#814B4E"/>
<path d="M358.725 208.39C358.678 215.003 408.581 220.728 470.181 221.168C531.784 221.608 581.763 216.596 581.81 209.984C581.857 203.37 531.955 197.653 470.352 197.213C408.752 196.773 358.772 201.776 358.725 208.39Z" fill="url(#paint2_linear_43_7003)"/>
<path d="M466.399 214.664C498.145 222.647 527.066 228.355 547.444 230.99C550.707 230.981 553.972 230.897 557.241 230.738C558.276 230.739 559.385 230.655 560.423 230.613C565.951 230.192 571.481 229.568 576.888 228.396C576.528 227.934 576.026 227.442 575.381 226.92C575.155 227.039 574.881 227.081 574.619 227.016C574.04 226.87 573.716 226.318 573.841 225.82C573.843 225.812 573.845 225.805 573.847 225.796C573.756 225.734 573.663 225.674 573.567 225.61C573.522 225.612 573.473 225.615 573.429 225.615C573.423 225.726 573.407 225.838 573.38 225.947C573.151 226.858 572.185 227.409 571.201 227.161C570.463 226.976 569.929 226.387 569.813 225.716C569.513 225.721 569.214 225.721 568.915 225.725C568.495 225.99 567.954 226.089 567.419 225.955C567.217 225.904 567.029 225.825 566.861 225.723C564.7 225.706 562.534 225.64 560.361 225.532C549.614 225.103 538.865 223.844 528.23 222.358C507.412 219.242 486.772 214.985 466.357 209.851C465.816 209.715 465.276 209.579 464.736 209.444C464.245 209.32 463.754 209.197 463.266 209.074C450.513 205.867 437.859 202.286 425.336 198.309C424.537 198.758 423.55 198.908 422.56 198.659C421.394 198.366 420.486 197.58 420.042 196.602C414.258 194.705 408.498 192.726 402.776 190.662C402.537 190.57 402.296 190.481 402.055 190.393C402.057 190.541 402.043 190.693 402.004 190.846C401.773 191.766 400.788 192.307 399.805 192.06C398.822 191.813 398.213 190.871 398.444 189.951C398.518 189.659 398.669 189.406 398.869 189.201C398.333 188.998 397.798 188.796 397.264 188.591C396.24 188.999 395.058 189.1 393.88 188.803C392.193 188.379 390.887 187.242 390.249 185.833C388.42 185.094 386.6 184.338 384.79 183.563C384.364 183.875 383.791 183.998 383.217 183.853C382.421 183.653 381.876 182.998 381.815 182.273C378.829 180.956 375.868 179.585 372.944 178.144C370.226 176.787 367.507 175.374 364.839 173.869C362.74 174.235 361.486 174.849 361.176 175.731C364.209 178.085 367.396 180.238 370.547 182.346C373.337 184.113 376.167 185.802 379.032 187.427C397.847 195.345 429.75 205.449 466.399 214.664Z" fill="#FBFBFB"/>
<path fill-rule="evenodd" clip-rule="evenodd" d="M516.688 371.161C516.756 373.886 514.357 382.748 513.337 390.112C512.317 397.475 512.675 403.341 512.261 407.755C511.849 412.169 510.665 415.132 508.353 417.069C506.042 419.007 502.604 419.92 499.076 419.367C495.548 418.814 491.931 416.794 490.26 413.972C488.589 411.15 488.865 407.526 489.386 405.312C489.907 403.098 490.673 402.295 492.024 400.772C493.376 399.248 495.312 397.003 497.238 397.46C499.164 397.917 501.079 401.074 502.325 401.598C503.571 402.122 504.147 400.012 503.657 398.266C503.167 396.519 501.611 395.137 502.146 393.447C502.68 391.758 505.304 389.761 506.01 387.622C506.717 385.483 505.506 383.201 506.109 381.117C506.712 379.032 509.129 377.145 511.605 374.495C514.082 371.846 516.619 368.435 516.688 371.161Z" fill="#F2ECE1"/>
<path d="M238.046 234.977C237.823 234.57 237.601 234.158 237.375 233.751C237.462 234.19 237.55 234.633 237.642 235.071C237.774 235.04 237.91 235.009 238.046 234.977Z" fill="#361314"/>
<path d="M238.046 234.977C237.823 234.57 237.601 234.158 237.375 233.751C237.462 234.19 237.55 234.633 237.642 235.071C237.774 235.04 237.91 235.009 238.046 234.977Z" fill="#361314"/>
<path d="M601.856 183.957C581.089 170.633 538.788 187.763 538.788 187.763L503.992 201.355L527.371 221.472L574.128 227.452L586.719 224.734C586.719 224.734 571.895 277.484 553.01 308.73C549.411 314.686 549.248 320.285 546.486 326.672C542.8 335.196 538.306 341.591 542.137 350.05C548.647 364.427 571.255 354.158 581.826 342.439C588.343 335.214 593.702 328.227 590.438 319.06C588.677 314.112 583.748 313.618 581.826 308.73C577.641 298.09 587.881 291.915 592.699 281.546C597.463 271.295 606.846 271.627 606.292 255.993C605.542 234.879 631.369 245.249 626.322 224.734C621.885 206.701 617.486 193.986 601.856 183.957Z" fill="url(#paint3_linear_43_7003)"/>
<path d="M606.204 195.919C599.219 190.013 593.489 188.667 584.457 187.22C577.958 186.178 573.809 185.029 567.603 187.22C553.62 192.155 589.495 196.073 600.767 205.705C609.119 212.841 619.253 226.909 619.253 226.909C619.253 226.909 616.233 204.396 606.204 195.919Z" fill="#F7F1E8"/>
<path d="M584.732 327.215C588.967 319.108 577.646 309.074 577.084 299.945C576.679 293.375 588.227 288.814 584.732 283.237C576.86 270.671 558.99 317.973 566.602 319.604C577.343 321.906 566.602 348.963 566.602 348.963C566.602 348.963 578.652 338.854 584.732 327.215Z" fill="#F7F1E8"/>
<circle cx="382.293" cy="213.585" r="13.0485" fill="#F2ECE1"/>
<circle cx="389.904" cy="236.42" r="6.52424" fill="#F2ECE1"/>
<circle cx="408.388" cy="177.702" r="6.52424" fill="#F7F1E8"/>
<circle cx="541.049" cy="187.488" r="6.52424" fill="#F7F1E8"/>
<path d="M592.156 272.304C592.156 275.907 590.866 278.828 587.263 278.828C583.66 278.828 581.282 272.85 581.282 269.247C581.282 265.644 583.66 265.78 587.263 265.78C590.866 265.78 592.156 268.701 592.156 272.304Z" fill="#F7F1E8"/>
<circle cx="626.952" cy="263.604" r="13.0485" fill="#F7F1E8"/>
<path d="M635.651 255.449C633.217 252.651 630.214 251.643 626.952 251.643C624.095 251.643 630.015 254.162 632.389 256.536C633.476 257.623 634.767 259.204 635.651 260.886C636.668 262.821 637.282 270.019 637.826 269.041C638.369 268.062 638.369 261.429 638.369 261.429C638.369 261.429 637.723 257.83 635.651 255.449Z" fill="#F6F6F6"/>
<circle cx="607.923" cy="279.371" r="5.98056" fill="#F2ECE1"/>
<circle cx="619.883" cy="260.886" r="3.80581" fill="#F6F6F6"/>
<circle cx="622.602" cy="269.041" r="2.17475" fill="#F6F6F6"/>
<circle cx="606.835" cy="276.109" r="1.63106" fill="#F6F6F6"/>
<path d="M486.583 153.473L485.321 148.988L489.805 147.726L488.542 143.242L493.026 141.979L491.764 137.495L496.248 136.232L494.985 131.748L503.954 129.222L502.691 124.738L498.207 126.001L496.944 121.517L479.007 126.567L480.27 131.051L475.786 132.314L482.099 154.735L486.583 153.473ZM484.624 163.704L485.887 168.188L490.371 166.926L491.634 171.41L509.571 166.359L508.308 161.875L512.793 160.612L506.479 138.191L501.995 139.454L503.258 143.938L498.773 145.201L500.036 149.685L495.552 150.947L496.814 155.432L492.33 156.694L493.593 161.179L484.624 163.704ZM473.26 123.346L471.998 118.861L498.903 111.285L500.166 115.77L504.65 114.507L505.913 118.991L510.397 117.729L523.024 162.571L518.539 163.834L519.802 168.318L515.318 169.581L516.58 174.065L489.675 181.641L488.412 177.157L483.928 178.419L482.665 173.935L478.181 175.198L465.555 130.355L470.039 129.092L468.776 124.608L473.26 123.346ZM558.898 152.47L567.866 149.945L570.392 158.913L543.486 166.489L540.961 157.521L549.929 154.995L539.828 119.121L530.86 121.647L528.334 112.678L532.819 111.415L531.556 106.931L536.04 105.669L534.778 101.184L543.746 98.659L558.898 152.47Z" fill="#EDE5D9"/>
<path d="M473.85 63.8184L474.708 60.9294L477.597 61.788L478.456 58.899L481.344 59.7575L482.203 56.8686L485.092 57.7271L485.95 54.8382L491.728 56.5552L492.587 53.6663L489.698 52.8078L490.556 49.9189L479.001 46.4849L478.142 49.3738L475.253 48.5153L470.961 62.9599L473.85 63.8184ZM469.244 68.7377L468.385 71.6266L471.274 72.4851L470.416 75.374L481.971 78.808L482.83 75.9191L485.719 76.7776L490.011 62.3331L487.122 61.4746L486.264 64.3635L483.375 63.505L482.516 66.3939L479.627 65.5354L478.769 68.4243L475.88 67.5658L475.022 70.4547L469.244 68.7377ZM476.97 42.7375L477.829 39.8486L495.162 44.9996L494.304 47.8885L497.193 48.747L496.334 51.6359L499.223 52.4944L490.638 81.3835L487.749 80.525L486.891 83.4139L484.002 82.5554L483.143 85.4443L465.81 80.2933L466.668 77.4044L463.779 76.5459L464.638 73.657L461.749 72.7985L470.334 43.9094L473.223 44.7679L474.081 41.879L476.97 42.7375ZM508.517 74.1204L509.375 71.2315L512.264 72.09L513.122 69.2011L516.011 70.0596L516.87 67.1707L519.759 68.0292L520.617 65.1403L526.395 66.8573L527.254 63.9684L524.365 63.1099L525.223 60.221L513.668 56.787L512.809 59.6759L509.92 58.8174L505.628 73.2619L508.517 74.1204ZM503.911 79.0397L503.052 81.9286L505.941 82.7871L505.082 85.676L516.638 89.11L517.497 86.2211L520.386 87.0796L524.678 72.6351L521.789 71.7766L520.931 74.6655L518.042 73.807L517.183 76.6959L514.294 75.8374L513.436 78.7263L510.547 77.8678L509.688 80.7567L503.911 79.0397ZM511.637 53.0395L512.496 50.1506L529.829 55.3017L528.971 58.1906L531.859 59.0491L531.001 61.938L533.89 62.7965L525.305 91.6856L522.416 90.827L521.557 93.716L518.669 92.8575L517.81 95.7464L500.477 90.5953L501.335 87.7064L498.446 86.8479L499.305 83.959L496.416 83.1005L505.001 54.2114L507.89 55.0699L508.748 52.181L511.637 53.0395Z" fill="#EDE5D9"/>
<path d="M591.81 116.109L589.975 115.233L590.851 113.398L589.015 112.522L589.892 110.687L588.056 109.81L588.932 107.975L587.097 107.099L588.849 103.428L587.014 102.552L586.138 104.388L584.303 103.511L580.798 110.853L582.633 111.729L581.757 113.564L590.934 117.945L591.81 116.109ZM594.604 119.697L596.44 120.573L597.316 118.738L599.151 119.614L602.655 112.273L600.82 111.397L601.696 109.561L592.52 105.181L591.644 107.016L593.479 107.892L592.603 109.727L594.438 110.604L593.562 112.439L595.397 113.315L594.521 115.15L596.357 116.026L594.604 119.697ZM578.087 111.812L576.251 110.936L581.508 99.9239L583.344 100.8L584.22 98.9648L586.055 99.8409L586.931 98.0056L605.284 106.767L604.408 108.602L606.243 109.478L605.367 111.314L607.202 112.19L601.945 123.201L600.11 122.325L599.234 124.161L597.399 123.284L596.523 125.12L578.17 116.358L579.046 114.523L577.211 113.647L578.087 111.812ZM602.323 94.0861L600.488 93.2099L601.364 91.3747L599.529 90.4985L600.405 88.6632L598.57 87.7871L599.446 85.9518L597.611 85.0757L599.363 81.4051L597.528 80.529L596.652 82.3643L594.816 81.4882L591.312 88.8293L593.147 89.7054L592.271 91.5407L601.447 95.9213L602.323 94.0861ZM605.118 97.6736L606.953 98.5498L607.829 96.7145L609.665 97.5906L613.169 90.2495L611.334 89.3734L612.21 87.5381L603.034 83.1574L602.157 84.9927L603.993 85.8688L603.117 87.7041L604.952 88.5802L604.076 90.4155L605.911 91.2917L605.035 93.1269L606.87 94.0031L605.118 97.6736ZM588.6 89.7884L586.765 88.9123L592.022 77.9006L593.857 78.7767L594.733 76.9415L596.569 77.8176L597.445 75.9823L615.798 84.7437L614.921 86.579L616.757 87.4551L615.881 89.2904L617.716 90.1665L612.459 101.178L610.624 100.302L609.748 102.137L607.912 101.261L607.036 103.096L588.683 94.3351L589.56 92.4998L587.724 91.6237L588.6 89.7884Z" fill="#EDE5D9"/>
<path d="M552.632 54.4562L556.378 54.5812L556.253 58.3279L545.013 57.9531L545.138 54.2063L548.885 54.3312L549.385 39.3441L545.638 39.2191L545.763 35.4723L547.636 35.5348L547.699 33.6614L549.572 33.7239L549.635 31.8505L553.381 31.9754L552.632 54.4562ZM575.112 55.206L578.859 55.3309L578.734 59.0777L567.494 58.7028L567.619 54.9561L571.366 55.081L571.865 40.0939L568.119 39.9689L568.244 36.2221L570.117 36.2846L570.179 34.4112L572.053 34.4737L572.115 32.6003L575.862 32.7252L575.112 55.206Z" fill="#EDE5D9"/>
<path d="M154.778 127.518L156.133 123.061L160.59 124.417L161.946 119.959L166.403 121.315L167.759 116.858L172.216 118.213L173.571 113.756L182.485 116.467L183.841 112.01L179.384 110.655L180.739 106.197L162.911 100.775L161.555 105.233L157.098 103.877L150.321 126.163L154.778 127.518ZM147.61 135.077L146.254 139.534L150.711 140.89L149.356 145.347L167.184 150.769L168.54 146.312L172.997 147.667L179.774 125.382L175.317 124.026L173.962 128.483L169.505 127.128L168.149 131.585L163.692 130.229L162.336 134.686L157.879 133.331L156.524 137.788L147.61 135.077ZM159.809 94.9627L161.165 90.5056L187.908 98.6387L186.552 103.096L191.009 104.451L189.654 108.908L194.111 110.264L180.556 154.835L176.098 153.48L174.743 157.937L170.286 156.581L168.93 161.039L142.187 152.906L143.543 148.448L139.086 147.093L140.441 142.636L135.984 141.28L149.539 96.7088L153.997 98.0643L155.352 93.6072L159.809 94.9627ZM216.213 165.68L225.127 168.391L222.416 177.305L195.673 169.172L198.384 160.257L207.298 162.968L218.143 127.311L209.228 124.6L211.939 115.686L216.396 117.042L217.752 112.584L222.209 113.94L223.565 109.483L232.479 112.194L216.213 165.68Z" fill="#603134"/>
<path d="M156.078 52.6738L155.22 49.7849L158.109 48.9263L157.25 46.0374L160.139 45.1789L159.28 42.29L162.169 41.4315L161.311 38.5425L167.089 36.8255L166.23 33.9366L163.341 34.7951L162.483 31.9062L150.927 35.3402L151.786 38.2291L148.897 39.0876L153.189 53.5323L156.078 52.6738ZM154.906 59.3102L155.765 62.1991L158.654 61.3406L159.512 64.2295L171.068 60.7955L170.209 57.9065L173.098 57.048L168.806 42.6034L165.917 43.4619L166.775 46.3508L163.886 47.2093L164.745 50.0983L161.856 50.9568L162.714 53.8457L159.826 54.7042L160.684 57.5931L154.906 59.3102ZM147.18 33.3098L146.321 30.4209L163.655 25.2698L164.513 28.1587L167.402 27.3002L168.261 30.1891L171.15 29.3306L179.735 58.2199L176.846 59.0784L177.704 61.9674L174.815 62.8259L175.674 65.7148L158.34 70.8659L157.482 67.9769L154.593 68.8355L153.734 65.9465L150.845 66.805L142.26 37.9157L145.149 37.0572L144.291 34.1683L147.18 33.3098ZM190.745 42.3717L189.887 39.4827L192.776 38.6242L191.917 35.7353L194.806 34.8768L193.948 31.9879L196.837 31.1293L195.978 28.2404L201.756 26.5234L200.897 23.6345L198.008 24.493L197.15 21.604L185.594 25.0381L186.453 27.927L183.564 28.7855L187.856 43.2302L190.745 42.3717ZM189.573 49.008L190.432 51.897L193.321 51.0385L194.179 53.9274L205.735 50.4933L204.877 47.6044L207.765 46.7459L203.473 32.3013L200.584 33.1598L201.442 36.0487L198.554 36.9072L199.412 39.7961L196.523 40.6546L197.382 43.5436L194.493 44.4021L195.351 47.291L189.573 49.008ZM181.847 23.0077L180.988 20.1187L198.322 14.9677L199.18 17.8566L202.069 16.9981L202.928 19.887L205.817 19.0285L214.402 47.9178L211.513 48.7763L212.371 51.6653L209.482 52.5238L210.341 55.4127L193.007 60.5638L192.149 57.6748L189.26 58.5333L188.401 55.6444L185.513 56.5029L176.927 27.6136L179.816 26.7551L178.958 23.8662L181.847 23.0077Z" fill="#603134"/>
<path d="M95.3016 72.3555L97.2936 71.0576L98.5915 73.0497L100.584 71.7518L101.881 73.7438L103.874 72.446L105.171 74.438L107.163 73.1401L109.759 77.1243L111.751 75.8264L110.453 73.8343L112.446 72.5364L107.254 64.5681L105.262 65.866L103.964 63.874L94.0037 70.3634L95.3016 72.3555ZM90.0195 72.9592L88.0275 74.2571L89.3253 76.2491L87.3333 77.547L92.5248 85.5153L94.5169 84.2174L95.8148 86.2095L105.775 79.72L104.477 77.728L102.485 79.0259L101.187 77.0338L99.1952 78.3317L97.8973 76.3396L95.9053 77.6375L94.6074 75.6454L92.6153 76.9433L90.0195 72.9592ZM107.948 61.2782L109.94 59.9803L117.728 71.9327L115.735 73.2306L117.033 75.2227L115.041 76.5206L116.339 78.5126L96.4185 91.4915L95.1206 89.4994L93.1285 90.7973L91.8306 88.8053L89.8386 90.1032L82.0512 78.1507L84.0433 76.8528L82.7454 74.8608L84.7375 73.5629L83.4396 71.5708L103.36 58.5919L104.658 60.584L106.65 59.2861L107.948 61.2782ZM110.876 96.2603L112.868 94.9624L114.166 96.9545L116.158 95.6566L117.456 97.6487L119.448 96.3508L120.746 98.3429L122.738 97.045L125.334 101.029L127.326 99.7312L126.028 97.7392L128.02 96.4413L122.829 88.473L120.837 89.7709L119.539 87.7788L109.578 94.2682L110.876 96.2603ZM105.594 96.864L103.602 98.1619L104.9 100.154L102.908 101.452L108.099 109.42L110.092 108.122L111.389 110.114L121.35 103.625L120.052 101.633L118.06 102.931L116.762 100.939L114.77 102.237L113.472 100.244L111.48 101.542L110.182 99.5503L108.19 100.848L105.594 96.864ZM123.523 85.183L125.515 83.8851L133.302 95.8376L131.31 97.1355L132.608 99.1275L130.616 100.425L131.914 102.417L111.993 115.396L110.695 113.404L108.703 114.702L107.405 112.71L105.413 114.008L97.6259 102.056L99.618 100.758L98.3201 98.7656L100.312 97.4677L99.0143 95.4757L118.935 82.4968L120.233 84.4888L122.225 83.191L123.523 85.183Z" fill="#603134"/>
<path d="M98.2016 35.1217L102.06 34.993L102.188 38.851L90.6142 39.2371L90.4856 35.379L94.3436 35.2504L93.8289 19.8183L89.9709 19.947L89.8422 16.089L91.7712 16.0246L91.7069 14.0956L93.6359 14.0313L93.5715 12.1023L97.4295 11.9736L98.2016 35.1217ZM121.35 34.3496L125.208 34.221L125.336 38.079L113.762 38.465L113.634 34.607L117.492 34.4783L116.977 19.0463L113.119 19.1749L112.99 15.3169L114.919 15.2526L114.855 13.3236L116.784 13.2593L116.72 11.3302L120.578 11.2016L121.35 34.3496Z" fill="#603134"/>
<path d="M99.5108 673.947C93.7018 673.947 89.0475 671.917 85.5481 667.858C82.0487 663.799 80.299 658.305 80.299 651.376V636.678C80.299 629.819 82.0487 624.36 85.5481 620.301C89.0475 616.172 93.7018 614.107 99.5108 614.107C104.27 614.107 108.014 615.507 110.744 618.306C113.474 621.036 114.838 624.885 114.838 629.854L111.164 626.18H114.838L114.313 612.007V596.26H130.061V672.897H114.838V661.874H111.164L114.838 658.2C114.838 663.169 113.474 667.053 110.744 669.853C108.014 672.582 104.27 673.947 99.5108 673.947ZM105.18 660.299C108.049 660.299 110.289 659.494 111.899 657.885C113.509 656.205 114.313 653.86 114.313 650.851V637.203C114.313 634.194 113.509 631.884 111.899 630.274C110.289 628.594 108.049 627.755 105.18 627.755C102.24 627.755 99.9657 628.594 98.356 630.274C96.8163 631.884 96.0464 634.194 96.0464 637.203V650.851C96.0464 653.86 96.8163 656.205 98.356 657.885C99.9657 659.494 102.24 660.299 105.18 660.299ZM168.444 673.947C163.334 673.947 158.89 673.002 155.111 671.113C151.331 669.153 148.392 666.458 146.292 663.029C144.262 659.529 143.248 655.47 143.248 650.851V637.203C143.248 632.584 144.262 628.559 146.292 625.13C148.392 621.631 151.331 618.936 155.111 617.046C158.89 615.087 163.334 614.107 168.444 614.107C173.623 614.107 178.067 615.087 181.776 617.046C185.556 618.936 188.46 621.631 190.49 625.13C192.59 628.559 193.639 632.584 193.639 637.203V650.851C193.639 655.47 192.59 659.529 190.49 663.029C188.46 666.458 185.556 669.153 181.776 671.113C178.067 673.002 173.623 673.947 168.444 673.947ZM168.444 660.299C171.523 660.299 173.868 659.494 175.477 657.885C177.087 656.205 177.892 653.86 177.892 650.851V637.203C177.892 634.124 177.087 631.779 175.477 630.169C173.868 628.559 171.523 627.755 168.444 627.755C165.434 627.755 163.089 628.559 161.41 630.169C159.8 631.779 158.995 634.124 158.995 637.203V650.851C158.995 653.86 159.8 656.205 161.41 657.885C163.089 659.494 165.434 660.299 168.444 660.299ZM228.978 673.947C224.218 673.947 220.054 673.212 216.485 671.742C212.915 670.203 210.116 668.103 208.086 665.443C206.126 662.784 205.146 659.669 205.146 656.1H220.894C220.894 657.78 221.629 659.144 223.099 660.194C224.638 661.174 226.598 661.664 228.978 661.664H233.597C236.466 661.664 238.636 661.139 240.106 660.089C241.646 659.039 242.415 657.57 242.415 655.68C242.415 653.93 241.75 652.601 240.421 651.691C239.091 650.711 237.026 650.046 234.227 649.696L227.508 648.856C220.299 647.946 215.05 646.197 211.76 643.607C208.471 641.017 206.826 637.063 206.826 631.744C206.826 626.145 208.751 621.806 212.6 618.726C216.45 615.647 222.084 614.107 229.502 614.107H233.492C240.561 614.107 246.195 615.647 250.394 618.726C254.593 621.806 256.693 625.935 256.693 631.114H240.946C240.946 629.714 240.246 628.594 238.846 627.755C237.516 626.845 235.731 626.39 233.492 626.39H229.502C226.913 626.39 225.023 626.845 223.833 627.755C222.644 628.594 222.049 629.889 222.049 631.639C222.049 633.249 222.574 634.474 223.623 635.313C224.743 636.153 226.493 636.748 228.873 637.098L236.116 638.043C243.395 638.953 248.784 640.772 252.284 643.502C255.853 646.232 257.638 650.291 257.638 655.68C257.638 661.559 255.608 666.073 251.549 669.223C247.49 672.372 241.506 673.947 233.597 673.947H228.978Z" fill="#F4F4F4"/>
<path d="M137.929 566.897V490.26H162.6C170.369 490.26 176.563 492.044 181.182 495.614C185.801 499.113 188.111 503.873 188.111 509.892C188.111 513.251 187.306 516.191 185.696 518.71C184.156 521.23 182.057 523.189 179.397 524.589C176.807 525.989 173.973 526.689 170.893 526.689V527.004C174.323 526.934 177.437 527.564 180.237 528.893C183.106 530.223 185.416 532.218 187.166 534.877C188.916 537.537 189.79 540.826 189.79 544.746C189.79 549.225 188.706 553.144 186.536 556.504C184.436 559.793 181.427 562.348 177.507 564.168C173.588 565.987 168.934 566.897 163.545 566.897H137.929ZM153.151 554.194H162.915C166.344 554.194 169.039 553.284 170.998 551.465C172.958 549.645 173.938 547.125 173.938 543.906C173.938 540.687 172.958 538.167 170.998 536.347C169.039 534.458 166.344 533.513 162.915 533.513H153.151V554.194ZM153.151 521.125H162.39C165.469 521.125 167.884 520.32 169.634 518.71C171.383 517.03 172.258 514.791 172.258 511.991C172.258 509.122 171.383 506.917 169.634 505.377C167.884 503.768 165.469 502.963 162.39 502.963H153.151V521.125ZM225.444 567.947C217.675 567.947 211.586 565.847 207.177 561.648C202.837 557.449 200.668 551.71 200.668 544.431V509.157H216.415V544.326C216.415 547.545 217.185 550.03 218.725 551.78C220.264 553.459 222.504 554.299 225.444 554.299C228.313 554.299 230.518 553.459 232.057 551.78C233.667 550.03 234.472 547.545 234.472 544.326V509.157H250.219V544.431C250.219 551.78 248.015 557.554 243.606 561.753C239.196 565.882 233.142 567.947 225.444 567.947ZM294.691 566.897C288.812 566.897 284.193 565.217 280.833 561.858C277.474 558.499 275.794 553.879 275.794 548V523.329H260.572V509.157H275.794V492.884H291.542V509.157H313.063V523.329H291.542V548C291.542 551.15 293.116 552.725 296.266 552.725H312.013V566.897H294.691ZM351.446 567.947C346.337 567.947 341.857 567.002 338.008 565.113C334.229 563.153 331.289 560.458 329.189 557.029C327.16 553.529 326.145 549.47 326.145 544.851V531.203C326.145 526.584 327.16 522.559 329.189 519.13C331.289 515.631 334.229 512.936 338.008 511.046C341.857 509.087 346.337 508.107 351.446 508.107C356.555 508.107 360.964 509.087 364.674 511.046C368.453 512.936 371.358 515.631 373.387 519.13C375.487 522.559 376.537 526.584 376.537 531.203V541.701H341.158V544.851C341.158 548.49 342.032 551.255 343.782 553.144C345.532 554.964 348.156 555.874 351.656 555.874C354.105 555.874 356.065 555.454 357.535 554.614C359.075 553.774 360.089 552.62 360.579 551.15H376.012C374.752 556.189 371.883 560.248 367.403 563.328C362.994 566.407 357.675 567.947 351.446 567.947ZM361.524 533.618V530.993C361.524 527.424 360.684 524.694 359.005 522.804C357.395 520.915 354.875 519.97 351.446 519.97C348.016 519.97 345.427 520.95 343.677 522.909C341.997 524.869 341.158 527.634 341.158 531.203V532.778L362.574 532.568L361.524 533.618ZM414.604 567.947C409.495 567.947 405.016 567.002 401.167 565.113C397.317 563.153 394.343 560.458 392.243 557.029C390.143 553.529 389.094 549.47 389.094 544.851V531.203C389.094 526.514 390.143 522.454 392.243 519.025C394.343 515.596 397.317 512.936 401.167 511.046C405.016 509.087 409.495 508.107 414.604 508.107C422.233 508.107 428.322 510.032 432.871 513.881C437.421 517.73 439.835 522.979 440.115 529.628H424.368C424.158 527.179 423.178 525.254 421.428 523.854C419.749 522.454 417.474 521.755 414.604 521.755C411.455 521.755 409.04 522.559 407.361 524.169C405.681 525.779 404.841 528.124 404.841 531.203V544.851C404.841 547.86 405.681 550.205 407.361 551.885C409.04 553.494 411.455 554.299 414.604 554.299C417.474 554.299 419.749 553.634 421.428 552.305C423.178 550.905 424.158 548.945 424.368 546.426H440.115C439.835 553.074 437.421 558.324 432.871 562.173C428.322 566.022 422.233 567.947 414.604 567.947ZM477.238 567.947C472.129 567.947 467.685 567.002 463.905 565.113C460.126 563.153 457.187 560.458 455.087 557.029C453.057 553.529 452.042 549.47 452.042 544.851V531.203C452.042 526.584 453.057 522.559 455.087 519.13C457.187 515.631 460.126 512.936 463.905 511.046C467.685 509.087 472.129 508.107 477.238 508.107C482.417 508.107 486.862 509.087 490.571 511.046C494.35 512.936 497.255 515.631 499.285 519.13C501.384 522.559 502.434 526.584 502.434 531.203V544.851C502.434 549.47 501.384 553.529 499.285 557.029C497.255 560.458 494.35 563.153 490.571 565.113C486.862 567.002 482.417 567.947 477.238 567.947ZM477.238 554.299C480.318 554.299 482.662 553.494 484.272 551.885C485.882 550.205 486.687 547.86 486.687 544.851V531.203C486.687 528.124 485.882 525.779 484.272 524.169C482.662 522.559 480.318 521.755 477.238 521.755C474.229 521.755 471.884 522.559 470.204 524.169C468.595 525.779 467.79 528.124 467.79 531.203V544.851C467.79 547.86 468.595 550.205 470.204 551.885C471.884 553.494 474.229 554.299 477.238 554.299Z" fill="#F4F4F4"/>
<rect x="267" y="588.897" width="327" height="113" rx="20.3669" fill="#FFB522"/>
<path d="M318.259 684.044C315.292 684.044 312.628 683.412 310.265 682.149C307.958 680.885 306.172 679.1 304.909 676.793C303.7 674.54 303.206 671.876 303.426 668.799L304.25 656.85C304.359 655.092 303.865 653.691 302.766 652.648C301.668 651.604 300.239 651.082 298.481 651.082H288.18V639.545H298.481C300.239 639.545 301.668 639.023 302.766 637.979C303.865 636.881 304.359 635.48 304.25 633.777L303.426 621.333C303.261 618.312 303.783 615.702 304.991 613.505C306.2 611.252 307.958 609.522 310.265 608.313C312.573 607.105 315.237 606.5 318.259 606.5H325.263V618.037H320.731C319.193 618.037 317.956 618.422 317.022 619.191C316.089 619.96 315.677 621.224 315.786 622.982L316.61 635.425C316.83 638.446 315.759 640.891 313.397 642.759C311.089 644.572 307.903 645.478 303.838 645.478V644.901C307.903 644.901 311.089 645.863 313.397 647.786C315.759 649.654 316.83 652.126 316.61 655.202L315.786 667.563C315.731 669.046 316.171 670.255 317.105 671.189C318.039 672.068 319.247 672.507 320.731 672.507H325.263V684.044H318.259ZM336.603 674.897V614.741H356.133C360.308 614.741 363.934 615.538 367.011 617.131C370.142 618.724 372.559 620.976 374.262 623.888C376.02 626.745 376.899 630.123 376.899 634.024V655.532C376.899 659.377 376.02 662.756 374.262 665.668C372.559 668.579 370.142 670.859 367.011 672.507C363.934 674.101 360.308 674.897 356.133 674.897H336.603ZM348.964 663.36H356.133C358.66 663.36 360.693 662.646 362.231 661.218C363.769 659.789 364.538 657.894 364.538 655.532V634.024C364.538 631.717 363.769 629.849 362.231 628.42C360.693 626.992 358.66 626.278 356.133 626.278H348.964V663.36ZM405.627 675.721C401.616 675.721 398.1 674.98 395.079 673.496C392.112 671.958 389.805 669.843 388.157 667.151C386.564 664.404 385.767 661.218 385.767 657.592V646.879C385.767 643.253 386.564 640.094 388.157 637.403C389.805 634.656 392.112 632.541 395.079 631.057C398.1 629.519 401.616 628.75 405.627 628.75C409.637 628.75 413.098 629.519 416.01 631.057C418.977 632.541 421.256 634.656 422.85 637.403C424.498 640.094 425.322 643.253 425.322 646.879V655.12H397.551V657.592C397.551 660.449 398.238 662.619 399.611 664.102C400.985 665.53 403.045 666.245 405.792 666.245C407.714 666.245 409.253 665.915 410.406 665.256C411.615 664.596 412.412 663.69 412.796 662.536H424.91C423.921 666.492 421.668 669.678 418.153 672.095C414.691 674.513 410.516 675.721 405.627 675.721ZM413.538 648.775V646.714C413.538 643.913 412.879 641.77 411.56 640.287C410.296 638.803 408.319 638.062 405.627 638.062C402.935 638.062 400.902 638.831 399.529 640.369C398.21 641.907 397.551 644.077 397.551 646.879V648.115L414.362 647.95L413.538 648.775ZM447.292 674.897L432.459 629.574H445.232L452.813 655.037C453.253 656.576 453.692 658.251 454.132 660.064C454.571 661.877 454.901 663.333 455.121 664.432C455.395 663.333 455.725 661.877 456.109 660.064C456.549 658.251 456.961 656.603 457.346 655.12L464.844 629.574H477.453L462.784 674.897H447.292ZM502.472 675.721C498.736 675.721 495.467 675.144 492.665 673.991C489.864 672.782 487.666 671.134 486.073 669.046C484.535 666.959 483.766 664.514 483.766 661.712H496.126C496.126 663.031 496.703 664.102 497.857 664.926C499.066 665.695 500.604 666.08 502.472 666.08H506.098C508.35 666.08 510.053 665.668 511.207 664.844C512.415 664.02 513.02 662.866 513.02 661.383C513.02 660.009 512.498 658.965 511.454 658.251C510.41 657.482 508.79 656.96 506.592 656.686L501.318 656.026C495.66 655.312 491.539 653.939 488.957 651.906C486.375 649.873 485.084 646.769 485.084 642.594C485.084 638.199 486.595 634.793 489.616 632.376C492.638 629.959 497.06 628.75 502.884 628.75H506.015C511.564 628.75 515.986 629.959 519.283 632.376C522.579 634.793 524.227 638.034 524.227 642.1H511.866C511.866 641.001 511.317 640.122 510.218 639.463C509.174 638.749 507.773 638.391 506.015 638.391H502.884C500.851 638.391 499.368 638.749 498.434 639.463C497.5 640.122 497.033 641.138 497.033 642.512C497.033 643.775 497.445 644.737 498.269 645.396C499.148 646.055 500.521 646.522 502.389 646.797L508.075 647.538C513.789 648.253 518.019 649.681 520.766 651.824C523.568 653.966 524.969 657.152 524.969 661.383C524.969 665.997 523.375 669.541 520.189 672.013C517.003 674.485 512.306 675.721 506.098 675.721H502.472ZM535.237 684.044V672.507L539.769 672.507C541.253 672.507 542.461 672.068 543.395 671.189C544.384 670.255 544.824 669.046 544.714 667.563L543.89 655.202C543.67 652.126 544.741 649.654 547.104 647.786C549.466 645.863 552.652 644.901 556.663 644.901V645.478C552.652 645.478 549.466 644.572 547.104 642.759C544.741 640.891 543.67 638.446 543.89 635.425L544.714 622.982C544.824 621.224 544.412 619.96 543.478 619.191C542.599 618.422 541.363 618.037 539.769 618.037H535.237V606.5H542.242C545.263 606.5 547.928 607.105 550.235 608.313C552.542 609.522 554.3 611.252 555.509 613.505C556.772 615.702 557.294 618.312 557.075 621.333L556.251 633.777C556.141 635.48 556.635 636.881 557.734 637.979C558.888 639.023 560.316 639.545 562.019 639.545H572.32V651.082H562.019C560.316 651.082 558.888 651.604 557.734 652.648C556.635 653.691 556.141 655.092 556.251 656.85L557.075 668.799C557.294 671.876 556.772 674.54 555.509 676.793C554.3 679.1 552.542 680.885 550.235 682.149C547.928 683.412 545.263 684.044 542.242 684.044L535.237 684.044Z" fill="#001221"/>
<defs>
<linearGradient id="paint0_linear_43_7003" x1="766.135" y1="144.537" x2="466.02" y2="255.449" gradientUnits="userSpaceOnUse">
<stop stop-color="#F4EBDD"/>
<stop offset="1" stop-color="#E6DFD4"/>
</linearGradient>
<linearGradient id="paint1_linear_43_7003" x1="345.32" y1="401.701" x2="565.513" y2="287.526" gradientUnits="userSpaceOnUse">
<stop stop-color="#FFC34B"/>
<stop offset="1" stop-color="#FEAB05"/>
</linearGradient>
<linearGradient id="paint2_linear_43_7003" x1="702.395" y1="135.448" x2="365.13" y2="234.827" gradientUnits="userSpaceOnUse">
<stop stop-color="#F6ECDE"/>
<stop offset="1" stop-color="#E7E0D5"/>
</linearGradient>
<linearGradient id="paint3_linear_43_7003" x1="512.777" y1="309.274" x2="644.35" y2="215.76" gradientUnits="userSpaceOnUse">
<stop stop-color="#E6DFD4"/>
<stop offset="1" stop-color="#F8EEDF"/>
</linearGradient>
</defs>
</svg>
