<svg width="364" height="731" viewBox="0 0 364 731" fill="currentColor" xmlns="http://www.w3.org/2000/svg">
<rect width="5.93798" height="5.93798" transform="matrix(-0.714763 -0.699367 0.714763 -0.699367 9.55658 731)" fill="currentColor" fill-opacity="0.1"/>
<rect width="6.94094" height="6.94094" transform="matrix(-0.714763 -0.699367 0.714763 -0.699367 9.55658 693.566)" fill="currentColor" fill-opacity="0.1"/>
<rect width="9.23276" height="9.23276" transform="matrix(-0.714763 -0.699367 0.714763 -0.699367 9.55658 656.132)" fill="currentColor" fill-opacity="0.1"/>
<rect width="12.0396" height="12.0396" transform="matrix(-0.714763 -0.699367 0.714763 -0.699367 9.55658 618.698)" fill="currentColor" fill-opacity="0.1"/>
<rect width="13.3706" height="13.3706" transform="matrix(-0.714763 -0.699367 0.714763 -0.699367 9.55658 581.265)" fill="currentColor" fill-opacity="0.1"/>
<rect width="5.99404" height="5.99404" transform="matrix(-0.714763 -0.699367 0.714763 -0.699367 9.55658 543.831)" fill="currentColor" fill-opacity="0.1"/>
<rect width="10.2321" height="10.2321" transform="matrix(-0.714763 -0.699367 0.714763 -0.699367 9.55658 506.397)" fill="currentColor" fill-opacity="0.1"/>
<rect width="9.54773" height="9.54773" transform="matrix(-0.714763 -0.699367 0.714763 -0.699367 9.55658 468.963)" fill="currentColor" fill-opacity="0.1"/>
<rect width="5.10378" height="5.10378" transform="matrix(-0.714763 -0.699367 0.714763 -0.699367 9.55658 431.529)" fill="currentColor" fill-opacity="0.1"/>
<rect width="7.49633" height="7.49633" transform="matrix(-0.714763 -0.699367 0.714763 -0.699367 9.55658 394.095)" fill="currentColor" fill-opacity="0.1"/>
<rect width="5.48474" height="5.48474" transform="matrix(-0.714763 -0.699367 0.714763 -0.699367 9.55658 356.661)" fill="currentColor" fill-opacity="0.1"/>
<rect width="7.01983" height="7.01983" transform="matrix(-0.714763 -0.699367 0.714763 -0.699367 9.55658 319.227)" fill="currentColor" fill-opacity="0.1"/>
<rect width="5.69256" height="5.69256" transform="matrix(-0.714763 -0.699367 0.714763 -0.699367 9.55658 281.793)" fill="currentColor" fill-opacity="0.1"/>
<rect width="5.45237" height="5.45237" transform="matrix(-0.714763 -0.699367 0.714763 -0.699367 9.55658 244.36)" fill="currentColor" fill-opacity="0.1"/>
<rect width="12.6352" height="12.6352" transform="matrix(-0.714763 -0.699367 0.714763 -0.699367 9.55658 206.926)" fill="currentColor" fill-opacity="0.1"/>
<rect width="9.50432" height="9.50432" transform="matrix(-0.714763 -0.699367 0.714763 -0.699367 9.55658 169.492)" fill="currentColor" fill-opacity="0.1"/>
<rect width="6.78499" height="6.78499" transform="matrix(-0.714763 -0.699367 0.714763 -0.699367 9.55658 132.058)" fill="currentColor" fill-opacity="0.1"/>
<rect width="4.9796" height="4.9796" transform="matrix(-0.714763 -0.699367 0.714763 -0.699367 9.55658 94.624)" fill="currentColor" fill-opacity="0.1"/>
<rect width="11.8065" height="11.8065" transform="matrix(-0.714763 -0.699367 0.714763 -0.699367 9.55658 57.1899)" fill="currentColor" fill-opacity="0.1"/>
<rect width="10.3602" height="10.3602" transform="matrix(-0.714763 -0.699367 0.714763 -0.699367 9.55658 19.7561)" fill="currentColor" fill-opacity="0.1"/>
<rect width="10.9963" height="10.9963" transform="matrix(-0.714763 -0.699367 0.714763 -0.699367 47.8146 731)" fill="currentColor" fill-opacity="0.1"/>
<rect width="14.1925" height="14.1925" transform="matrix(-0.714763 -0.699367 0.714763 -0.699367 47.8146 693.566)" fill="currentColor" fill-opacity="0.1"/>
<rect width="8.76698" height="8.76698" transform="matrix(-0.714763 -0.699367 0.714763 -0.699367 47.8146 656.132)" fill="currentColor" fill-opacity="0.1"/>
<rect width="7.89604" height="7.89604" transform="matrix(-0.714763 -0.699367 0.714763 -0.699367 47.8146 618.698)" fill="currentColor" fill-opacity="0.1"/>
<rect width="6.69061" height="6.69061" transform="matrix(-0.714763 -0.699367 0.714763 -0.699367 47.8146 581.265)" fill="currentColor" fill-opacity="0.1"/>
<rect width="7.48118" height="7.48118" transform="matrix(-0.714763 -0.699367 0.714763 -0.699367 47.8146 543.831)" fill="currentColor" fill-opacity="0.1"/>
<rect width="5.6393" height="5.6393" transform="matrix(-0.714763 -0.699367 0.714763 -0.699367 47.8146 506.397)" fill="currentColor" fill-opacity="0.1"/>
<rect width="4.90452" height="4.90452" transform="matrix(-0.714763 -0.699367 0.714763 -0.699367 47.8146 468.963)" fill="currentColor" fill-opacity="0.1"/>
<rect width="10.4583" height="10.4583" transform="matrix(-0.714763 -0.699367 0.714763 -0.699367 47.8146 431.529)" fill="currentColor" fill-opacity="0.1"/>
<rect width="5.35748" height="5.35748" transform="matrix(-0.714763 -0.699367 0.714763 -0.699367 47.8146 394.095)" fill="currentColor" fill-opacity="0.1"/>
<rect width="5.51014" height="5.51014" transform="matrix(-0.714763 -0.699367 0.714763 -0.699367 47.8146 356.661)" fill="currentColor" fill-opacity="0.1"/>
<rect width="9.45994" height="9.45994" transform="matrix(-0.714763 -0.699367 0.714763 -0.699367 47.8146 319.227)" fill="currentColor" fill-opacity="0.1"/>
<rect width="11.7982" height="11.7982" transform="matrix(-0.714763 -0.699367 0.714763 -0.699367 47.8146 281.793)" fill="currentColor" fill-opacity="0.1"/>
<rect width="6.56798" height="6.56798" transform="matrix(-0.714763 -0.699367 0.714763 -0.699367 47.8146 244.36)" fill="currentColor" fill-opacity="0.1"/>
<rect width="7.37816" height="7.37816" transform="matrix(-0.714763 -0.699367 0.714763 -0.699367 47.8146 206.926)" fill="currentColor" fill-opacity="0.1"/>
<rect width="7.10632" height="7.10632" transform="matrix(-0.714763 -0.699367 0.714763 -0.699367 47.8146 169.492)" fill="currentColor" fill-opacity="0.1"/>
<rect width="12.456" height="12.456" transform="matrix(-0.714763 -0.699367 0.714763 -0.699367 47.8146 132.058)" fill="currentColor" fill-opacity="0.1"/>
<rect width="8.01787" height="8.01787" transform="matrix(-0.714763 -0.699367 0.714763 -0.699367 47.8146 94.624)" fill="currentColor" fill-opacity="0.1"/>
<rect width="10.9897" height="10.9897" transform="matrix(-0.714763 -0.699367 0.714763 -0.699367 47.8146 57.1899)" fill="currentColor" fill-opacity="0.1"/>
<rect width="5.03018" height="5.03018" transform="matrix(-0.714763 -0.699367 0.714763 -0.699367 47.8146 19.7561)" fill="currentColor" fill-opacity="0.1"/>
<rect width="5.07275" height="5.07275" transform="matrix(-0.714763 -0.699367 0.714763 -0.699367 86.0724 731)" fill="currentColor" fill-opacity="0.1"/>
<rect width="5.33328" height="5.33328" transform="matrix(-0.714763 -0.699367 0.714763 -0.699367 86.0724 693.566)" fill="currentColor" fill-opacity="0.1"/>
<rect width="11.6124" height="11.6124" transform="matrix(-0.714763 -0.699367 0.714763 -0.699367 86.0724 656.132)" fill="currentColor" fill-opacity="0.1"/>
<rect width="8.05512" height="8.05512" transform="matrix(-0.714763 -0.699367 0.714763 -0.699367 86.0724 618.698)" fill="currentColor" fill-opacity="0.1"/>
<rect width="13.773" height="13.773" transform="matrix(-0.714763 -0.699367 0.714763 -0.699367 86.0724 581.265)" fill="currentColor" fill-opacity="0.1"/>
<rect width="11.065" height="11.065" transform="matrix(-0.714763 -0.699367 0.714763 -0.699367 86.0724 543.831)" fill="currentColor" fill-opacity="0.1"/>
<rect width="12.6168" height="12.6168" transform="matrix(-0.714763 -0.699367 0.714763 -0.699367 86.0724 506.397)" fill="currentColor" fill-opacity="0.1"/>
<rect width="8.96558" height="8.96558" transform="matrix(-0.714763 -0.699367 0.714763 -0.699367 86.0724 468.963)" fill="currentColor" fill-opacity="0.1"/>
<rect width="9.461" height="9.461" transform="matrix(-0.714763 -0.699367 0.714763 -0.699367 86.0724 431.529)" fill="currentColor" fill-opacity="0.1"/>
<rect width="8.34881" height="8.34881" transform="matrix(-0.714763 -0.699367 0.714763 -0.699367 86.0724 394.095)" fill="currentColor" fill-opacity="0.1"/>
<rect width="14.1894" height="14.1894" transform="matrix(-0.714763 -0.699367 0.714763 -0.699367 86.0724 356.661)" fill="currentColor" fill-opacity="0.1"/>
<rect width="7.82313" height="7.82313" transform="matrix(-0.714763 -0.699367 0.714763 -0.699367 86.0724 319.227)" fill="currentColor" fill-opacity="0.1"/>
<rect width="7.81069" height="7.81069" transform="matrix(-0.714763 -0.699367 0.714763 -0.699367 86.0724 281.793)" fill="currentColor" fill-opacity="0.1"/>
<rect width="8.44629" height="8.44629" transform="matrix(-0.714763 -0.699367 0.714763 -0.699367 86.0724 244.36)" fill="currentColor" fill-opacity="0.1"/>
<rect width="10.0308" height="10.0308" transform="matrix(-0.714763 -0.699367 0.714763 -0.699367 86.0724 206.926)" fill="currentColor" fill-opacity="0.1"/>
<rect width="11.513" height="11.513" transform="matrix(-0.714763 -0.699367 0.714763 -0.699367 86.0724 169.492)" fill="currentColor" fill-opacity="0.1"/>
<rect width="5.70546" height="5.70546" transform="matrix(-0.714763 -0.699367 0.714763 -0.699367 86.0724 132.058)" fill="currentColor" fill-opacity="0.1"/>
<rect width="9.73055" height="9.73055" transform="matrix(-0.714763 -0.699367 0.714763 -0.699367 86.0724 94.624)" fill="currentColor" fill-opacity="0.1"/>
<rect width="13.6548" height="13.6548" transform="matrix(-0.714763 -0.699367 0.714763 -0.699367 86.0724 57.1899)" fill="currentColor" fill-opacity="0.1"/>
<rect width="11.1702" height="11.1702" transform="matrix(-0.714763 -0.699367 0.714763 -0.699367 86.0724 19.7561)" fill="currentColor" fill-opacity="0.1"/>
<rect width="8.92877" height="8.92877" transform="matrix(-0.714763 -0.699367 0.714763 -0.699367 124.331 731)" fill="currentColor" fill-opacity="0.1"/>
<rect width="10.7599" height="10.7599" transform="matrix(-0.714763 -0.699367 0.714763 -0.699367 124.331 693.566)" fill="currentColor" fill-opacity="0.1"/>
<rect width="14.151" height="14.151" transform="matrix(-0.714763 -0.699367 0.714763 -0.699367 124.331 656.132)" fill="currentColor" fill-opacity="0.1"/>
<rect width="11.2938" height="11.2938" transform="matrix(-0.714763 -0.699367 0.714763 -0.699367 124.331 618.698)" fill="currentColor" fill-opacity="0.1"/>
<rect width="8.72912" height="8.72912" transform="matrix(-0.714763 -0.699367 0.714763 -0.699367 124.331 581.265)" fill="currentColor" fill-opacity="0.1"/>
<rect width="11.0731" height="11.0731" transform="matrix(-0.714763 -0.699367 0.714763 -0.699367 124.331 543.831)" fill="currentColor" fill-opacity="0.1"/>
<rect width="9.54267" height="9.54267" transform="matrix(-0.714763 -0.699367 0.714763 -0.699367 124.331 506.397)" fill="currentColor" fill-opacity="0.1"/>
<rect width="8.46648" height="8.46648" transform="matrix(-0.714763 -0.699367 0.714763 -0.699367 124.331 468.963)" fill="currentColor" fill-opacity="0.1"/>
<rect width="4.91068" height="4.91068" transform="matrix(-0.714763 -0.699367 0.714763 -0.699367 124.331 431.529)" fill="currentColor" fill-opacity="0.1"/>
<rect width="13.8928" height="13.8928" transform="matrix(-0.714763 -0.699367 0.714763 -0.699367 124.331 394.095)" fill="currentColor" fill-opacity="0.1"/>
<rect width="9.23321" height="9.23321" transform="matrix(-0.714763 -0.699367 0.714763 -0.699367 124.331 356.661)" fill="currentColor" fill-opacity="0.1"/>
<rect width="13.3037" height="13.3037" transform="matrix(-0.714763 -0.699367 0.714763 -0.699367 124.331 319.227)" fill="currentColor" fill-opacity="0.1"/>
<rect width="8.6805" height="8.6805" transform="matrix(-0.714763 -0.699367 0.714763 -0.699367 124.331 281.793)" fill="currentColor" fill-opacity="0.1"/>
<rect width="12.0317" height="12.0317" transform="matrix(-0.714763 -0.699367 0.714763 -0.699367 124.331 244.36)" fill="currentColor" fill-opacity="0.1"/>
<rect width="7.75356" height="7.75356" transform="matrix(-0.714763 -0.699367 0.714763 -0.699367 124.331 206.926)" fill="currentColor" fill-opacity="0.1"/>
<rect width="12.893" height="12.893" transform="matrix(-0.714763 -0.699367 0.714763 -0.699367 124.331 169.492)" fill="currentColor" fill-opacity="0.1"/>
<rect width="5.88747" height="5.88747" transform="matrix(-0.714763 -0.699367 0.714763 -0.699367 124.331 132.058)" fill="currentColor" fill-opacity="0.1"/>
<rect width="5.85786" height="5.85786" transform="matrix(-0.714763 -0.699367 0.714763 -0.699367 124.331 94.624)" fill="currentColor" fill-opacity="0.1"/>
<rect width="13.5004" height="13.5004" transform="matrix(-0.714763 -0.699367 0.714763 -0.699367 124.331 57.1899)" fill="currentColor" fill-opacity="0.1"/>
<rect width="5.00292" height="5.00292" transform="matrix(-0.714763 -0.699367 0.714763 -0.699367 124.331 19.7561)" fill="currentColor" fill-opacity="0.1"/>
<rect width="12.9698" height="12.9698" transform="matrix(-0.714763 -0.699367 0.714763 -0.699367 162.589 731)" fill="currentColor" fill-opacity="0.1"/>
<rect width="8.77066" height="8.77066" transform="matrix(-0.714763 -0.699367 0.714763 -0.699367 162.589 693.566)" fill="currentColor" fill-opacity="0.1"/>
<rect width="6.67326" height="6.67326" transform="matrix(-0.714763 -0.699367 0.714763 -0.699367 162.589 656.132)" fill="currentColor" fill-opacity="0.1"/>
<rect width="11.5904" height="11.5904" transform="matrix(-0.714763 -0.699367 0.714763 -0.699367 162.589 618.698)" fill="currentColor" fill-opacity="0.1"/>
<rect width="12.4963" height="12.4963" transform="matrix(-0.714763 -0.699367 0.714763 -0.699367 162.589 581.265)" fill="currentColor" fill-opacity="0.1"/>
<rect width="6.04402" height="6.04402" transform="matrix(-0.714763 -0.699367 0.714763 -0.699367 162.589 543.831)" fill="currentColor" fill-opacity="0.1"/>
<rect width="6.47377" height="6.47377" transform="matrix(-0.714763 -0.699367 0.714763 -0.699367 162.589 506.397)" fill="currentColor" fill-opacity="0.1"/>
<rect width="6.66932" height="6.66932" transform="matrix(-0.714763 -0.699367 0.714763 -0.699367 162.589 468.963)" fill="currentColor" fill-opacity="0.1"/>
<rect width="13.7436" height="13.7436" transform="matrix(-0.714763 -0.699367 0.714763 -0.699367 162.589 431.529)" fill="currentColor" fill-opacity="0.1"/>
<rect width="9.01075" height="9.01075" transform="matrix(-0.714763 -0.699367 0.714763 -0.699367 162.589 394.095)" fill="currentColor" fill-opacity="0.1"/>
<rect width="7.18472" height="7.18472" transform="matrix(-0.714763 -0.699367 0.714763 -0.699367 162.589 356.661)" fill="currentColor" fill-opacity="0.1"/>
<rect width="7.48846" height="7.48846" transform="matrix(-0.714763 -0.699367 0.714763 -0.699367 162.589 319.227)" fill="currentColor" fill-opacity="0.1"/>
<rect width="11.5485" height="11.5485" transform="matrix(-0.714763 -0.699367 0.714763 -0.699367 162.589 281.793)" fill="currentColor" fill-opacity="0.1"/>
<rect width="11.9511" height="11.9511" transform="matrix(-0.714763 -0.699367 0.714763 -0.699367 162.589 244.36)" fill="currentColor" fill-opacity="0.1"/>
<rect width="13.3509" height="13.3509" transform="matrix(-0.714763 -0.699367 0.714763 -0.699367 162.589 206.926)" fill="currentColor" fill-opacity="0.1"/>
<rect width="8.14315" height="8.14315" transform="matrix(-0.714763 -0.699367 0.714763 -0.699367 162.589 169.492)" fill="currentColor" fill-opacity="0.1"/>
<rect width="10.8305" height="10.8305" transform="matrix(-0.714763 -0.699367 0.714763 -0.699367 162.589 132.058)" fill="currentColor" fill-opacity="0.1"/>
<rect width="7.68577" height="7.68577" transform="matrix(-0.714763 -0.699367 0.714763 -0.699367 162.589 94.624)" fill="currentColor" fill-opacity="0.1"/>
<rect width="10.5841" height="10.5841" transform="matrix(-0.714763 -0.699367 0.714763 -0.699367 162.589 57.1899)" fill="currentColor" fill-opacity="0.1"/>
<rect width="5.78937" height="5.78937" transform="matrix(-0.714763 -0.699367 0.714763 -0.699367 162.589 19.7561)" fill="currentColor" fill-opacity="0.1"/>
<rect width="7.20838" height="7.20838" transform="matrix(-0.714763 -0.699367 0.714763 -0.699367 200.847 731)" fill="currentColor" fill-opacity="0.1"/>
<rect width="7.64289" height="7.64289" transform="matrix(-0.714763 -0.699367 0.714763 -0.699367 200.847 693.566)" fill="currentColor" fill-opacity="0.1"/>
<rect width="12.0954" height="12.0954" transform="matrix(-0.714763 -0.699367 0.714763 -0.699367 200.847 656.132)" fill="currentColor" fill-opacity="0.1"/>
<rect width="12.9577" height="12.9577" transform="matrix(-0.714763 -0.699367 0.714763 -0.699367 200.847 618.698)" fill="currentColor" fill-opacity="0.1"/>
<rect width="5.31223" height="5.31223" transform="matrix(-0.714763 -0.699367 0.714763 -0.699367 200.847 581.265)" fill="currentColor" fill-opacity="0.1"/>
<rect width="11.2954" height="11.2954" transform="matrix(-0.714763 -0.699367 0.714763 -0.699367 200.847 543.831)" fill="currentColor" fill-opacity="0.1"/>
<rect width="13.5161" height="13.5161" transform="matrix(-0.714763 -0.699367 0.714763 -0.699367 200.847 506.397)" fill="currentColor" fill-opacity="0.1"/>
<rect width="9.32168" height="9.32168" transform="matrix(-0.714763 -0.699367 0.714763 -0.699367 200.847 468.963)" fill="currentColor" fill-opacity="0.1"/>
<rect width="13.6928" height="13.6928" transform="matrix(-0.714763 -0.699367 0.714763 -0.699367 200.847 431.529)" fill="currentColor" fill-opacity="0.1"/>
<rect width="5.81592" height="5.81592" transform="matrix(-0.714763 -0.699367 0.714763 -0.699367 200.847 394.095)" fill="currentColor" fill-opacity="0.1"/>
<rect width="13.4398" height="13.4398" transform="matrix(-0.714763 -0.699367 0.714763 -0.699367 200.847 356.661)" fill="currentColor" fill-opacity="0.1"/>
<rect width="8.06897" height="8.06897" transform="matrix(-0.714763 -0.699367 0.714763 -0.699367 200.847 319.227)" fill="currentColor" fill-opacity="0.1"/>
<rect width="7.133" height="7.133" transform="matrix(-0.714763 -0.699367 0.714763 -0.699367 200.847 281.793)" fill="currentColor" fill-opacity="0.1"/>
<rect width="11.3727" height="11.3727" transform="matrix(-0.714763 -0.699367 0.714763 -0.699367 200.847 244.36)" fill="currentColor" fill-opacity="0.1"/>
<rect width="6.91748" height="6.91748" transform="matrix(-0.714763 -0.699367 0.714763 -0.699367 200.847 206.926)" fill="currentColor" fill-opacity="0.1"/>
<rect width="13.0905" height="13.0905" transform="matrix(-0.714763 -0.699367 0.714763 -0.699367 200.847 169.492)" fill="currentColor" fill-opacity="0.1"/>
<rect width="9.48017" height="9.48017" transform="matrix(-0.714763 -0.699367 0.714763 -0.699367 200.847 132.058)" fill="currentColor" fill-opacity="0.1"/>
<rect width="12.0625" height="12.0625" transform="matrix(-0.714763 -0.699367 0.714763 -0.699367 200.847 94.624)" fill="currentColor" fill-opacity="0.1"/>
<rect width="6.85932" height="6.85932" transform="matrix(-0.714763 -0.699367 0.714763 -0.699367 200.847 57.1899)" fill="currentColor" fill-opacity="0.1"/>
<rect width="14.1244" height="14.1244" transform="matrix(-0.714763 -0.699367 0.714763 -0.699367 200.847 19.7561)" fill="currentColor" fill-opacity="0.1"/>
<rect width="9.10773" height="9.10773" transform="matrix(-0.714763 -0.699367 0.714763 -0.699367 239.105 731)" fill="currentColor" fill-opacity="0.1"/>
<rect width="7.90515" height="7.90515" transform="matrix(-0.714763 -0.699367 0.714763 -0.699367 239.105 693.566)" fill="currentColor" fill-opacity="0.1"/>
<rect width="6.261" height="6.261" transform="matrix(-0.714763 -0.699367 0.714763 -0.699367 239.105 656.132)" fill="currentColor" fill-opacity="0.1"/>
<rect width="4.85688" height="4.85688" transform="matrix(-0.714763 -0.699367 0.714763 -0.699367 239.105 618.698)" fill="currentColor" fill-opacity="0.1"/>
<rect width="8.86897" height="8.86897" transform="matrix(-0.714763 -0.699367 0.714763 -0.699367 239.105 581.265)" fill="currentColor" fill-opacity="0.1"/>
<rect width="8.76954" height="8.76954" transform="matrix(-0.714763 -0.699367 0.714763 -0.699367 239.105 543.831)" fill="currentColor" fill-opacity="0.1"/>
<rect width="11.4722" height="11.4722" transform="matrix(-0.714763 -0.699367 0.714763 -0.699367 239.105 506.397)" fill="currentColor" fill-opacity="0.1"/>
<rect width="9.11422" height="9.11422" transform="matrix(-0.714763 -0.699367 0.714763 -0.699367 239.105 468.963)" fill="currentColor" fill-opacity="0.1"/>
<rect width="5.92526" height="5.92526" transform="matrix(-0.714763 -0.699367 0.714763 -0.699367 239.105 431.529)" fill="currentColor" fill-opacity="0.1"/>
<rect width="11.7151" height="11.7151" transform="matrix(-0.714763 -0.699367 0.714763 -0.699367 239.105 394.095)" fill="currentColor" fill-opacity="0.1"/>
<rect width="7.28823" height="7.28823" transform="matrix(-0.714763 -0.699367 0.714763 -0.699367 239.105 356.661)" fill="currentColor" fill-opacity="0.1"/>
<rect width="11.9382" height="11.9382" transform="matrix(-0.714763 -0.699367 0.714763 -0.699367 239.105 319.227)" fill="currentColor" fill-opacity="0.1"/>
<rect width="9.89911" height="9.89911" transform="matrix(-0.714763 -0.699367 0.714763 -0.699367 239.105 281.793)" fill="currentColor" fill-opacity="0.1"/>
<rect width="12.8013" height="12.8013" transform="matrix(-0.714763 -0.699367 0.714763 -0.699367 239.105 244.36)" fill="currentColor" fill-opacity="0.1"/>
<rect width="10.0706" height="10.0706" transform="matrix(-0.714763 -0.699367 0.714763 -0.699367 239.105 206.926)" fill="currentColor" fill-opacity="0.1"/>
<rect width="12.0199" height="12.0199" transform="matrix(-0.714763 -0.699367 0.714763 -0.699367 239.105 169.492)" fill="currentColor" fill-opacity="0.1"/>
<rect width="11.943" height="11.943" transform="matrix(-0.714763 -0.699367 0.714763 -0.699367 239.105 132.058)" fill="currentColor" fill-opacity="0.1"/>
<rect width="7.08196" height="7.08196" transform="matrix(-0.714763 -0.699367 0.714763 -0.699367 239.105 94.624)" fill="currentColor" fill-opacity="0.1"/>
<rect width="5.80538" height="5.80538" transform="matrix(-0.714763 -0.699367 0.714763 -0.699367 239.105 57.1899)" fill="currentColor" fill-opacity="0.1"/>
<rect width="5.25007" height="5.25007" transform="matrix(-0.714763 -0.699367 0.714763 -0.699367 239.105 19.7561)" fill="currentColor" fill-opacity="0.1"/>
<rect width="4.75101" height="4.75101" transform="matrix(-0.714763 -0.699367 0.714763 -0.699367 277.363 731)" fill="currentColor" fill-opacity="0.1"/>
<rect width="12.5816" height="12.5816" transform="matrix(-0.714763 -0.699367 0.714763 -0.699367 277.363 693.566)" fill="currentColor" fill-opacity="0.1"/>
<rect width="6.86897" height="6.86897" transform="matrix(-0.714763 -0.699367 0.714763 -0.699367 277.363 656.132)" fill="currentColor" fill-opacity="0.1"/>
<rect width="8.13725" height="8.13725" transform="matrix(-0.714763 -0.699367 0.714763 -0.699367 277.363 618.698)" fill="currentColor" fill-opacity="0.1"/>
<rect width="13.0254" height="13.0254" transform="matrix(-0.714763 -0.699367 0.714763 -0.699367 277.363 581.265)" fill="currentColor" fill-opacity="0.1"/>
<rect width="10.3717" height="10.3717" transform="matrix(-0.714763 -0.699367 0.714763 -0.699367 277.363 543.831)" fill="currentColor" fill-opacity="0.1"/>
<rect width="9.13232" height="9.13232" transform="matrix(-0.714763 -0.699367 0.714763 -0.699367 277.363 506.397)" fill="currentColor" fill-opacity="0.1"/>
<rect width="7.97425" height="7.97425" transform="matrix(-0.714763 -0.699367 0.714763 -0.699367 277.363 468.963)" fill="currentColor" fill-opacity="0.1"/>
<rect width="5.20257" height="5.20257" transform="matrix(-0.714763 -0.699367 0.714763 -0.699367 277.363 431.529)" fill="currentColor" fill-opacity="0.1"/>
<rect width="10.4795" height="10.4795" transform="matrix(-0.714763 -0.699367 0.714763 -0.699367 277.363 394.095)" fill="currentColor" fill-opacity="0.1"/>
<rect width="9.71073" height="9.71073" transform="matrix(-0.714763 -0.699367 0.714763 -0.699367 277.363 356.661)" fill="currentColor" fill-opacity="0.1"/>
<rect width="7.18434" height="7.18434" transform="matrix(-0.714763 -0.699367 0.714763 -0.699367 277.363 319.227)" fill="currentColor" fill-opacity="0.1"/>
<rect width="6.04433" height="6.04433" transform="matrix(-0.714763 -0.699367 0.714763 -0.699367 277.363 281.793)" fill="currentColor" fill-opacity="0.1"/>
<rect width="6.02754" height="6.02754" transform="matrix(-0.714763 -0.699367 0.714763 -0.699367 277.363 244.36)" fill="currentColor" fill-opacity="0.1"/>
<rect width="11.4199" height="11.4199" transform="matrix(-0.714763 -0.699367 0.714763 -0.699367 277.363 206.926)" fill="currentColor" fill-opacity="0.1"/>
<rect width="12.3135" height="12.3135" transform="matrix(-0.714763 -0.699367 0.714763 -0.699367 277.363 169.492)" fill="currentColor" fill-opacity="0.1"/>
<rect width="10.1628" height="10.1628" transform="matrix(-0.714763 -0.699367 0.714763 -0.699367 277.363 132.058)" fill="currentColor" fill-opacity="0.1"/>
<rect width="6.18382" height="6.18382" transform="matrix(-0.714763 -0.699367 0.714763 -0.699367 277.363 94.624)" fill="currentColor" fill-opacity="0.1"/>
<rect width="11.3008" height="11.3008" transform="matrix(-0.714763 -0.699367 0.714763 -0.699367 277.363 57.1899)" fill="currentColor" fill-opacity="0.1"/>
<rect width="12.8798" height="12.8798" transform="matrix(-0.714763 -0.699367 0.714763 -0.699367 277.363 19.7561)" fill="currentColor" fill-opacity="0.1"/>
<rect width="8.23337" height="8.23337" transform="matrix(-0.714763 -0.699367 0.714763 -0.699367 315.621 731)" fill="currentColor" fill-opacity="0.1"/>
<rect width="5.06294" height="5.06294" transform="matrix(-0.714763 -0.699367 0.714763 -0.699367 315.621 693.566)" fill="currentColor" fill-opacity="0.1"/>
<rect width="9.60104" height="9.60104" transform="matrix(-0.714763 -0.699367 0.714763 -0.699367 315.621 656.132)" fill="currentColor" fill-opacity="0.1"/>
<rect width="10.8042" height="10.8042" transform="matrix(-0.714763 -0.699367 0.714763 -0.699367 315.621 618.698)" fill="currentColor" fill-opacity="0.1"/>
<rect width="13.9631" height="13.9631" transform="matrix(-0.714763 -0.699367 0.714763 -0.699367 315.621 581.265)" fill="currentColor" fill-opacity="0.1"/>
<rect width="6.45439" height="6.45439" transform="matrix(-0.714763 -0.699367 0.714763 -0.699367 315.621 543.831)" fill="currentColor" fill-opacity="0.1"/>
<rect width="10.7349" height="10.7349" transform="matrix(-0.714763 -0.699367 0.714763 -0.699367 315.621 506.397)" fill="currentColor" fill-opacity="0.1"/>
<rect width="10.8282" height="10.8282" transform="matrix(-0.714763 -0.699367 0.714763 -0.699367 315.621 468.963)" fill="currentColor" fill-opacity="0.1"/>
<rect width="10.8561" height="10.8561" transform="matrix(-0.714763 -0.699367 0.714763 -0.699367 315.621 431.529)" fill="currentColor" fill-opacity="0.1"/>
<rect width="11.6419" height="11.6419" transform="matrix(-0.714763 -0.699367 0.714763 -0.699367 315.621 394.095)" fill="currentColor" fill-opacity="0.1"/>
<rect width="9.10023" height="9.10023" transform="matrix(-0.714763 -0.699367 0.714763 -0.699367 315.621 356.661)" fill="currentColor" fill-opacity="0.1"/>
<rect width="11.3381" height="11.3381" transform="matrix(-0.714763 -0.699367 0.714763 -0.699367 315.621 319.227)" fill="currentColor" fill-opacity="0.1"/>
<rect width="12.8875" height="12.8875" transform="matrix(-0.714763 -0.699367 0.714763 -0.699367 315.621 281.793)" fill="currentColor" fill-opacity="0.1"/>
<rect width="11.6362" height="11.6362" transform="matrix(-0.714763 -0.699367 0.714763 -0.699367 315.621 244.36)" fill="currentColor" fill-opacity="0.1"/>
<rect width="12.79" height="12.79" transform="matrix(-0.714763 -0.699367 0.714763 -0.699367 315.621 206.926)" fill="currentColor" fill-opacity="0.1"/>
<rect width="13.9794" height="13.9794" transform="matrix(-0.714763 -0.699367 0.714763 -0.699367 315.621 169.492)" fill="currentColor" fill-opacity="0.1"/>
<rect width="7.93954" height="7.93954" transform="matrix(-0.714763 -0.699367 0.714763 -0.699367 315.621 132.058)" fill="currentColor" fill-opacity="0.1"/>
<rect width="6.37683" height="6.37683" transform="matrix(-0.714763 -0.699367 0.714763 -0.699367 315.621 94.624)" fill="currentColor" fill-opacity="0.1"/>
<rect width="7.48668" height="7.48668" transform="matrix(-0.714763 -0.699367 0.714763 -0.699367 315.621 57.1899)" fill="currentColor" fill-opacity="0.1"/>
<rect width="10.5107" height="10.5107" transform="matrix(-0.714763 -0.699367 0.714763 -0.699367 315.621 19.7561)" fill="currentColor" fill-opacity="0.1"/>
<rect width="5.64947" height="5.64947" transform="matrix(-0.714763 -0.699367 0.714763 -0.699367 353.879 731)" fill="currentColor" fill-opacity="0.1"/>
<rect width="8.37635" height="8.37635" transform="matrix(-0.714763 -0.699367 0.714763 -0.699367 353.879 693.566)" fill="currentColor" fill-opacity="0.1"/>
<rect width="11.7638" height="11.7638" transform="matrix(-0.714763 -0.699367 0.714763 -0.699367 353.879 656.132)" fill="currentColor" fill-opacity="0.1"/>
<rect width="11.5432" height="11.5432" transform="matrix(-0.714763 -0.699367 0.714763 -0.699367 353.879 618.698)" fill="currentColor" fill-opacity="0.1"/>
<rect width="13.1381" height="13.1381" transform="matrix(-0.714763 -0.699367 0.714763 -0.699367 353.879 581.265)" fill="currentColor" fill-opacity="0.1"/>
<rect width="7.09122" height="7.09122" transform="matrix(-0.714763 -0.699367 0.714763 -0.699367 353.879 543.831)" fill="currentColor" fill-opacity="0.1"/>
<rect width="9.34642" height="9.34642" transform="matrix(-0.714763 -0.699367 0.714763 -0.699367 353.879 506.397)" fill="currentColor" fill-opacity="0.1"/>
<rect width="7.11464" height="7.11464" transform="matrix(-0.714763 -0.699367 0.714763 -0.699367 353.879 468.963)" fill="currentColor" fill-opacity="0.1"/>
<rect width="7.40772" height="7.40772" transform="matrix(-0.714763 -0.699367 0.714763 -0.699367 353.879 431.529)" fill="currentColor" fill-opacity="0.1"/>
<rect width="11.096" height="11.096" transform="matrix(-0.714763 -0.699367 0.714763 -0.699367 353.879 394.095)" fill="currentColor" fill-opacity="0.1"/>
<rect width="14.1606" height="14.1606" transform="matrix(-0.714763 -0.699367 0.714763 -0.699367 353.879 356.661)" fill="currentColor" fill-opacity="0.1"/>
<rect width="7.33669" height="7.33669" transform="matrix(-0.714763 -0.699367 0.714763 -0.699367 353.879 319.227)" fill="currentColor" fill-opacity="0.1"/>
<rect width="11.034" height="11.034" transform="matrix(-0.714763 -0.699367 0.714763 -0.699367 353.879 281.793)" fill="currentColor" fill-opacity="0.1"/>
<rect width="5.20013" height="5.20013" transform="matrix(-0.714763 -0.699367 0.714763 -0.699367 353.879 244.36)" fill="currentColor" fill-opacity="0.1"/>
<rect width="5.7949" height="5.7949" transform="matrix(-0.714763 -0.699367 0.714763 -0.699367 353.879 206.926)" fill="currentColor" fill-opacity="0.1"/>
<rect width="13.2078" height="13.2078" transform="matrix(-0.714763 -0.699367 0.714763 -0.699367 353.879 169.492)" fill="currentColor" fill-opacity="0.1"/>
<rect width="8.97379" height="8.97379" transform="matrix(-0.714763 -0.699367 0.714763 -0.699367 353.879 132.058)" fill="currentColor" fill-opacity="0.1"/>
<rect width="8.60249" height="8.60249" transform="matrix(-0.714763 -0.699367 0.714763 -0.699367 353.879 94.624)" fill="currentColor" fill-opacity="0.1"/>
<rect width="6.60335" height="6.60335" transform="matrix(-0.714763 -0.699367 0.714763 -0.699367 353.879 57.1899)" fill="currentColor" fill-opacity="0.1"/>
<rect width="11.7906" height="11.7906" transform="matrix(-0.714763 -0.699367 0.714763 -0.699367 353.879 19.7561)" fill="currentColor" fill-opacity="0.1"/>
</svg>
