<svg width="24" height="24" viewBox="0 0 40 40" fill="none" xmlns="http://www.w3.org/2000/svg">
<path d="M20.007 9.59091C22.9002 9.59091 25.675 10.7403 27.7209 12.7861C29.7667 14.832 30.916 17.6067 30.916 20.5C30.916 24.5364 28.716 28.0636 25.4615 29.9545V33.2273C25.4615 33.7095 25.2699 34.1719 24.929 34.5129C24.588 34.8539 24.1255 35.0455 23.6433 35.0455H16.3706C15.8884 35.0455 15.4259 34.8539 15.0849 34.5129C14.744 34.1719 14.5524 33.7095 14.5524 33.2273V29.9545C11.2979 28.0636 9.09787 24.5364 9.09787 20.5C9.09787 17.6067 10.2472 14.832 12.2931 12.7861C14.3389 10.7403 17.1137 9.59091 20.007 9.59091ZM23.6433 36.8636V38.6818C23.6433 39.164 23.4518 39.6265 23.1108 39.9675C22.7698 40.3084 22.3074 40.5 21.8251 40.5H18.1888C17.7066 40.5 17.2441 40.3084 16.9031 39.9675C16.5622 39.6265 16.3706 39.164 16.3706 38.6818V36.8636H23.6433ZM34.5524 18.6818H40.007V22.3182H34.5524V18.6818ZM0.00695801 18.6818H5.4615V22.3182H0.00695801V18.6818ZM21.8251 0.5V5.95455H18.1888V0.5H21.8251ZM7.13423 5.04545L11.007 8.93636L8.42514 11.5L4.55241 7.64545L7.13423 5.04545ZM29.007 8.91818L32.8615 5.04545L35.4615 7.64545L31.5888 11.5L29.007 8.91818Z" fill="#FF8A00"/>
</svg>
