<svg width="481" height="836" viewBox="0 0 481 836" fill="currentColor" xmlns="http://www.w3.org/2000/svg">
<rect y="836" width="17.5456" height="20.2265" transform="rotate(-90 0 836)" fill="currentColor" fill-opacity="0.1"/>
<rect y="800.922" width="26.2442" height="30.2542" transform="rotate(-90 0 800.922)" fill="currentColor" fill-opacity="0.1"/>
<rect y="765.844" width="24.6944" height="28.4677" transform="rotate(-90 0 765.844)" fill="currentColor" fill-opacity="0.1"/>
<rect y="730.767" width="28.4488" height="32.7957" transform="rotate(-90 0 730.767)" fill="currentColor" fill-opacity="0.1"/>
<rect y="695.689" width="17.5883" height="20.2758" transform="rotate(-90 0 695.689)" fill="currentColor" fill-opacity="0.1"/>
<rect y="660.611" width="14.3834" height="16.5812" transform="rotate(-90 0 660.611)" fill="currentColor" fill-opacity="0.1"/>
<rect y="625.533" width="13.8386" height="15.9531" transform="rotate(-90 0 625.533)" fill="currentColor" fill-opacity="0.1"/>
<rect y="590.456" width="13.3872" height="15.4327" transform="rotate(-90 0 590.456)" fill="currentColor" fill-opacity="0.1"/>
<rect y="555.377" width="17.4189" height="20.0804" transform="rotate(-90 0 555.377)" fill="currentColor" fill-opacity="0.1"/>
<rect y="520.3" width="27.6946" height="31.9263" transform="rotate(-90 0 520.3)" fill="currentColor" fill-opacity="0.1"/>
<rect y="485.222" width="14.5719" height="16.7985" transform="rotate(-90 0 485.222)" fill="currentColor" fill-opacity="0.1"/>
<rect y="450.144" width="13.3377" height="15.3757" transform="rotate(-90 0 450.144)" fill="currentColor" fill-opacity="0.1"/>
<rect y="415.066" width="23.4736" height="27.0603" transform="rotate(-90 0 415.066)" fill="currentColor" fill-opacity="0.1"/>
<rect y="379.988" width="17.6872" height="20.3897" transform="rotate(-90 0 379.988)" fill="currentColor" fill-opacity="0.1"/>
<rect y="344.91" width="17.8985" height="20.6333" transform="rotate(-90 0 344.91)" fill="currentColor" fill-opacity="0.1"/>
<rect y="309.833" width="15.0226" height="17.318" transform="rotate(-90 0 309.833)" fill="currentColor" fill-opacity="0.1"/>
<rect y="274.755" width="13.108" height="15.1109" transform="rotate(-90 0 274.755)" fill="currentColor" fill-opacity="0.1"/>
<rect y="239.677" width="12.2167" height="14.0833" transform="rotate(-90 0 239.677)" fill="currentColor" fill-opacity="0.1"/>
<rect y="204.599" width="12.4616" height="14.3656" transform="rotate(-90 0 204.599)" fill="currentColor" fill-opacity="0.1"/>
<rect y="169.521" width="23.9216" height="27.5768" transform="rotate(-90 0 169.521)" fill="currentColor" fill-opacity="0.1"/>
<rect y="134.444" width="21.5557" height="24.8493" transform="rotate(-90 0 134.444)" fill="currentColor" fill-opacity="0.1"/>
<rect y="99.3655" width="14.955" height="17.2401" transform="rotate(-90 0 99.3655)" fill="currentColor" fill-opacity="0.1"/>
<rect y="64.2876" width="23.5255" height="27.1202" transform="rotate(-90 0 64.2876)" fill="currentColor" fill-opacity="0.1"/>
<rect y="29.2095" width="19.1382" height="22.0625" transform="rotate(-90 0 29.2095)" fill="currentColor" fill-opacity="0.1"/>
<rect x="40.4375" y="836" width="17.9902" height="20.7391" transform="rotate(-90 40.4375 836)" fill="currentColor" fill-opacity="0.1"/>
<rect x="40.4375" y="800.922" width="13.3515" height="15.3916" transform="rotate(-90 40.4375 800.922)" fill="currentColor" fill-opacity="0.1"/>
<rect x="40.4375" y="765.844" width="25.0232" height="28.8466" transform="rotate(-90 40.4375 765.844)" fill="currentColor" fill-opacity="0.1"/>
<rect x="40.4375" y="730.767" width="30.9395" height="35.667" transform="rotate(-90 40.4375 730.767)" fill="currentColor" fill-opacity="0.1"/>
<rect x="40.4375" y="695.689" width="27.0957" height="31.2358" transform="rotate(-90 40.4375 695.689)" fill="currentColor" fill-opacity="0.1"/>
<rect x="40.4375" y="660.611" width="19.4592" height="22.4325" transform="rotate(-90 40.4375 660.611)" fill="currentColor" fill-opacity="0.1"/>
<rect x="40.4375" y="625.533" width="17.0319" height="19.6343" transform="rotate(-90 40.4375 625.533)" fill="currentColor" fill-opacity="0.1"/>
<rect x="40.4375" y="590.456" width="25.7067" height="29.6346" transform="rotate(-90 40.4375 590.456)" fill="currentColor" fill-opacity="0.1"/>
<rect x="40.4375" y="555.377" width="23.366" height="26.9362" transform="rotate(-90 40.4375 555.377)" fill="currentColor" fill-opacity="0.1"/>
<rect x="40.4375" y="520.3" width="29.5991" height="34.1218" transform="rotate(-90 40.4375 520.3)" fill="currentColor" fill-opacity="0.1"/>
<rect x="40.4375" y="485.222" width="29.9455" height="34.5211" transform="rotate(-90 40.4375 485.222)" fill="currentColor" fill-opacity="0.1"/>
<rect x="40.4375" y="450.144" width="12.7787" height="14.7312" transform="rotate(-90 40.4375 450.144)" fill="currentColor" fill-opacity="0.1"/>
<rect x="40.4375" y="415.066" width="17.7297" height="20.4387" transform="rotate(-90 40.4375 415.066)" fill="currentColor" fill-opacity="0.1"/>
<rect x="40.4375" y="379.988" width="26.8093" height="30.9057" transform="rotate(-90 40.4375 379.988)" fill="currentColor" fill-opacity="0.1"/>
<rect x="40.4375" y="344.91" width="23.3448" height="26.9118" transform="rotate(-90 40.4375 344.91)" fill="currentColor" fill-opacity="0.1"/>
<rect x="40.4375" y="309.833" width="14.0589" height="16.207" transform="rotate(-90 40.4375 309.833)" fill="currentColor" fill-opacity="0.1"/>
<rect x="40.4375" y="274.755" width="26.65" height="30.722" transform="rotate(-90 40.4375 274.755)" fill="currentColor" fill-opacity="0.1"/>
<rect x="40.4375" y="239.677" width="24.7555" height="28.5381" transform="rotate(-90 40.4375 239.677)" fill="currentColor" fill-opacity="0.1"/>
<rect x="40.4375" y="204.599" width="28.5319" height="32.8915" transform="rotate(-90 40.4375 204.599)" fill="currentColor" fill-opacity="0.1"/>
<rect x="40.4375" y="169.521" width="15.3231" height="17.6644" transform="rotate(-90 40.4375 169.521)" fill="currentColor" fill-opacity="0.1"/>
<rect x="40.4375" y="134.444" width="28.9054" height="33.3221" transform="rotate(-90 40.4375 134.444)" fill="currentColor" fill-opacity="0.1"/>
<rect x="40.4375" y="99.3655" width="25.7751" height="29.7134" transform="rotate(-90 40.4375 99.3655)" fill="currentColor" fill-opacity="0.1"/>
<rect x="40.4375" y="64.2876" width="12.2422" height="14.1128" transform="rotate(-90 40.4375 64.2876)" fill="currentColor" fill-opacity="0.1"/>
<rect x="40.4375" y="29.2095" width="26.2491" height="30.2599" transform="rotate(-90 40.4375 29.2095)" fill="currentColor" fill-opacity="0.1"/>
<rect x="80.8755" y="836" width="19.9935" height="23.0484" transform="rotate(-90 80.8755 836)" fill="currentColor" fill-opacity="0.1"/>
<rect x="80.8755" y="800.922" width="25.365" height="29.2407" transform="rotate(-90 80.8755 800.922)" fill="currentColor" fill-opacity="0.1"/>
<rect x="80.8755" y="765.844" width="20.3696" height="23.482" transform="rotate(-90 80.8755 765.844)" fill="currentColor" fill-opacity="0.1"/>
<rect x="80.8755" y="730.767" width="11.7132" height="13.5029" transform="rotate(-90 80.8755 730.767)" fill="currentColor" fill-opacity="0.1"/>
<rect x="80.8755" y="695.689" width="14.6155" height="16.8487" transform="rotate(-90 80.8755 695.689)" fill="currentColor" fill-opacity="0.1"/>
<rect x="80.8755" y="660.611" width="26.6672" height="30.7418" transform="rotate(-90 80.8755 660.611)" fill="currentColor" fill-opacity="0.1"/>
<rect x="80.8755" y="625.533" width="28.532" height="32.8916" transform="rotate(-90 80.8755 625.533)" fill="currentColor" fill-opacity="0.1"/>
<rect x="80.8755" y="590.456" width="26.831" height="30.9307" transform="rotate(-90 80.8755 590.456)" fill="currentColor" fill-opacity="0.1"/>
<rect x="80.8755" y="555.377" width="31.3451" height="36.1345" transform="rotate(-90 80.8755 555.377)" fill="currentColor" fill-opacity="0.1"/>
<rect x="80.8755" y="520.3" width="25.5666" height="29.4731" transform="rotate(-90 80.8755 520.3)" fill="currentColor" fill-opacity="0.1"/>
<rect x="80.8755" y="485.222" width="23.6191" height="27.228" transform="rotate(-90 80.8755 485.222)" fill="currentColor" fill-opacity="0.1"/>
<rect x="80.8755" y="450.144" width="18.2153" height="20.9986" transform="rotate(-90 80.8755 450.144)" fill="currentColor" fill-opacity="0.1"/>
<rect x="80.8755" y="415.066" width="18.3731" height="21.1805" transform="rotate(-90 80.8755 415.066)" fill="currentColor" fill-opacity="0.1"/>
<rect x="80.8755" y="379.988" width="28.5509" height="32.9134" transform="rotate(-90 80.8755 379.988)" fill="currentColor" fill-opacity="0.1"/>
<rect x="80.8755" y="344.91" width="25.8523" height="29.8025" transform="rotate(-90 80.8755 344.91)" fill="currentColor" fill-opacity="0.1"/>
<rect x="80.8755" y="309.833" width="13.2274" height="15.2485" transform="rotate(-90 80.8755 309.833)" fill="currentColor" fill-opacity="0.1"/>
<rect x="80.8755" y="274.755" width="21.9501" height="25.304" transform="rotate(-90 80.8755 274.755)" fill="currentColor" fill-opacity="0.1"/>
<rect x="80.8755" y="239.677" width="23.3532" height="26.9215" transform="rotate(-90 80.8755 239.677)" fill="currentColor" fill-opacity="0.1"/>
<rect x="80.8755" y="204.599" width="24.8428" height="28.6387" transform="rotate(-90 80.8755 204.599)" fill="currentColor" fill-opacity="0.1"/>
<rect x="80.8755" y="169.521" width="12.3308" height="14.2149" transform="rotate(-90 80.8755 169.521)" fill="currentColor" fill-opacity="0.1"/>
<rect x="80.8755" y="134.444" width="27.8716" height="32.1303" transform="rotate(-90 80.8755 134.444)" fill="currentColor" fill-opacity="0.1"/>
<rect x="80.8755" y="99.3655" width="20.2711" height="23.3685" transform="rotate(-90 80.8755 99.3655)" fill="currentColor" fill-opacity="0.1"/>
<rect x="80.8755" y="64.2876" width="18.6958" height="21.5524" transform="rotate(-90 80.8755 64.2876)" fill="currentColor" fill-opacity="0.1"/>
<rect x="80.8755" y="29.2095" width="19.5104" height="22.4915" transform="rotate(-90 80.8755 29.2095)" fill="currentColor" fill-opacity="0.1"/>
<rect x="121.313" y="836" width="19.0938" height="22.0112" transform="rotate(-90 121.313 836)" fill="currentColor" fill-opacity="0.1"/>
<rect x="121.313" y="800.922" width="13.0187" height="15.0079" transform="rotate(-90 121.313 800.922)" fill="currentColor" fill-opacity="0.1"/>
<rect x="121.313" y="765.844" width="14.7098" height="16.9574" transform="rotate(-90 121.313 765.844)" fill="currentColor" fill-opacity="0.1"/>
<rect x="121.313" y="730.767" width="11.6354" height="13.4132" transform="rotate(-90 121.313 730.767)" fill="currentColor" fill-opacity="0.1"/>
<rect x="121.313" y="695.689" width="27.6175" height="31.8374" transform="rotate(-90 121.313 695.689)" fill="currentColor" fill-opacity="0.1"/>
<rect x="121.313" y="660.611" width="18.1996" height="20.9805" transform="rotate(-90 121.313 660.611)" fill="currentColor" fill-opacity="0.1"/>
<rect x="121.313" y="625.533" width="27.4553" height="31.6504" transform="rotate(-90 121.313 625.533)" fill="currentColor" fill-opacity="0.1"/>
<rect x="121.313" y="590.456" width="22.6623" height="26.1251" transform="rotate(-90 121.313 590.456)" fill="currentColor" fill-opacity="0.1"/>
<rect x="121.313" y="555.377" width="29.9745" height="34.5545" transform="rotate(-90 121.313 555.377)" fill="currentColor" fill-opacity="0.1"/>
<rect x="121.313" y="520.3" width="17.6505" height="20.3475" transform="rotate(-90 121.313 520.3)" fill="currentColor" fill-opacity="0.1"/>
<rect x="121.313" y="485.222" width="25.7856" height="29.7256" transform="rotate(-90 121.313 485.222)" fill="currentColor" fill-opacity="0.1"/>
<rect x="121.313" y="450.144" width="25.8979" height="29.855" transform="rotate(-90 121.313 450.144)" fill="currentColor" fill-opacity="0.1"/>
<rect x="121.313" y="415.066" width="26.454" height="30.496" transform="rotate(-90 121.313 415.066)" fill="currentColor" fill-opacity="0.1"/>
<rect x="121.313" y="379.988" width="22.8852" height="26.382" transform="rotate(-90 121.313 379.988)" fill="currentColor" fill-opacity="0.1"/>
<rect x="121.313" y="344.91" width="31.2957" height="36.0776" transform="rotate(-90 121.313 344.91)" fill="currentColor" fill-opacity="0.1"/>
<rect x="121.313" y="309.833" width="29.7191" height="34.2601" transform="rotate(-90 121.313 309.833)" fill="currentColor" fill-opacity="0.1"/>
<rect x="121.313" y="274.755" width="24.4897" height="28.2317" transform="rotate(-90 121.313 274.755)" fill="currentColor" fill-opacity="0.1"/>
<rect x="121.313" y="239.677" width="20.778" height="23.9528" transform="rotate(-90 121.313 239.677)" fill="currentColor" fill-opacity="0.1"/>
<rect x="121.313" y="204.599" width="18.7188" height="21.579" transform="rotate(-90 121.313 204.599)" fill="currentColor" fill-opacity="0.1"/>
<rect x="121.313" y="169.521" width="27.9701" height="32.2439" transform="rotate(-90 121.313 169.521)" fill="currentColor" fill-opacity="0.1"/>
<rect x="121.313" y="134.444" width="25.2545" height="29.1133" transform="rotate(-90 121.313 134.444)" fill="currentColor" fill-opacity="0.1"/>
<rect x="121.313" y="99.3655" width="24.8946" height="28.6984" transform="rotate(-90 121.313 99.3655)" fill="currentColor" fill-opacity="0.1"/>
<rect x="121.313" y="64.2876" width="25.7364" height="29.6689" transform="rotate(-90 121.313 64.2876)" fill="currentColor" fill-opacity="0.1"/>
<rect x="121.313" y="29.2095" width="13.8469" height="15.9627" transform="rotate(-90 121.313 29.2095)" fill="currentColor" fill-opacity="0.1"/>
<rect x="161.75" y="836" width="29.0448" height="33.4828" transform="rotate(-90 161.75 836)" fill="currentColor" fill-opacity="0.1"/>
<rect x="161.75" y="800.922" width="29.2363" height="33.7035" transform="rotate(-90 161.75 800.922)" fill="currentColor" fill-opacity="0.1"/>
<rect x="161.75" y="765.844" width="25.9504" height="29.9156" transform="rotate(-90 161.75 765.844)" fill="currentColor" fill-opacity="0.1"/>
<rect x="161.75" y="730.767" width="25.4479" height="29.3362" transform="rotate(-90 161.75 730.767)" fill="currentColor" fill-opacity="0.1"/>
<rect x="161.75" y="695.689" width="26.7935" height="30.8875" transform="rotate(-90 161.75 695.689)" fill="currentColor" fill-opacity="0.1"/>
<rect x="161.75" y="660.611" width="17.666" height="20.3653" transform="rotate(-90 161.75 660.611)" fill="currentColor" fill-opacity="0.1"/>
<rect x="161.75" y="625.533" width="30.8491" height="35.5628" transform="rotate(-90 161.75 625.533)" fill="currentColor" fill-opacity="0.1"/>
<rect x="161.75" y="590.456" width="26.8739" height="30.9802" transform="rotate(-90 161.75 590.456)" fill="currentColor" fill-opacity="0.1"/>
<rect x="161.75" y="555.377" width="14.8018" height="17.0634" transform="rotate(-90 161.75 555.377)" fill="currentColor" fill-opacity="0.1"/>
<rect x="161.75" y="520.3" width="10.6583" height="12.2869" transform="rotate(-90 161.75 520.3)" fill="currentColor" fill-opacity="0.1"/>
<rect x="161.75" y="485.222" width="18.122" height="20.891" transform="rotate(-90 161.75 485.222)" fill="currentColor" fill-opacity="0.1"/>
<rect x="161.75" y="450.144" width="18.9106" height="21.8001" transform="rotate(-90 161.75 450.144)" fill="currentColor" fill-opacity="0.1"/>
<rect x="161.75" y="415.066" width="24.9862" height="28.804" transform="rotate(-90 161.75 415.066)" fill="currentColor" fill-opacity="0.1"/>
<rect x="161.75" y="379.988" width="18.2324" height="21.0182" transform="rotate(-90 161.75 379.988)" fill="currentColor" fill-opacity="0.1"/>
<rect x="161.75" y="344.91" width="10.8591" height="12.5183" transform="rotate(-90 161.75 344.91)" fill="currentColor" fill-opacity="0.1"/>
<rect x="161.75" y="309.833" width="12.243" height="14.1137" transform="rotate(-90 161.75 309.833)" fill="currentColor" fill-opacity="0.1"/>
<rect x="161.75" y="274.755" width="18.261" height="21.0512" transform="rotate(-90 161.75 274.755)" fill="currentColor" fill-opacity="0.1"/>
<rect x="161.75" y="239.677" width="31.3977" height="36.1952" transform="rotate(-90 161.75 239.677)" fill="currentColor" fill-opacity="0.1"/>
<rect x="161.75" y="204.599" width="29.5214" height="34.0322" transform="rotate(-90 161.75 204.599)" fill="currentColor" fill-opacity="0.1"/>
<rect x="161.75" y="169.521" width="28.5756" height="32.9419" transform="rotate(-90 161.75 169.521)" fill="currentColor" fill-opacity="0.1"/>
<rect x="161.75" y="134.444" width="14.9613" height="17.2474" transform="rotate(-90 161.75 134.444)" fill="currentColor" fill-opacity="0.1"/>
<rect x="161.75" y="99.3655" width="13.7483" height="15.849" transform="rotate(-90 161.75 99.3655)" fill="currentColor" fill-opacity="0.1"/>
<rect x="161.75" y="64.2876" width="25.8274" height="29.7737" transform="rotate(-90 161.75 64.2876)" fill="currentColor" fill-opacity="0.1"/>
<rect x="161.75" y="29.2095" width="29.2096" height="33.6728" transform="rotate(-90 161.75 29.2095)" fill="currentColor" fill-opacity="0.1"/>
<rect x="202.188" y="836" width="15.8793" height="18.3056" transform="rotate(-90 202.188 836)" fill="currentColor" fill-opacity="0.1"/>
<rect x="202.188" y="800.922" width="21.0359" height="24.2501" transform="rotate(-90 202.188 800.922)" fill="currentColor" fill-opacity="0.1"/>
<rect x="202.188" y="765.844" width="11.3641" height="13.1005" transform="rotate(-90 202.188 765.844)" fill="currentColor" fill-opacity="0.1"/>
<rect x="202.188" y="730.767" width="27.3908" height="31.576" transform="rotate(-90 202.188 730.767)" fill="currentColor" fill-opacity="0.1"/>
<rect x="202.188" y="695.689" width="20.1793" height="23.2627" transform="rotate(-90 202.188 695.689)" fill="currentColor" fill-opacity="0.1"/>
<rect x="202.188" y="660.611" width="29.1885" height="33.6484" transform="rotate(-90 202.188 660.611)" fill="currentColor" fill-opacity="0.1"/>
<rect x="202.188" y="625.533" width="16.3558" height="18.8549" transform="rotate(-90 202.188 625.533)" fill="currentColor" fill-opacity="0.1"/>
<rect x="202.188" y="590.456" width="20.6539" height="23.8097" transform="rotate(-90 202.188 590.456)" fill="currentColor" fill-opacity="0.1"/>
<rect x="202.188" y="555.377" width="21.7393" height="25.061" transform="rotate(-90 202.188 555.377)" fill="currentColor" fill-opacity="0.1"/>
<rect x="202.188" y="520.3" width="18.5327" height="21.3644" transform="rotate(-90 202.188 520.3)" fill="currentColor" fill-opacity="0.1"/>
<rect x="202.188" y="485.222" width="12.1461" height="14.0019" transform="rotate(-90 202.188 485.222)" fill="currentColor" fill-opacity="0.1"/>
<rect x="202.188" y="450.144" width="28.1387" height="32.4383" transform="rotate(-90 202.188 450.144)" fill="currentColor" fill-opacity="0.1"/>
<rect x="202.188" y="415.066" width="24.1322" height="27.8196" transform="rotate(-90 202.188 415.066)" fill="currentColor" fill-opacity="0.1"/>
<rect x="202.188" y="379.988" width="18.0983" height="20.8637" transform="rotate(-90 202.188 379.988)" fill="currentColor" fill-opacity="0.1"/>
<rect x="202.188" y="344.91" width="15.257" height="17.5882" transform="rotate(-90 202.188 344.91)" fill="currentColor" fill-opacity="0.1"/>
<rect x="202.188" y="309.833" width="19.8952" height="22.9352" transform="rotate(-90 202.188 309.833)" fill="currentColor" fill-opacity="0.1"/>
<rect x="202.188" y="274.755" width="17.2712" height="19.9102" transform="rotate(-90 202.188 274.755)" fill="currentColor" fill-opacity="0.1"/>
<rect x="202.188" y="239.677" width="11.7491" height="13.5444" transform="rotate(-90 202.188 239.677)" fill="currentColor" fill-opacity="0.1"/>
<rect x="202.188" y="204.599" width="27.8114" height="32.0609" transform="rotate(-90 202.188 204.599)" fill="currentColor" fill-opacity="0.1"/>
<rect x="202.188" y="169.521" width="28.5986" height="32.9683" transform="rotate(-90 202.188 169.521)" fill="currentColor" fill-opacity="0.1"/>
<rect x="202.188" y="134.444" width="12.7478" height="14.6956" transform="rotate(-90 202.188 134.444)" fill="currentColor" fill-opacity="0.1"/>
<rect x="202.188" y="99.3655" width="13.1401" height="15.1479" transform="rotate(-90 202.188 99.3655)" fill="currentColor" fill-opacity="0.1"/>
<rect x="202.188" y="64.2876" width="13.3022" height="15.3348" transform="rotate(-90 202.188 64.2876)" fill="currentColor" fill-opacity="0.1"/>
<rect x="202.188" y="29.2095" width="23.7107" height="27.3336" transform="rotate(-90 202.188 29.2095)" fill="currentColor" fill-opacity="0.1"/>
<rect x="242.626" y="836" width="15.7709" height="18.1806" transform="rotate(-90 242.626 836)" fill="currentColor" fill-opacity="0.1"/>
<rect x="242.626" y="800.922" width="20.4573" height="23.5831" transform="rotate(-90 242.626 800.922)" fill="currentColor" fill-opacity="0.1"/>
<rect x="242.626" y="765.844" width="23.3959" height="26.9707" transform="rotate(-90 242.626 765.844)" fill="currentColor" fill-opacity="0.1"/>
<rect x="242.626" y="730.767" width="12.421" height="14.3188" transform="rotate(-90 242.626 730.767)" fill="currentColor" fill-opacity="0.1"/>
<rect x="242.626" y="695.689" width="28.1173" height="32.4136" transform="rotate(-90 242.626 695.689)" fill="currentColor" fill-opacity="0.1"/>
<rect x="242.626" y="660.611" width="11.8368" height="13.6455" transform="rotate(-90 242.626 660.611)" fill="currentColor" fill-opacity="0.1"/>
<rect x="242.626" y="625.533" width="19.9575" height="23.0069" transform="rotate(-90 242.626 625.533)" fill="currentColor" fill-opacity="0.1"/>
<rect x="242.626" y="590.456" width="30.6472" height="35.33" transform="rotate(-90 242.626 590.456)" fill="currentColor" fill-opacity="0.1"/>
<rect x="242.626" y="555.377" width="18.5991" height="21.441" transform="rotate(-90 242.626 555.377)" fill="currentColor" fill-opacity="0.1"/>
<rect x="242.626" y="520.3" width="15.0874" height="17.3927" transform="rotate(-90 242.626 520.3)" fill="currentColor" fill-opacity="0.1"/>
<rect x="242.626" y="485.222" width="30.1599" height="34.7682" transform="rotate(-90 242.626 485.222)" fill="currentColor" fill-opacity="0.1"/>
<rect x="242.626" y="450.144" width="29.6589" height="34.1906" transform="rotate(-90 242.626 450.144)" fill="currentColor" fill-opacity="0.1"/>
<rect x="242.626" y="415.066" width="27.3662" height="31.5476" transform="rotate(-90 242.626 415.066)" fill="currentColor" fill-opacity="0.1"/>
<rect x="242.626" y="379.988" width="11.9026" height="13.7212" transform="rotate(-90 242.626 379.988)" fill="currentColor" fill-opacity="0.1"/>
<rect x="242.626" y="344.91" width="13.5567" height="15.6281" transform="rotate(-90 242.626 344.91)" fill="currentColor" fill-opacity="0.1"/>
<rect x="242.626" y="309.833" width="23.134" height="26.6688" transform="rotate(-90 242.626 309.833)" fill="currentColor" fill-opacity="0.1"/>
<rect x="242.626" y="274.755" width="14.0622" height="16.2109" transform="rotate(-90 242.626 274.755)" fill="currentColor" fill-opacity="0.1"/>
<rect x="242.626" y="239.677" width="28.2386" height="32.5534" transform="rotate(-90 242.626 239.677)" fill="currentColor" fill-opacity="0.1"/>
<rect x="242.626" y="204.599" width="21.7359" height="25.0571" transform="rotate(-90 242.626 204.599)" fill="currentColor" fill-opacity="0.1"/>
<rect x="242.626" y="169.521" width="22.3528" height="25.7682" transform="rotate(-90 242.626 169.521)" fill="currentColor" fill-opacity="0.1"/>
<rect x="242.626" y="134.444" width="25.7524" height="29.6873" transform="rotate(-90 242.626 134.444)" fill="currentColor" fill-opacity="0.1"/>
<rect x="242.626" y="99.3655" width="23.1021" height="26.6321" transform="rotate(-90 242.626 99.3655)" fill="currentColor" fill-opacity="0.1"/>
<rect x="242.626" y="64.2876" width="17.7985" height="20.518" transform="rotate(-90 242.626 64.2876)" fill="currentColor" fill-opacity="0.1"/>
<rect x="242.626" y="29.2095" width="13.6854" height="15.7764" transform="rotate(-90 242.626 29.2095)" fill="currentColor" fill-opacity="0.1"/>
<rect x="283.063" y="836" width="13.4638" height="15.521" transform="rotate(-90 283.063 836)" fill="currentColor" fill-opacity="0.1"/>
<rect x="283.063" y="800.922" width="29.3749" height="33.8632" transform="rotate(-90 283.063 800.922)" fill="currentColor" fill-opacity="0.1"/>
<rect x="283.063" y="765.844" width="25.5556" height="29.4604" transform="rotate(-90 283.063 765.844)" fill="currentColor" fill-opacity="0.1"/>
<rect x="283.063" y="730.767" width="14.9698" height="17.2572" transform="rotate(-90 283.063 730.767)" fill="currentColor" fill-opacity="0.1"/>
<rect x="283.063" y="695.689" width="13.9521" height="16.084" transform="rotate(-90 283.063 695.689)" fill="currentColor" fill-opacity="0.1"/>
<rect x="283.063" y="660.611" width="12.5596" height="14.4787" transform="rotate(-90 283.063 660.611)" fill="currentColor" fill-opacity="0.1"/>
<rect x="283.063" y="625.533" width="14.2978" height="16.4824" transform="rotate(-90 283.063 625.533)" fill="currentColor" fill-opacity="0.1"/>
<rect x="283.063" y="590.456" width="11.9967" height="13.8298" transform="rotate(-90 283.063 590.456)" fill="currentColor" fill-opacity="0.1"/>
<rect x="283.063" y="555.377" width="27.0923" height="31.2319" transform="rotate(-90 283.063 555.377)" fill="currentColor" fill-opacity="0.1"/>
<rect x="283.063" y="520.3" width="28.5181" height="32.8756" transform="rotate(-90 283.063 520.3)" fill="currentColor" fill-opacity="0.1"/>
<rect x="283.063" y="485.222" width="19.301" height="22.2502" transform="rotate(-90 283.063 485.222)" fill="currentColor" fill-opacity="0.1"/>
<rect x="283.063" y="450.144" width="18.5367" height="21.369" transform="rotate(-90 283.063 450.144)" fill="currentColor" fill-opacity="0.1"/>
<rect x="283.063" y="415.066" width="23.3079" height="26.8693" transform="rotate(-90 283.063 415.066)" fill="currentColor" fill-opacity="0.1"/>
<rect x="283.063" y="379.988" width="11.4576" height="13.2083" transform="rotate(-90 283.063 379.988)" fill="currentColor" fill-opacity="0.1"/>
<rect x="283.063" y="344.91" width="25.7668" height="29.7038" transform="rotate(-90 283.063 344.91)" fill="currentColor" fill-opacity="0.1"/>
<rect x="283.063" y="309.833" width="24.5776" height="28.333" transform="rotate(-90 283.063 309.833)" fill="currentColor" fill-opacity="0.1"/>
<rect x="283.063" y="274.755" width="25.8019" height="29.7444" transform="rotate(-90 283.063 274.755)" fill="currentColor" fill-opacity="0.1"/>
<rect x="283.063" y="239.677" width="24.3995" height="28.1276" transform="rotate(-90 283.063 239.677)" fill="currentColor" fill-opacity="0.1"/>
<rect x="283.063" y="204.599" width="21.1437" height="24.3744" transform="rotate(-90 283.063 204.599)" fill="currentColor" fill-opacity="0.1"/>
<rect x="283.063" y="169.521" width="23.8648" height="27.5113" transform="rotate(-90 283.063 169.521)" fill="currentColor" fill-opacity="0.1"/>
<rect x="283.063" y="134.444" width="26.8117" height="30.9084" transform="rotate(-90 283.063 134.444)" fill="currentColor" fill-opacity="0.1"/>
<rect x="283.063" y="99.3655" width="30.694" height="35.3839" transform="rotate(-90 283.063 99.3655)" fill="currentColor" fill-opacity="0.1"/>
<rect x="283.063" y="64.2876" width="17.2739" height="19.9133" transform="rotate(-90 283.063 64.2876)" fill="currentColor" fill-opacity="0.1"/>
<rect x="283.063" y="29.2095" width="28.0508" height="32.3369" transform="rotate(-90 283.063 29.2095)" fill="currentColor" fill-opacity="0.1"/>
<rect x="323.501" y="836" width="11.3113" height="13.0396" transform="rotate(-90 323.501 836)" fill="currentColor" fill-opacity="0.1"/>
<rect x="323.501" y="800.922" width="29.0137" height="33.4469" transform="rotate(-90 323.501 800.922)" fill="currentColor" fill-opacity="0.1"/>
<rect x="323.501" y="765.844" width="21.909" height="25.2566" transform="rotate(-90 323.501 765.844)" fill="currentColor" fill-opacity="0.1"/>
<rect x="323.501" y="730.767" width="26.9109" height="31.0228" transform="rotate(-90 323.501 730.767)" fill="currentColor" fill-opacity="0.1"/>
<rect x="323.501" y="695.689" width="12.1091" height="13.9593" transform="rotate(-90 323.501 695.689)" fill="currentColor" fill-opacity="0.1"/>
<rect x="323.501" y="660.611" width="13.4592" height="15.5157" transform="rotate(-90 323.501 660.611)" fill="currentColor" fill-opacity="0.1"/>
<rect x="323.501" y="625.533" width="21.471" height="24.7517" transform="rotate(-90 323.501 625.533)" fill="currentColor" fill-opacity="0.1"/>
<rect x="323.501" y="590.456" width="27.5046" height="31.7072" transform="rotate(-90 323.501 590.456)" fill="currentColor" fill-opacity="0.1"/>
<rect x="323.501" y="555.377" width="10.6016" height="12.2215" transform="rotate(-90 323.501 555.377)" fill="currentColor" fill-opacity="0.1"/>
<rect x="323.501" y="520.3" width="28.7984" height="33.1987" transform="rotate(-90 323.501 520.3)" fill="currentColor" fill-opacity="0.1"/>
<rect x="323.501" y="485.222" width="30.2302" height="34.8492" transform="rotate(-90 323.501 485.222)" fill="currentColor" fill-opacity="0.1"/>
<rect x="323.501" y="450.144" width="27.9019" height="32.1653" transform="rotate(-90 323.501 450.144)" fill="currentColor" fill-opacity="0.1"/>
<rect x="323.501" y="415.066" width="25.3757" height="29.2531" transform="rotate(-90 323.501 415.066)" fill="currentColor" fill-opacity="0.1"/>
<rect x="323.501" y="379.988" width="24.3964" height="28.1241" transform="rotate(-90 323.501 379.988)" fill="currentColor" fill-opacity="0.1"/>
<rect x="323.501" y="344.91" width="24.5361" height="28.2852" transform="rotate(-90 323.501 344.91)" fill="currentColor" fill-opacity="0.1"/>
<rect x="323.501" y="309.833" width="11.5892" height="13.36" transform="rotate(-90 323.501 309.833)" fill="currentColor" fill-opacity="0.1"/>
<rect x="323.501" y="274.755" width="13.8605" height="15.9783" transform="rotate(-90 323.501 274.755)" fill="currentColor" fill-opacity="0.1"/>
<rect x="323.501" y="239.677" width="30.9127" height="35.6361" transform="rotate(-90 323.501 239.677)" fill="currentColor" fill-opacity="0.1"/>
<rect x="323.501" y="204.599" width="18.4092" height="21.2221" transform="rotate(-90 323.501 204.599)" fill="currentColor" fill-opacity="0.1"/>
<rect x="323.501" y="169.521" width="30.4262" height="35.0752" transform="rotate(-90 323.501 169.521)" fill="currentColor" fill-opacity="0.1"/>
<rect x="323.501" y="134.444" width="24.6509" height="28.4174" transform="rotate(-90 323.501 134.444)" fill="currentColor" fill-opacity="0.1"/>
<rect x="323.501" y="99.3655" width="20.7345" height="23.9026" transform="rotate(-90 323.501 99.3655)" fill="currentColor" fill-opacity="0.1"/>
<rect x="323.501" y="64.2876" width="11.9776" height="13.8077" transform="rotate(-90 323.501 64.2876)" fill="currentColor" fill-opacity="0.1"/>
<rect x="323.501" y="29.2095" width="10.8548" height="12.5134" transform="rotate(-90 323.501 29.2095)" fill="currentColor" fill-opacity="0.1"/>
<rect x="363.938" y="836" width="18.6625" height="21.514" transform="rotate(-90 363.938 836)" fill="currentColor" fill-opacity="0.1"/>
<rect x="363.938" y="800.922" width="27.4039" height="31.5912" transform="rotate(-90 363.938 800.922)" fill="currentColor" fill-opacity="0.1"/>
<rect x="363.938" y="765.844" width="22.0371" height="25.4043" transform="rotate(-90 363.938 765.844)" fill="currentColor" fill-opacity="0.1"/>
<rect x="363.938" y="730.767" width="31.4968" height="36.3094" transform="rotate(-90 363.938 730.767)" fill="currentColor" fill-opacity="0.1"/>
<rect x="363.938" y="695.689" width="20.1753" height="23.258" transform="rotate(-90 363.938 695.689)" fill="currentColor" fill-opacity="0.1"/>
<rect x="363.938" y="660.611" width="20.669" height="23.8271" transform="rotate(-90 363.938 660.611)" fill="currentColor" fill-opacity="0.1"/>
<rect x="363.938" y="625.533" width="30.5171" height="35.18" transform="rotate(-90 363.938 625.533)" fill="currentColor" fill-opacity="0.1"/>
<rect x="363.938" y="590.456" width="10.7158" height="12.3531" transform="rotate(-90 363.938 590.456)" fill="currentColor" fill-opacity="0.1"/>
<rect x="363.938" y="555.377" width="14.1685" height="16.3333" transform="rotate(-90 363.938 555.377)" fill="currentColor" fill-opacity="0.1"/>
<rect x="363.938" y="520.3" width="15.3066" height="17.6453" transform="rotate(-90 363.938 520.3)" fill="currentColor" fill-opacity="0.1"/>
<rect x="363.938" y="485.222" width="29.3866" height="33.8768" transform="rotate(-90 363.938 485.222)" fill="currentColor" fill-opacity="0.1"/>
<rect x="363.938" y="450.144" width="20.3222" height="23.4274" transform="rotate(-90 363.938 450.144)" fill="currentColor" fill-opacity="0.1"/>
<rect x="363.938" y="415.066" width="24.0423" height="27.7159" transform="rotate(-90 363.938 415.066)" fill="currentColor" fill-opacity="0.1"/>
<rect x="363.938" y="379.988" width="13.0661" height="15.0626" transform="rotate(-90 363.938 379.988)" fill="currentColor" fill-opacity="0.1"/>
<rect x="363.938" y="344.91" width="28.0013" height="32.2798" transform="rotate(-90 363.938 344.91)" fill="currentColor" fill-opacity="0.1"/>
<rect x="363.938" y="309.833" width="17.4317" height="20.0953" transform="rotate(-90 363.938 309.833)" fill="currentColor" fill-opacity="0.1"/>
<rect x="363.938" y="274.755" width="17.704" height="20.4091" transform="rotate(-90 363.938 274.755)" fill="currentColor" fill-opacity="0.1"/>
<rect x="363.938" y="239.677" width="21.2029" height="24.4427" transform="rotate(-90 363.938 239.677)" fill="currentColor" fill-opacity="0.1"/>
<rect x="363.938" y="204.599" width="23.9468" height="27.6058" transform="rotate(-90 363.938 204.599)" fill="currentColor" fill-opacity="0.1"/>
<rect x="363.938" y="169.521" width="19.0456" height="21.9557" transform="rotate(-90 363.938 169.521)" fill="currentColor" fill-opacity="0.1"/>
<rect x="363.938" y="134.444" width="13.3753" height="15.4191" transform="rotate(-90 363.938 134.444)" fill="currentColor" fill-opacity="0.1"/>
<rect x="363.938" y="99.3655" width="11.5862" height="13.3565" transform="rotate(-90 363.938 99.3655)" fill="currentColor" fill-opacity="0.1"/>
<rect x="363.938" y="64.2876" width="26.577" height="30.6379" transform="rotate(-90 363.938 64.2876)" fill="currentColor" fill-opacity="0.1"/>
<rect x="363.938" y="29.2095" width="15.6287" height="18.0167" transform="rotate(-90 363.938 29.2095)" fill="currentColor" fill-opacity="0.1"/>
<rect x="404.376" y="836" width="26.5195" height="30.5716" transform="rotate(-90 404.376 836)" fill="currentColor" fill-opacity="0.1"/>
<rect x="404.376" y="800.922" width="22.2202" height="25.6154" transform="rotate(-90 404.376 800.922)" fill="currentColor" fill-opacity="0.1"/>
<rect x="404.376" y="765.844" width="14.2959" height="16.4803" transform="rotate(-90 404.376 765.844)" fill="currentColor" fill-opacity="0.1"/>
<rect x="404.376" y="730.767" width="14.7883" height="17.0479" transform="rotate(-90 404.376 730.767)" fill="currentColor" fill-opacity="0.1"/>
<rect x="404.376" y="695.689" width="24.2334" height="27.9362" transform="rotate(-90 404.376 695.689)" fill="currentColor" fill-opacity="0.1"/>
<rect x="404.376" y="660.611" width="20.2592" height="23.3547" transform="rotate(-90 404.376 660.611)" fill="currentColor" fill-opacity="0.1"/>
<rect x="404.376" y="625.533" width="13.2359" height="15.2583" transform="rotate(-90 404.376 625.533)" fill="currentColor" fill-opacity="0.1"/>
<rect x="404.376" y="590.456" width="18.2236" height="21.0081" transform="rotate(-90 404.376 590.456)" fill="currentColor" fill-opacity="0.1"/>
<rect x="404.376" y="555.377" width="26.3187" height="30.3401" transform="rotate(-90 404.376 555.377)" fill="currentColor" fill-opacity="0.1"/>
<rect x="404.376" y="520.3" width="11.7188" height="13.5094" transform="rotate(-90 404.376 520.3)" fill="currentColor" fill-opacity="0.1"/>
<rect x="404.376" y="485.222" width="23.4091" height="26.986" transform="rotate(-90 404.376 485.222)" fill="currentColor" fill-opacity="0.1"/>
<rect x="404.376" y="450.144" width="25.0519" height="28.8798" transform="rotate(-90 404.376 450.144)" fill="currentColor" fill-opacity="0.1"/>
<rect x="404.376" y="415.066" width="15.1143" height="17.4237" transform="rotate(-90 404.376 415.066)" fill="currentColor" fill-opacity="0.1"/>
<rect x="404.376" y="379.988" width="13.2831" height="15.3127" transform="rotate(-90 404.376 379.988)" fill="currentColor" fill-opacity="0.1"/>
<rect x="404.376" y="344.91" width="19.7044" height="22.7151" transform="rotate(-90 404.376 344.91)" fill="currentColor" fill-opacity="0.1"/>
<rect x="404.376" y="309.833" width="19.7701" height="22.7909" transform="rotate(-90 404.376 309.833)" fill="currentColor" fill-opacity="0.1"/>
<rect x="404.376" y="274.755" width="26.0939" height="30.0809" transform="rotate(-90 404.376 274.755)" fill="currentColor" fill-opacity="0.1"/>
<rect x="404.376" y="239.677" width="30.3722" height="35.013" transform="rotate(-90 404.376 239.677)" fill="currentColor" fill-opacity="0.1"/>
<rect x="404.376" y="204.599" width="18.5776" height="21.4162" transform="rotate(-90 404.376 204.599)" fill="currentColor" fill-opacity="0.1"/>
<rect x="404.376" y="169.521" width="23.4106" height="26.9877" transform="rotate(-90 404.376 169.521)" fill="currentColor" fill-opacity="0.1"/>
<rect x="404.376" y="134.444" width="26.8707" height="30.9765" transform="rotate(-90 404.376 134.444)" fill="currentColor" fill-opacity="0.1"/>
<rect x="404.376" y="99.3655" width="31.4508" height="36.2564" transform="rotate(-90 404.376 99.3655)" fill="currentColor" fill-opacity="0.1"/>
<rect x="404.376" y="64.2876" width="30.9862" height="35.7208" transform="rotate(-90 404.376 64.2876)" fill="currentColor" fill-opacity="0.1"/>
<rect x="404.376" y="29.2095" width="29.1586" height="33.6139" transform="rotate(-90 404.376 29.2095)" fill="currentColor" fill-opacity="0.1"/>
<rect x="444.813" y="836" width="30.0463" height="34.6373" transform="rotate(-90 444.813 836)" fill="currentColor" fill-opacity="0.1"/>
<rect x="444.813" y="800.922" width="15.4565" height="17.8182" transform="rotate(-90 444.813 800.922)" fill="currentColor" fill-opacity="0.1"/>
<rect x="444.813" y="765.844" width="21.1526" height="24.3846" transform="rotate(-90 444.813 765.844)" fill="currentColor" fill-opacity="0.1"/>
<rect x="444.813" y="730.767" width="27.4388" height="31.6314" transform="rotate(-90 444.813 730.767)" fill="currentColor" fill-opacity="0.1"/>
<rect x="444.813" y="695.689" width="11.9195" height="13.7407" transform="rotate(-90 444.813 695.689)" fill="currentColor" fill-opacity="0.1"/>
<rect x="444.813" y="660.611" width="15.6386" height="18.0281" transform="rotate(-90 444.813 660.611)" fill="currentColor" fill-opacity="0.1"/>
<rect x="444.813" y="625.533" width="17.6507" height="20.3476" transform="rotate(-90 444.813 625.533)" fill="currentColor" fill-opacity="0.1"/>
<rect x="444.813" y="590.456" width="11.2688" height="12.9907" transform="rotate(-90 444.813 590.456)" fill="currentColor" fill-opacity="0.1"/>
<rect x="444.813" y="555.377" width="28.0877" height="32.3794" transform="rotate(-90 444.813 555.377)" fill="currentColor" fill-opacity="0.1"/>
<rect x="444.813" y="520.3" width="30.7003" height="35.3912" transform="rotate(-90 444.813 520.3)" fill="currentColor" fill-opacity="0.1"/>
<rect x="444.813" y="485.222" width="22.1518" height="25.5365" transform="rotate(-90 444.813 485.222)" fill="currentColor" fill-opacity="0.1"/>
<rect x="444.813" y="450.144" width="27.9441" height="32.2139" transform="rotate(-90 444.813 450.144)" fill="currentColor" fill-opacity="0.1"/>
<rect x="444.813" y="415.066" width="27.9869" height="32.2633" transform="rotate(-90 444.813 415.066)" fill="currentColor" fill-opacity="0.1"/>
<rect x="444.813" y="379.988" width="31.2137" height="35.983" transform="rotate(-90 444.813 379.988)" fill="currentColor" fill-opacity="0.1"/>
<rect x="444.813" y="344.91" width="22.7872" height="26.269" transform="rotate(-90 444.813 344.91)" fill="currentColor" fill-opacity="0.1"/>
<rect x="444.813" y="309.833" width="26.7215" height="30.8045" transform="rotate(-90 444.813 309.833)" fill="currentColor" fill-opacity="0.1"/>
<rect x="444.813" y="274.755" width="20.1717" height="23.2539" transform="rotate(-90 444.813 274.755)" fill="currentColor" fill-opacity="0.1"/>
<rect x="444.813" y="239.677" width="26.7872" height="30.8801" transform="rotate(-90 444.813 239.677)" fill="currentColor" fill-opacity="0.1"/>
<rect x="444.813" y="204.599" width="27.5309" height="31.7375" transform="rotate(-90 444.813 204.599)" fill="currentColor" fill-opacity="0.1"/>
<rect x="444.813" y="169.521" width="12.3426" height="14.2285" transform="rotate(-90 444.813 169.521)" fill="currentColor" fill-opacity="0.1"/>
<rect x="444.813" y="134.444" width="16.9047" height="19.4877" transform="rotate(-90 444.813 134.444)" fill="currentColor" fill-opacity="0.1"/>
<rect x="444.813" y="99.3655" width="10.7475" height="12.3897" transform="rotate(-90 444.813 99.3655)" fill="currentColor" fill-opacity="0.1"/>
<rect x="444.813" y="64.2876" width="28.4885" height="32.8415" transform="rotate(-90 444.813 64.2876)" fill="currentColor" fill-opacity="0.1"/>
<rect x="444.813" y="29.2095" width="13.4687" height="15.5267" transform="rotate(-90 444.813 29.2095)" fill="currentColor" fill-opacity="0.1"/>
</svg>
